%TF.GenerationSoftware,KiCad,Pcbnew,8.0.6*%
%TF.CreationDate,2024-11-17T13:24:28+02:00*%
%TF.ProjectId,1088as,31303838-6173-42e6-9b69-6361645f7063,rev?*%
%TF.SameCoordinates,PX4b9ebbdPY7add530*%
%TF.FileFunction,Other,User*%
%FSLAX46Y46*%
G04 Gerber Fmt 4.6, Leading zero omitted, Abs format (unit mm)*
G04 Created by KiCad (PCBNEW 8.0.6) date 2024-11-17 13:24:28*
%MOMM*%
%LPD*%
G01*
G04 APERTURE LIST*
%ADD10C,0.050000*%
G04 APERTURE END LIST*
D10*
%TO.C,R3*%
X45468639Y22543894D02*
X50368639Y22543894D01*
X45468639Y20303894D02*
X45468639Y22543894D01*
X50368639Y22543894D02*
X50368639Y20303894D01*
X50368639Y20303894D02*
X45468639Y20303894D01*
%TO.C,R5*%
X109481639Y54560094D02*
X114381639Y54560094D01*
X109481639Y52320094D02*
X109481639Y54560094D01*
X114381639Y54560094D02*
X114381639Y52320094D01*
X114381639Y52320094D02*
X109481639Y52320094D01*
%TO.C,C3*%
X45417873Y25733284D02*
X50377873Y25733284D01*
X45417873Y23433284D02*
X45417873Y25733284D01*
X50377873Y25733284D02*
X50377873Y23433284D01*
X50377873Y23433284D02*
X45417873Y23433284D01*
%TO.C,U2*%
X103983166Y19693319D02*
X103983166Y7833319D01*
X103983166Y7833319D02*
X119883166Y7833319D01*
X119883166Y19693319D02*
X103983166Y19693319D01*
X119883166Y7833319D02*
X119883166Y19693319D01*
%TO.C,R1*%
X109483166Y22497010D02*
X114383166Y22497010D01*
X109483166Y20257010D02*
X109483166Y22497010D01*
X114383166Y22497010D02*
X114383166Y20257010D01*
X114383166Y20257010D02*
X109483166Y20257010D01*
%TO.C,U14*%
X39989939Y51746078D02*
X39989939Y39886078D01*
X39989939Y39886078D02*
X55889939Y39886078D01*
X55889939Y51746078D02*
X39989939Y51746078D01*
X55889939Y39886078D02*
X55889939Y51746078D01*
%TO.C,U10*%
X103981639Y51756403D02*
X103981639Y39896403D01*
X103981639Y39896403D02*
X119881639Y39896403D01*
X119881639Y51756403D02*
X103981639Y51756403D01*
X119881639Y39896403D02*
X119881639Y51756403D01*
%TO.C,U12*%
X71993939Y51736750D02*
X71993939Y39876750D01*
X71993939Y39876750D02*
X87893939Y39876750D01*
X87893939Y51736750D02*
X71993939Y51736750D01*
X87893939Y39876750D02*
X87893939Y51736750D01*
%TO.C,C6*%
X77443173Y57729831D02*
X82403173Y57729831D01*
X77443173Y55429831D02*
X77443173Y57729831D01*
X82403173Y57729831D02*
X82403173Y55429831D01*
X82403173Y55429831D02*
X77443173Y55429831D01*
%TO.C,C5*%
X109430873Y57749484D02*
X114390873Y57749484D01*
X109430873Y55449484D02*
X109430873Y57749484D01*
X114390873Y57749484D02*
X114390873Y55449484D01*
X114390873Y55449484D02*
X109430873Y55449484D01*
%TO.C,U16*%
X7985939Y51765503D02*
X7985939Y39905503D01*
X7985939Y39905503D02*
X23885939Y39905503D01*
X23885939Y51765503D02*
X7985939Y51765503D01*
X23885939Y39905503D02*
X23885939Y51765503D01*
%TO.C,R6*%
X77493939Y54540441D02*
X82393939Y54540441D01*
X77493939Y52300441D02*
X77493939Y54540441D01*
X82393939Y54540441D02*
X82393939Y52300441D01*
X82393939Y52300441D02*
X77493939Y52300441D01*
%TO.C,R2*%
X77475353Y22506831D02*
X82375353Y22506831D01*
X77475353Y20266831D02*
X77475353Y22506831D01*
X82375353Y22506831D02*
X82375353Y20266831D01*
X82375353Y20266831D02*
X77475353Y20266831D01*
%TO.C,R8*%
X13485939Y54569194D02*
X18385939Y54569194D01*
X13485939Y52329194D02*
X13485939Y54569194D01*
X18385939Y54569194D02*
X18385939Y52329194D01*
X18385939Y52329194D02*
X13485939Y52329194D01*
%TO.C,C8*%
X13435173Y57758584D02*
X18395173Y57758584D01*
X13435173Y55458584D02*
X13435173Y57758584D01*
X18395173Y57758584D02*
X18395173Y55458584D01*
X18395173Y55458584D02*
X13435173Y55458584D01*
%TO.C,R7*%
X45489939Y54549769D02*
X50389939Y54549769D01*
X45489939Y52309769D02*
X45489939Y54549769D01*
X50389939Y54549769D02*
X50389939Y52309769D01*
X50389939Y52309769D02*
X45489939Y52309769D01*
%TO.C,U6*%
X39968639Y19740203D02*
X39968639Y7880203D01*
X39968639Y7880203D02*
X55868639Y7880203D01*
X55868639Y19740203D02*
X39968639Y19740203D01*
X55868639Y7880203D02*
X55868639Y19740203D01*
%TO.C,C1*%
X109432400Y25686400D02*
X114392400Y25686400D01*
X109432400Y23386400D02*
X109432400Y25686400D01*
X114392400Y25686400D02*
X114392400Y23386400D01*
X114392400Y23386400D02*
X109432400Y23386400D01*
%TO.C,U4*%
X71975353Y19703140D02*
X71975353Y7843140D01*
X71975353Y7843140D02*
X87875353Y7843140D01*
X87875353Y19703140D02*
X71975353Y19703140D01*
X87875353Y7843140D02*
X87875353Y19703140D01*
%TO.C,C7*%
X45439173Y57739159D02*
X50399173Y57739159D01*
X45439173Y55439159D02*
X45439173Y57739159D01*
X50399173Y57739159D02*
X50399173Y55439159D01*
X50399173Y55439159D02*
X45439173Y55439159D01*
%TO.C,U8*%
X7978989Y19736103D02*
X7978989Y7876103D01*
X7978989Y7876103D02*
X23878989Y7876103D01*
X23878989Y19736103D02*
X7978989Y19736103D01*
X23878989Y7876103D02*
X23878989Y19736103D01*
%TO.C,C2*%
X77424587Y25696221D02*
X82384587Y25696221D01*
X77424587Y23396221D02*
X77424587Y25696221D01*
X82384587Y25696221D02*
X82384587Y23396221D01*
X82384587Y23396221D02*
X77424587Y23396221D01*
%TO.C,C4*%
X13428223Y25729184D02*
X18388223Y25729184D01*
X13428223Y23429184D02*
X13428223Y25729184D01*
X18388223Y25729184D02*
X18388223Y23429184D01*
X18388223Y23429184D02*
X13428223Y23429184D01*
%TO.C,R4*%
X13478989Y22539794D02*
X18378989Y22539794D01*
X13478989Y20299794D02*
X13478989Y22539794D01*
X18378989Y22539794D02*
X18378989Y20299794D01*
X18378989Y20299794D02*
X13478989Y20299794D01*
%TD*%
M02*
