%TF.GenerationSoftware,KiCad,Pcbnew,8.0.6*%
%TF.CreationDate,2024-11-17T13:24:28+02:00*%
%TF.ProjectId,1088as,31303838-6173-42e6-9b69-6361645f7063,rev?*%
%TF.SameCoordinates,PX4b9ebbdPY7add530*%
%TF.FileFunction,AssemblyDrawing,Top*%
%FSLAX46Y46*%
G04 Gerber Fmt 4.6, Leading zero omitted, Abs format (unit mm)*
G04 Created by KiCad (PCBNEW 8.0.6) date 2024-11-17 13:24:28*
%MOMM*%
%LPD*%
G01*
G04 APERTURE LIST*
%ADD10C,0.150000*%
%ADD11C,0.120000*%
%ADD12C,0.100000*%
G04 APERTURE END LIST*
D10*
X47228162Y19149075D02*
X46656734Y19149075D01*
X46942448Y19149075D02*
X46942448Y20149075D01*
X46942448Y20149075D02*
X46847210Y20006218D01*
X46847210Y20006218D02*
X46751972Y19910980D01*
X46751972Y19910980D02*
X46656734Y19863361D01*
X47847210Y20149075D02*
X47942448Y20149075D01*
X47942448Y20149075D02*
X48037686Y20101456D01*
X48037686Y20101456D02*
X48085305Y20053837D01*
X48085305Y20053837D02*
X48132924Y19958599D01*
X48132924Y19958599D02*
X48180543Y19768123D01*
X48180543Y19768123D02*
X48180543Y19530028D01*
X48180543Y19530028D02*
X48132924Y19339552D01*
X48132924Y19339552D02*
X48085305Y19244314D01*
X48085305Y19244314D02*
X48037686Y19196694D01*
X48037686Y19196694D02*
X47942448Y19149075D01*
X47942448Y19149075D02*
X47847210Y19149075D01*
X47847210Y19149075D02*
X47751972Y19196694D01*
X47751972Y19196694D02*
X47704353Y19244314D01*
X47704353Y19244314D02*
X47656734Y19339552D01*
X47656734Y19339552D02*
X47609115Y19530028D01*
X47609115Y19530028D02*
X47609115Y19768123D01*
X47609115Y19768123D02*
X47656734Y19958599D01*
X47656734Y19958599D02*
X47704353Y20053837D01*
X47704353Y20053837D02*
X47751972Y20101456D01*
X47751972Y20101456D02*
X47847210Y20149075D01*
X48609115Y19149075D02*
X48609115Y20149075D01*
X49180543Y19149075D02*
X48751972Y19720504D01*
X49180543Y20149075D02*
X48609115Y19577647D01*
D11*
X47785306Y21060039D02*
X47518639Y21440992D01*
X47328163Y21060039D02*
X47328163Y21860039D01*
X47328163Y21860039D02*
X47632925Y21860039D01*
X47632925Y21860039D02*
X47709115Y21821944D01*
X47709115Y21821944D02*
X47747210Y21783849D01*
X47747210Y21783849D02*
X47785306Y21707658D01*
X47785306Y21707658D02*
X47785306Y21593373D01*
X47785306Y21593373D02*
X47747210Y21517182D01*
X47747210Y21517182D02*
X47709115Y21479087D01*
X47709115Y21479087D02*
X47632925Y21440992D01*
X47632925Y21440992D02*
X47328163Y21440992D01*
X48051972Y21860039D02*
X48547210Y21860039D01*
X48547210Y21860039D02*
X48280544Y21555277D01*
X48280544Y21555277D02*
X48394829Y21555277D01*
X48394829Y21555277D02*
X48471020Y21517182D01*
X48471020Y21517182D02*
X48509115Y21479087D01*
X48509115Y21479087D02*
X48547210Y21402896D01*
X48547210Y21402896D02*
X48547210Y21212420D01*
X48547210Y21212420D02*
X48509115Y21136230D01*
X48509115Y21136230D02*
X48471020Y21098134D01*
X48471020Y21098134D02*
X48394829Y21060039D01*
X48394829Y21060039D02*
X48166258Y21060039D01*
X48166258Y21060039D02*
X48090067Y21098134D01*
X48090067Y21098134D02*
X48051972Y21136230D01*
D10*
X1930844Y57668684D02*
X1930844Y58668684D01*
X1930844Y58192494D02*
X2502272Y58192494D01*
X2502272Y57668684D02*
X2502272Y58668684D01*
X2930844Y58573446D02*
X2978463Y58621065D01*
X2978463Y58621065D02*
X3073701Y58668684D01*
X3073701Y58668684D02*
X3311796Y58668684D01*
X3311796Y58668684D02*
X3407034Y58621065D01*
X3407034Y58621065D02*
X3454653Y58573446D01*
X3454653Y58573446D02*
X3502272Y58478208D01*
X3502272Y58478208D02*
X3502272Y58382970D01*
X3502272Y58382970D02*
X3454653Y58240113D01*
X3454653Y58240113D02*
X2883225Y57668684D01*
X2883225Y57668684D02*
X3502272Y57668684D01*
X3978463Y57668684D02*
X4168939Y57668684D01*
X4168939Y57668684D02*
X4264177Y57716303D01*
X4264177Y57716303D02*
X4311796Y57763923D01*
X4311796Y57763923D02*
X4407034Y57906780D01*
X4407034Y57906780D02*
X4454653Y58097256D01*
X4454653Y58097256D02*
X4454653Y58478208D01*
X4454653Y58478208D02*
X4407034Y58573446D01*
X4407034Y58573446D02*
X4359415Y58621065D01*
X4359415Y58621065D02*
X4264177Y58668684D01*
X4264177Y58668684D02*
X4073701Y58668684D01*
X4073701Y58668684D02*
X3978463Y58621065D01*
X3978463Y58621065D02*
X3930844Y58573446D01*
X3930844Y58573446D02*
X3883225Y58478208D01*
X3883225Y58478208D02*
X3883225Y58240113D01*
X3883225Y58240113D02*
X3930844Y58144875D01*
X3930844Y58144875D02*
X3978463Y58097256D01*
X3978463Y58097256D02*
X4073701Y58049637D01*
X4073701Y58049637D02*
X4264177Y58049637D01*
X4264177Y58049637D02*
X4359415Y58097256D01*
X4359415Y58097256D02*
X4407034Y58144875D01*
X4407034Y58144875D02*
X4454653Y58240113D01*
X65897844Y37695981D02*
X65897844Y38695981D01*
X65897844Y38219791D02*
X66469272Y38219791D01*
X66469272Y37695981D02*
X66469272Y38695981D01*
X66897844Y38600743D02*
X66945463Y38648362D01*
X66945463Y38648362D02*
X67040701Y38695981D01*
X67040701Y38695981D02*
X67278796Y38695981D01*
X67278796Y38695981D02*
X67374034Y38648362D01*
X67374034Y38648362D02*
X67421653Y38600743D01*
X67421653Y38600743D02*
X67469272Y38505505D01*
X67469272Y38505505D02*
X67469272Y38410267D01*
X67469272Y38410267D02*
X67421653Y38267410D01*
X67421653Y38267410D02*
X66850225Y37695981D01*
X66850225Y37695981D02*
X67469272Y37695981D01*
X68326415Y38362648D02*
X68326415Y37695981D01*
X68088320Y38743600D02*
X67850225Y38029315D01*
X67850225Y38029315D02*
X68469272Y38029315D01*
X1882894Y5695334D02*
X1882894Y6695334D01*
X1882894Y6219144D02*
X2454322Y6219144D01*
X2454322Y5695334D02*
X2454322Y6695334D01*
X3454322Y5695334D02*
X2882894Y5695334D01*
X3168608Y5695334D02*
X3168608Y6695334D01*
X3168608Y6695334D02*
X3073370Y6552477D01*
X3073370Y6552477D02*
X2978132Y6457239D01*
X2978132Y6457239D02*
X2882894Y6409620D01*
X4311465Y6695334D02*
X4120989Y6695334D01*
X4120989Y6695334D02*
X4025751Y6647715D01*
X4025751Y6647715D02*
X3978132Y6600096D01*
X3978132Y6600096D02*
X3882894Y6457239D01*
X3882894Y6457239D02*
X3835275Y6266763D01*
X3835275Y6266763D02*
X3835275Y5885811D01*
X3835275Y5885811D02*
X3882894Y5790573D01*
X3882894Y5790573D02*
X3930513Y5742953D01*
X3930513Y5742953D02*
X4025751Y5695334D01*
X4025751Y5695334D02*
X4216227Y5695334D01*
X4216227Y5695334D02*
X4311465Y5742953D01*
X4311465Y5742953D02*
X4359084Y5790573D01*
X4359084Y5790573D02*
X4406703Y5885811D01*
X4406703Y5885811D02*
X4406703Y6123906D01*
X4406703Y6123906D02*
X4359084Y6219144D01*
X4359084Y6219144D02*
X4311465Y6266763D01*
X4311465Y6266763D02*
X4216227Y6314382D01*
X4216227Y6314382D02*
X4025751Y6314382D01*
X4025751Y6314382D02*
X3930513Y6266763D01*
X3930513Y6266763D02*
X3882894Y6219144D01*
X3882894Y6219144D02*
X3835275Y6123906D01*
X111241162Y51165275D02*
X110669734Y51165275D01*
X110955448Y51165275D02*
X110955448Y52165275D01*
X110955448Y52165275D02*
X110860210Y52022418D01*
X110860210Y52022418D02*
X110764972Y51927180D01*
X110764972Y51927180D02*
X110669734Y51879561D01*
X111860210Y52165275D02*
X111955448Y52165275D01*
X111955448Y52165275D02*
X112050686Y52117656D01*
X112050686Y52117656D02*
X112098305Y52070037D01*
X112098305Y52070037D02*
X112145924Y51974799D01*
X112145924Y51974799D02*
X112193543Y51784323D01*
X112193543Y51784323D02*
X112193543Y51546228D01*
X112193543Y51546228D02*
X112145924Y51355752D01*
X112145924Y51355752D02*
X112098305Y51260514D01*
X112098305Y51260514D02*
X112050686Y51212894D01*
X112050686Y51212894D02*
X111955448Y51165275D01*
X111955448Y51165275D02*
X111860210Y51165275D01*
X111860210Y51165275D02*
X111764972Y51212894D01*
X111764972Y51212894D02*
X111717353Y51260514D01*
X111717353Y51260514D02*
X111669734Y51355752D01*
X111669734Y51355752D02*
X111622115Y51546228D01*
X111622115Y51546228D02*
X111622115Y51784323D01*
X111622115Y51784323D02*
X111669734Y51974799D01*
X111669734Y51974799D02*
X111717353Y52070037D01*
X111717353Y52070037D02*
X111764972Y52117656D01*
X111764972Y52117656D02*
X111860210Y52165275D01*
X112622115Y51165275D02*
X112622115Y52165275D01*
X113193543Y51165275D02*
X112764972Y51736704D01*
X113193543Y52165275D02*
X112622115Y51593847D01*
D11*
X111798306Y53076239D02*
X111531639Y53457192D01*
X111341163Y53076239D02*
X111341163Y53876239D01*
X111341163Y53876239D02*
X111645925Y53876239D01*
X111645925Y53876239D02*
X111722115Y53838144D01*
X111722115Y53838144D02*
X111760210Y53800049D01*
X111760210Y53800049D02*
X111798306Y53723858D01*
X111798306Y53723858D02*
X111798306Y53609573D01*
X111798306Y53609573D02*
X111760210Y53533382D01*
X111760210Y53533382D02*
X111722115Y53495287D01*
X111722115Y53495287D02*
X111645925Y53457192D01*
X111645925Y53457192D02*
X111341163Y53457192D01*
X112522115Y53876239D02*
X112141163Y53876239D01*
X112141163Y53876239D02*
X112103067Y53495287D01*
X112103067Y53495287D02*
X112141163Y53533382D01*
X112141163Y53533382D02*
X112217353Y53571477D01*
X112217353Y53571477D02*
X112407829Y53571477D01*
X112407829Y53571477D02*
X112484020Y53533382D01*
X112484020Y53533382D02*
X112522115Y53495287D01*
X112522115Y53495287D02*
X112560210Y53419096D01*
X112560210Y53419096D02*
X112560210Y53228620D01*
X112560210Y53228620D02*
X112522115Y53152430D01*
X112522115Y53152430D02*
X112484020Y53114334D01*
X112484020Y53114334D02*
X112407829Y53076239D01*
X112407829Y53076239D02*
X112217353Y53076239D01*
X112217353Y53076239D02*
X112141163Y53114334D01*
X112141163Y53114334D02*
X112103067Y53152430D01*
D10*
X1889844Y37724734D02*
X1889844Y38724734D01*
X1889844Y38248544D02*
X2461272Y38248544D01*
X2461272Y37724734D02*
X2461272Y38724734D01*
X2842225Y38724734D02*
X3461272Y38724734D01*
X3461272Y38724734D02*
X3127939Y38343782D01*
X3127939Y38343782D02*
X3270796Y38343782D01*
X3270796Y38343782D02*
X3366034Y38296163D01*
X3366034Y38296163D02*
X3413653Y38248544D01*
X3413653Y38248544D02*
X3461272Y38153306D01*
X3461272Y38153306D02*
X3461272Y37915211D01*
X3461272Y37915211D02*
X3413653Y37819973D01*
X3413653Y37819973D02*
X3366034Y37772353D01*
X3366034Y37772353D02*
X3270796Y37724734D01*
X3270796Y37724734D02*
X2985082Y37724734D01*
X2985082Y37724734D02*
X2889844Y37772353D01*
X2889844Y37772353D02*
X2842225Y37819973D01*
X3842225Y38629496D02*
X3889844Y38677115D01*
X3889844Y38677115D02*
X3985082Y38724734D01*
X3985082Y38724734D02*
X4223177Y38724734D01*
X4223177Y38724734D02*
X4318415Y38677115D01*
X4318415Y38677115D02*
X4366034Y38629496D01*
X4366034Y38629496D02*
X4413653Y38534258D01*
X4413653Y38534258D02*
X4413653Y38439020D01*
X4413653Y38439020D02*
X4366034Y38296163D01*
X4366034Y38296163D02*
X3794606Y37724734D01*
X3794606Y37724734D02*
X4413653Y37724734D01*
X92355448Y5662372D02*
X92355448Y6662372D01*
X92355448Y6186182D02*
X92926876Y6186182D01*
X92926876Y5662372D02*
X92926876Y6662372D01*
X93307829Y6662372D02*
X93974495Y6662372D01*
X93974495Y6662372D02*
X93545924Y5662372D01*
X124363261Y25652550D02*
X124363261Y26652550D01*
X124363261Y26176360D02*
X124934689Y26176360D01*
X124934689Y25652550D02*
X124934689Y26652550D01*
X125363261Y26557312D02*
X125410880Y26604931D01*
X125410880Y26604931D02*
X125506118Y26652550D01*
X125506118Y26652550D02*
X125744213Y26652550D01*
X125744213Y26652550D02*
X125839451Y26604931D01*
X125839451Y26604931D02*
X125887070Y26557312D01*
X125887070Y26557312D02*
X125934689Y26462074D01*
X125934689Y26462074D02*
X125934689Y26366836D01*
X125934689Y26366836D02*
X125887070Y26223979D01*
X125887070Y26223979D02*
X125315642Y25652550D01*
X125315642Y25652550D02*
X125934689Y25652550D01*
X111242689Y19102191D02*
X110671261Y19102191D01*
X110956975Y19102191D02*
X110956975Y20102191D01*
X110956975Y20102191D02*
X110861737Y19959334D01*
X110861737Y19959334D02*
X110766499Y19864096D01*
X110766499Y19864096D02*
X110671261Y19816477D01*
X111861737Y20102191D02*
X111956975Y20102191D01*
X111956975Y20102191D02*
X112052213Y20054572D01*
X112052213Y20054572D02*
X112099832Y20006953D01*
X112099832Y20006953D02*
X112147451Y19911715D01*
X112147451Y19911715D02*
X112195070Y19721239D01*
X112195070Y19721239D02*
X112195070Y19483144D01*
X112195070Y19483144D02*
X112147451Y19292668D01*
X112147451Y19292668D02*
X112099832Y19197430D01*
X112099832Y19197430D02*
X112052213Y19149810D01*
X112052213Y19149810D02*
X111956975Y19102191D01*
X111956975Y19102191D02*
X111861737Y19102191D01*
X111861737Y19102191D02*
X111766499Y19149810D01*
X111766499Y19149810D02*
X111718880Y19197430D01*
X111718880Y19197430D02*
X111671261Y19292668D01*
X111671261Y19292668D02*
X111623642Y19483144D01*
X111623642Y19483144D02*
X111623642Y19721239D01*
X111623642Y19721239D02*
X111671261Y19911715D01*
X111671261Y19911715D02*
X111718880Y20006953D01*
X111718880Y20006953D02*
X111766499Y20054572D01*
X111766499Y20054572D02*
X111861737Y20102191D01*
X112623642Y19102191D02*
X112623642Y20102191D01*
X113195070Y19102191D02*
X112766499Y19673620D01*
X113195070Y20102191D02*
X112623642Y19530763D01*
D11*
X111799833Y21013155D02*
X111533166Y21394108D01*
X111342690Y21013155D02*
X111342690Y21813155D01*
X111342690Y21813155D02*
X111647452Y21813155D01*
X111647452Y21813155D02*
X111723642Y21775060D01*
X111723642Y21775060D02*
X111761737Y21736965D01*
X111761737Y21736965D02*
X111799833Y21660774D01*
X111799833Y21660774D02*
X111799833Y21546489D01*
X111799833Y21546489D02*
X111761737Y21470298D01*
X111761737Y21470298D02*
X111723642Y21432203D01*
X111723642Y21432203D02*
X111647452Y21394108D01*
X111647452Y21394108D02*
X111342690Y21394108D01*
X112561737Y21013155D02*
X112104594Y21013155D01*
X112333166Y21013155D02*
X112333166Y21813155D01*
X112333166Y21813155D02*
X112256975Y21698870D01*
X112256975Y21698870D02*
X112180785Y21622679D01*
X112180785Y21622679D02*
X112104594Y21584584D01*
D10*
X27882894Y25695334D02*
X27882894Y26695334D01*
X27882894Y26219144D02*
X28454322Y26219144D01*
X28454322Y25695334D02*
X28454322Y26695334D01*
X29454322Y25695334D02*
X28882894Y25695334D01*
X29168608Y25695334D02*
X29168608Y26695334D01*
X29168608Y26695334D02*
X29073370Y26552477D01*
X29073370Y26552477D02*
X28978132Y26457239D01*
X28978132Y26457239D02*
X28882894Y26409620D01*
X30311465Y26362001D02*
X30311465Y25695334D01*
X30073370Y26742953D02*
X29835275Y26028668D01*
X29835275Y26028668D02*
X30454322Y26028668D01*
X123885544Y57715634D02*
X123885544Y58715634D01*
X123885544Y58239444D02*
X124456972Y58239444D01*
X124456972Y57715634D02*
X124456972Y58715634D01*
X125456972Y57715634D02*
X124885544Y57715634D01*
X125171258Y57715634D02*
X125171258Y58715634D01*
X125171258Y58715634D02*
X125076020Y58572777D01*
X125076020Y58572777D02*
X124980782Y58477539D01*
X124980782Y58477539D02*
X124885544Y58429920D01*
X126028401Y58287063D02*
X125933163Y58334682D01*
X125933163Y58334682D02*
X125885544Y58382301D01*
X125885544Y58382301D02*
X125837925Y58477539D01*
X125837925Y58477539D02*
X125837925Y58525158D01*
X125837925Y58525158D02*
X125885544Y58620396D01*
X125885544Y58620396D02*
X125933163Y58668015D01*
X125933163Y58668015D02*
X126028401Y58715634D01*
X126028401Y58715634D02*
X126218877Y58715634D01*
X126218877Y58715634D02*
X126314115Y58668015D01*
X126314115Y58668015D02*
X126361734Y58620396D01*
X126361734Y58620396D02*
X126409353Y58525158D01*
X126409353Y58525158D02*
X126409353Y58477539D01*
X126409353Y58477539D02*
X126361734Y58382301D01*
X126361734Y58382301D02*
X126314115Y58334682D01*
X126314115Y58334682D02*
X126218877Y58287063D01*
X126218877Y58287063D02*
X126028401Y58287063D01*
X126028401Y58287063D02*
X125933163Y58239444D01*
X125933163Y58239444D02*
X125885544Y58191825D01*
X125885544Y58191825D02*
X125837925Y58096587D01*
X125837925Y58096587D02*
X125837925Y57906111D01*
X125837925Y57906111D02*
X125885544Y57810873D01*
X125885544Y57810873D02*
X125933163Y57763253D01*
X125933163Y57763253D02*
X126028401Y57715634D01*
X126028401Y57715634D02*
X126218877Y57715634D01*
X126218877Y57715634D02*
X126314115Y57763253D01*
X126314115Y57763253D02*
X126361734Y57810873D01*
X126361734Y57810873D02*
X126409353Y57906111D01*
X126409353Y57906111D02*
X126409353Y58096587D01*
X126409353Y58096587D02*
X126361734Y58191825D01*
X126361734Y58191825D02*
X126314115Y58239444D01*
X126314115Y58239444D02*
X126218877Y58287063D01*
X123885544Y37715635D02*
X123885544Y38715635D01*
X123885544Y38239445D02*
X124456972Y38239445D01*
X124456972Y37715635D02*
X124456972Y38715635D01*
X125456972Y37715635D02*
X124885544Y37715635D01*
X125171258Y37715635D02*
X125171258Y38715635D01*
X125171258Y38715635D02*
X125076020Y38572778D01*
X125076020Y38572778D02*
X124980782Y38477540D01*
X124980782Y38477540D02*
X124885544Y38429921D01*
X125933163Y37715635D02*
X126123639Y37715635D01*
X126123639Y37715635D02*
X126218877Y37763254D01*
X126218877Y37763254D02*
X126266496Y37810874D01*
X126266496Y37810874D02*
X126361734Y37953731D01*
X126361734Y37953731D02*
X126409353Y38144207D01*
X126409353Y38144207D02*
X126409353Y38525159D01*
X126409353Y38525159D02*
X126361734Y38620397D01*
X126361734Y38620397D02*
X126314115Y38668016D01*
X126314115Y38668016D02*
X126218877Y38715635D01*
X126218877Y38715635D02*
X126028401Y38715635D01*
X126028401Y38715635D02*
X125933163Y38668016D01*
X125933163Y38668016D02*
X125885544Y38620397D01*
X125885544Y38620397D02*
X125837925Y38525159D01*
X125837925Y38525159D02*
X125837925Y38287064D01*
X125837925Y38287064D02*
X125885544Y38191826D01*
X125885544Y38191826D02*
X125933163Y38144207D01*
X125933163Y38144207D02*
X126028401Y38096588D01*
X126028401Y38096588D02*
X126218877Y38096588D01*
X126218877Y38096588D02*
X126314115Y38144207D01*
X126314115Y38144207D02*
X126361734Y38191826D01*
X126361734Y38191826D02*
X126409353Y38287064D01*
X79253462Y51145622D02*
X78682034Y51145622D01*
X78967748Y51145622D02*
X78967748Y52145622D01*
X78967748Y52145622D02*
X78872510Y52002765D01*
X78872510Y52002765D02*
X78777272Y51907527D01*
X78777272Y51907527D02*
X78682034Y51859908D01*
X79872510Y52145622D02*
X79967748Y52145622D01*
X79967748Y52145622D02*
X80062986Y52098003D01*
X80062986Y52098003D02*
X80110605Y52050384D01*
X80110605Y52050384D02*
X80158224Y51955146D01*
X80158224Y51955146D02*
X80205843Y51764670D01*
X80205843Y51764670D02*
X80205843Y51526575D01*
X80205843Y51526575D02*
X80158224Y51336099D01*
X80158224Y51336099D02*
X80110605Y51240861D01*
X80110605Y51240861D02*
X80062986Y51193241D01*
X80062986Y51193241D02*
X79967748Y51145622D01*
X79967748Y51145622D02*
X79872510Y51145622D01*
X79872510Y51145622D02*
X79777272Y51193241D01*
X79777272Y51193241D02*
X79729653Y51240861D01*
X79729653Y51240861D02*
X79682034Y51336099D01*
X79682034Y51336099D02*
X79634415Y51526575D01*
X79634415Y51526575D02*
X79634415Y51764670D01*
X79634415Y51764670D02*
X79682034Y51955146D01*
X79682034Y51955146D02*
X79729653Y52050384D01*
X79729653Y52050384D02*
X79777272Y52098003D01*
X79777272Y52098003D02*
X79872510Y52145622D01*
X80634415Y51145622D02*
X80634415Y52145622D01*
X81205843Y51145622D02*
X80777272Y51717051D01*
X81205843Y52145622D02*
X80634415Y51574194D01*
D11*
X79810606Y53056586D02*
X79543939Y53437539D01*
X79353463Y53056586D02*
X79353463Y53856586D01*
X79353463Y53856586D02*
X79658225Y53856586D01*
X79658225Y53856586D02*
X79734415Y53818491D01*
X79734415Y53818491D02*
X79772510Y53780396D01*
X79772510Y53780396D02*
X79810606Y53704205D01*
X79810606Y53704205D02*
X79810606Y53589920D01*
X79810606Y53589920D02*
X79772510Y53513729D01*
X79772510Y53513729D02*
X79734415Y53475634D01*
X79734415Y53475634D02*
X79658225Y53437539D01*
X79658225Y53437539D02*
X79353463Y53437539D01*
X80496320Y53856586D02*
X80343939Y53856586D01*
X80343939Y53856586D02*
X80267748Y53818491D01*
X80267748Y53818491D02*
X80229653Y53780396D01*
X80229653Y53780396D02*
X80153463Y53666110D01*
X80153463Y53666110D02*
X80115367Y53513729D01*
X80115367Y53513729D02*
X80115367Y53208967D01*
X80115367Y53208967D02*
X80153463Y53132777D01*
X80153463Y53132777D02*
X80191558Y53094681D01*
X80191558Y53094681D02*
X80267748Y53056586D01*
X80267748Y53056586D02*
X80420129Y53056586D01*
X80420129Y53056586D02*
X80496320Y53094681D01*
X80496320Y53094681D02*
X80534415Y53132777D01*
X80534415Y53132777D02*
X80572510Y53208967D01*
X80572510Y53208967D02*
X80572510Y53399443D01*
X80572510Y53399443D02*
X80534415Y53475634D01*
X80534415Y53475634D02*
X80496320Y53513729D01*
X80496320Y53513729D02*
X80420129Y53551824D01*
X80420129Y53551824D02*
X80267748Y53551824D01*
X80267748Y53551824D02*
X80191558Y53513729D01*
X80191558Y53513729D02*
X80153463Y53475634D01*
X80153463Y53475634D02*
X80115367Y53399443D01*
D10*
X27889844Y57724734D02*
X27889844Y58724734D01*
X27889844Y58248544D02*
X28461272Y58248544D01*
X28461272Y57724734D02*
X28461272Y58724734D01*
X28842225Y58724734D02*
X29461272Y58724734D01*
X29461272Y58724734D02*
X29127939Y58343782D01*
X29127939Y58343782D02*
X29270796Y58343782D01*
X29270796Y58343782D02*
X29366034Y58296163D01*
X29366034Y58296163D02*
X29413653Y58248544D01*
X29413653Y58248544D02*
X29461272Y58153306D01*
X29461272Y58153306D02*
X29461272Y57915211D01*
X29461272Y57915211D02*
X29413653Y57819973D01*
X29413653Y57819973D02*
X29366034Y57772353D01*
X29366034Y57772353D02*
X29270796Y57724734D01*
X29270796Y57724734D02*
X28985082Y57724734D01*
X28985082Y57724734D02*
X28889844Y57772353D01*
X28889844Y57772353D02*
X28842225Y57819973D01*
X30080320Y58724734D02*
X30175558Y58724734D01*
X30175558Y58724734D02*
X30270796Y58677115D01*
X30270796Y58677115D02*
X30318415Y58629496D01*
X30318415Y58629496D02*
X30366034Y58534258D01*
X30366034Y58534258D02*
X30413653Y58343782D01*
X30413653Y58343782D02*
X30413653Y58105687D01*
X30413653Y58105687D02*
X30366034Y57915211D01*
X30366034Y57915211D02*
X30318415Y57819973D01*
X30318415Y57819973D02*
X30270796Y57772353D01*
X30270796Y57772353D02*
X30175558Y57724734D01*
X30175558Y57724734D02*
X30080320Y57724734D01*
X30080320Y57724734D02*
X29985082Y57772353D01*
X29985082Y57772353D02*
X29937463Y57819973D01*
X29937463Y57819973D02*
X29889844Y57915211D01*
X29889844Y57915211D02*
X29842225Y58105687D01*
X29842225Y58105687D02*
X29842225Y58343782D01*
X29842225Y58343782D02*
X29889844Y58534258D01*
X29889844Y58534258D02*
X29937463Y58629496D01*
X29937463Y58629496D02*
X29985082Y58677115D01*
X29985082Y58677115D02*
X30080320Y58724734D01*
X27882894Y5695335D02*
X27882894Y6695335D01*
X27882894Y6219145D02*
X28454322Y6219145D01*
X28454322Y5695335D02*
X28454322Y6695335D01*
X29454322Y5695335D02*
X28882894Y5695335D01*
X29168608Y5695335D02*
X29168608Y6695335D01*
X29168608Y6695335D02*
X29073370Y6552478D01*
X29073370Y6552478D02*
X28978132Y6457240D01*
X28978132Y6457240D02*
X28882894Y6409621D01*
X30359084Y6695335D02*
X29882894Y6695335D01*
X29882894Y6695335D02*
X29835275Y6219145D01*
X29835275Y6219145D02*
X29882894Y6266764D01*
X29882894Y6266764D02*
X29978132Y6314383D01*
X29978132Y6314383D02*
X30216227Y6314383D01*
X30216227Y6314383D02*
X30311465Y6266764D01*
X30311465Y6266764D02*
X30359084Y6219145D01*
X30359084Y6219145D02*
X30406703Y6123907D01*
X30406703Y6123907D02*
X30406703Y5885812D01*
X30406703Y5885812D02*
X30359084Y5790574D01*
X30359084Y5790574D02*
X30311465Y5742954D01*
X30311465Y5742954D02*
X30216227Y5695335D01*
X30216227Y5695335D02*
X29978132Y5695335D01*
X29978132Y5695335D02*
X29882894Y5742954D01*
X29882894Y5742954D02*
X29835275Y5790574D01*
X33872544Y5699434D02*
X33872544Y6699434D01*
X33872544Y6223244D02*
X34443972Y6223244D01*
X34443972Y5699434D02*
X34443972Y6699434D01*
X35443972Y5699434D02*
X34872544Y5699434D01*
X35158258Y5699434D02*
X35158258Y6699434D01*
X35158258Y6699434D02*
X35063020Y6556577D01*
X35063020Y6556577D02*
X34967782Y6461339D01*
X34967782Y6461339D02*
X34872544Y6413720D01*
X35824925Y6604196D02*
X35872544Y6651815D01*
X35872544Y6651815D02*
X35967782Y6699434D01*
X35967782Y6699434D02*
X36205877Y6699434D01*
X36205877Y6699434D02*
X36301115Y6651815D01*
X36301115Y6651815D02*
X36348734Y6604196D01*
X36348734Y6604196D02*
X36396353Y6508958D01*
X36396353Y6508958D02*
X36396353Y6413720D01*
X36396353Y6413720D02*
X36348734Y6270863D01*
X36348734Y6270863D02*
X35777306Y5699434D01*
X35777306Y5699434D02*
X36396353Y5699434D01*
X79234876Y19112012D02*
X78663448Y19112012D01*
X78949162Y19112012D02*
X78949162Y20112012D01*
X78949162Y20112012D02*
X78853924Y19969155D01*
X78853924Y19969155D02*
X78758686Y19873917D01*
X78758686Y19873917D02*
X78663448Y19826298D01*
X79853924Y20112012D02*
X79949162Y20112012D01*
X79949162Y20112012D02*
X80044400Y20064393D01*
X80044400Y20064393D02*
X80092019Y20016774D01*
X80092019Y20016774D02*
X80139638Y19921536D01*
X80139638Y19921536D02*
X80187257Y19731060D01*
X80187257Y19731060D02*
X80187257Y19492965D01*
X80187257Y19492965D02*
X80139638Y19302489D01*
X80139638Y19302489D02*
X80092019Y19207251D01*
X80092019Y19207251D02*
X80044400Y19159631D01*
X80044400Y19159631D02*
X79949162Y19112012D01*
X79949162Y19112012D02*
X79853924Y19112012D01*
X79853924Y19112012D02*
X79758686Y19159631D01*
X79758686Y19159631D02*
X79711067Y19207251D01*
X79711067Y19207251D02*
X79663448Y19302489D01*
X79663448Y19302489D02*
X79615829Y19492965D01*
X79615829Y19492965D02*
X79615829Y19731060D01*
X79615829Y19731060D02*
X79663448Y19921536D01*
X79663448Y19921536D02*
X79711067Y20016774D01*
X79711067Y20016774D02*
X79758686Y20064393D01*
X79758686Y20064393D02*
X79853924Y20112012D01*
X80615829Y19112012D02*
X80615829Y20112012D01*
X81187257Y19112012D02*
X80758686Y19683441D01*
X81187257Y20112012D02*
X80615829Y19540584D01*
D11*
X79792020Y21022976D02*
X79525353Y21403929D01*
X79334877Y21022976D02*
X79334877Y21822976D01*
X79334877Y21822976D02*
X79639639Y21822976D01*
X79639639Y21822976D02*
X79715829Y21784881D01*
X79715829Y21784881D02*
X79753924Y21746786D01*
X79753924Y21746786D02*
X79792020Y21670595D01*
X79792020Y21670595D02*
X79792020Y21556310D01*
X79792020Y21556310D02*
X79753924Y21480119D01*
X79753924Y21480119D02*
X79715829Y21442024D01*
X79715829Y21442024D02*
X79639639Y21403929D01*
X79639639Y21403929D02*
X79334877Y21403929D01*
X80096781Y21746786D02*
X80134877Y21784881D01*
X80134877Y21784881D02*
X80211067Y21822976D01*
X80211067Y21822976D02*
X80401543Y21822976D01*
X80401543Y21822976D02*
X80477734Y21784881D01*
X80477734Y21784881D02*
X80515829Y21746786D01*
X80515829Y21746786D02*
X80553924Y21670595D01*
X80553924Y21670595D02*
X80553924Y21594405D01*
X80553924Y21594405D02*
X80515829Y21480119D01*
X80515829Y21480119D02*
X80058686Y21022976D01*
X80058686Y21022976D02*
X80553924Y21022976D01*
D10*
X1923894Y25639284D02*
X1923894Y26639284D01*
X1923894Y26163094D02*
X2495322Y26163094D01*
X2495322Y25639284D02*
X2495322Y26639284D01*
X3495322Y25639284D02*
X2923894Y25639284D01*
X3209608Y25639284D02*
X3209608Y26639284D01*
X3209608Y26639284D02*
X3114370Y26496427D01*
X3114370Y26496427D02*
X3019132Y26401189D01*
X3019132Y26401189D02*
X2923894Y26353570D01*
X3828656Y26639284D02*
X4447703Y26639284D01*
X4447703Y26639284D02*
X4114370Y26258332D01*
X4114370Y26258332D02*
X4257227Y26258332D01*
X4257227Y26258332D02*
X4352465Y26210713D01*
X4352465Y26210713D02*
X4400084Y26163094D01*
X4400084Y26163094D02*
X4447703Y26067856D01*
X4447703Y26067856D02*
X4447703Y25829761D01*
X4447703Y25829761D02*
X4400084Y25734523D01*
X4400084Y25734523D02*
X4352465Y25686903D01*
X4352465Y25686903D02*
X4257227Y25639284D01*
X4257227Y25639284D02*
X3971513Y25639284D01*
X3971513Y25639284D02*
X3876275Y25686903D01*
X3876275Y25686903D02*
X3828656Y25734523D01*
X59893844Y37705310D02*
X59893844Y38705310D01*
X59893844Y38229120D02*
X60465272Y38229120D01*
X60465272Y37705310D02*
X60465272Y38705310D01*
X60893844Y38610072D02*
X60941463Y38657691D01*
X60941463Y38657691D02*
X61036701Y38705310D01*
X61036701Y38705310D02*
X61274796Y38705310D01*
X61274796Y38705310D02*
X61370034Y38657691D01*
X61370034Y38657691D02*
X61417653Y38610072D01*
X61417653Y38610072D02*
X61465272Y38514834D01*
X61465272Y38514834D02*
X61465272Y38419596D01*
X61465272Y38419596D02*
X61417653Y38276739D01*
X61417653Y38276739D02*
X60846225Y37705310D01*
X60846225Y37705310D02*
X61465272Y37705310D01*
X61798606Y38705310D02*
X62465272Y38705310D01*
X62465272Y38705310D02*
X62036701Y37705310D01*
X15245462Y51174375D02*
X14674034Y51174375D01*
X14959748Y51174375D02*
X14959748Y52174375D01*
X14959748Y52174375D02*
X14864510Y52031518D01*
X14864510Y52031518D02*
X14769272Y51936280D01*
X14769272Y51936280D02*
X14674034Y51888661D01*
X15864510Y52174375D02*
X15959748Y52174375D01*
X15959748Y52174375D02*
X16054986Y52126756D01*
X16054986Y52126756D02*
X16102605Y52079137D01*
X16102605Y52079137D02*
X16150224Y51983899D01*
X16150224Y51983899D02*
X16197843Y51793423D01*
X16197843Y51793423D02*
X16197843Y51555328D01*
X16197843Y51555328D02*
X16150224Y51364852D01*
X16150224Y51364852D02*
X16102605Y51269614D01*
X16102605Y51269614D02*
X16054986Y51221994D01*
X16054986Y51221994D02*
X15959748Y51174375D01*
X15959748Y51174375D02*
X15864510Y51174375D01*
X15864510Y51174375D02*
X15769272Y51221994D01*
X15769272Y51221994D02*
X15721653Y51269614D01*
X15721653Y51269614D02*
X15674034Y51364852D01*
X15674034Y51364852D02*
X15626415Y51555328D01*
X15626415Y51555328D02*
X15626415Y51793423D01*
X15626415Y51793423D02*
X15674034Y51983899D01*
X15674034Y51983899D02*
X15721653Y52079137D01*
X15721653Y52079137D02*
X15769272Y52126756D01*
X15769272Y52126756D02*
X15864510Y52174375D01*
X16626415Y51174375D02*
X16626415Y52174375D01*
X17197843Y51174375D02*
X16769272Y51745804D01*
X17197843Y52174375D02*
X16626415Y51602947D01*
D11*
X15802606Y53085339D02*
X15535939Y53466292D01*
X15345463Y53085339D02*
X15345463Y53885339D01*
X15345463Y53885339D02*
X15650225Y53885339D01*
X15650225Y53885339D02*
X15726415Y53847244D01*
X15726415Y53847244D02*
X15764510Y53809149D01*
X15764510Y53809149D02*
X15802606Y53732958D01*
X15802606Y53732958D02*
X15802606Y53618673D01*
X15802606Y53618673D02*
X15764510Y53542482D01*
X15764510Y53542482D02*
X15726415Y53504387D01*
X15726415Y53504387D02*
X15650225Y53466292D01*
X15650225Y53466292D02*
X15345463Y53466292D01*
X16259748Y53542482D02*
X16183558Y53580577D01*
X16183558Y53580577D02*
X16145463Y53618673D01*
X16145463Y53618673D02*
X16107367Y53694863D01*
X16107367Y53694863D02*
X16107367Y53732958D01*
X16107367Y53732958D02*
X16145463Y53809149D01*
X16145463Y53809149D02*
X16183558Y53847244D01*
X16183558Y53847244D02*
X16259748Y53885339D01*
X16259748Y53885339D02*
X16412129Y53885339D01*
X16412129Y53885339D02*
X16488320Y53847244D01*
X16488320Y53847244D02*
X16526415Y53809149D01*
X16526415Y53809149D02*
X16564510Y53732958D01*
X16564510Y53732958D02*
X16564510Y53694863D01*
X16564510Y53694863D02*
X16526415Y53618673D01*
X16526415Y53618673D02*
X16488320Y53580577D01*
X16488320Y53580577D02*
X16412129Y53542482D01*
X16412129Y53542482D02*
X16259748Y53542482D01*
X16259748Y53542482D02*
X16183558Y53504387D01*
X16183558Y53504387D02*
X16145463Y53466292D01*
X16145463Y53466292D02*
X16107367Y53390101D01*
X16107367Y53390101D02*
X16107367Y53237720D01*
X16107367Y53237720D02*
X16145463Y53161530D01*
X16145463Y53161530D02*
X16183558Y53123434D01*
X16183558Y53123434D02*
X16259748Y53085339D01*
X16259748Y53085339D02*
X16412129Y53085339D01*
X16412129Y53085339D02*
X16488320Y53123434D01*
X16488320Y53123434D02*
X16526415Y53161530D01*
X16526415Y53161530D02*
X16564510Y53237720D01*
X16564510Y53237720D02*
X16564510Y53390101D01*
X16564510Y53390101D02*
X16526415Y53466292D01*
X16526415Y53466292D02*
X16488320Y53504387D01*
X16488320Y53504387D02*
X16412129Y53542482D01*
D10*
X47249462Y51154950D02*
X46678034Y51154950D01*
X46963748Y51154950D02*
X46963748Y52154950D01*
X46963748Y52154950D02*
X46868510Y52012093D01*
X46868510Y52012093D02*
X46773272Y51916855D01*
X46773272Y51916855D02*
X46678034Y51869236D01*
X47868510Y52154950D02*
X47963748Y52154950D01*
X47963748Y52154950D02*
X48058986Y52107331D01*
X48058986Y52107331D02*
X48106605Y52059712D01*
X48106605Y52059712D02*
X48154224Y51964474D01*
X48154224Y51964474D02*
X48201843Y51773998D01*
X48201843Y51773998D02*
X48201843Y51535903D01*
X48201843Y51535903D02*
X48154224Y51345427D01*
X48154224Y51345427D02*
X48106605Y51250189D01*
X48106605Y51250189D02*
X48058986Y51202569D01*
X48058986Y51202569D02*
X47963748Y51154950D01*
X47963748Y51154950D02*
X47868510Y51154950D01*
X47868510Y51154950D02*
X47773272Y51202569D01*
X47773272Y51202569D02*
X47725653Y51250189D01*
X47725653Y51250189D02*
X47678034Y51345427D01*
X47678034Y51345427D02*
X47630415Y51535903D01*
X47630415Y51535903D02*
X47630415Y51773998D01*
X47630415Y51773998D02*
X47678034Y51964474D01*
X47678034Y51964474D02*
X47725653Y52059712D01*
X47725653Y52059712D02*
X47773272Y52107331D01*
X47773272Y52107331D02*
X47868510Y52154950D01*
X48630415Y51154950D02*
X48630415Y52154950D01*
X49201843Y51154950D02*
X48773272Y51726379D01*
X49201843Y52154950D02*
X48630415Y51583522D01*
D11*
X47806606Y53065914D02*
X47539939Y53446867D01*
X47349463Y53065914D02*
X47349463Y53865914D01*
X47349463Y53865914D02*
X47654225Y53865914D01*
X47654225Y53865914D02*
X47730415Y53827819D01*
X47730415Y53827819D02*
X47768510Y53789724D01*
X47768510Y53789724D02*
X47806606Y53713533D01*
X47806606Y53713533D02*
X47806606Y53599248D01*
X47806606Y53599248D02*
X47768510Y53523057D01*
X47768510Y53523057D02*
X47730415Y53484962D01*
X47730415Y53484962D02*
X47654225Y53446867D01*
X47654225Y53446867D02*
X47349463Y53446867D01*
X48073272Y53865914D02*
X48606606Y53865914D01*
X48606606Y53865914D02*
X48263748Y53065914D01*
D10*
X98404261Y25596500D02*
X98404261Y26596500D01*
X98404261Y26120310D02*
X98975689Y26120310D01*
X98975689Y25596500D02*
X98975689Y26596500D01*
X99975689Y25596500D02*
X99404261Y25596500D01*
X99689975Y25596500D02*
X99689975Y26596500D01*
X99689975Y26596500D02*
X99594737Y26453643D01*
X99594737Y26453643D02*
X99499499Y26358405D01*
X99499499Y26358405D02*
X99404261Y26310786D01*
X27889844Y37724735D02*
X27889844Y38724735D01*
X27889844Y38248545D02*
X28461272Y38248545D01*
X28461272Y37724735D02*
X28461272Y38724735D01*
X28842225Y38724735D02*
X29461272Y38724735D01*
X29461272Y38724735D02*
X29127939Y38343783D01*
X29127939Y38343783D02*
X29270796Y38343783D01*
X29270796Y38343783D02*
X29366034Y38296164D01*
X29366034Y38296164D02*
X29413653Y38248545D01*
X29413653Y38248545D02*
X29461272Y38153307D01*
X29461272Y38153307D02*
X29461272Y37915212D01*
X29461272Y37915212D02*
X29413653Y37819974D01*
X29413653Y37819974D02*
X29366034Y37772354D01*
X29366034Y37772354D02*
X29270796Y37724735D01*
X29270796Y37724735D02*
X28985082Y37724735D01*
X28985082Y37724735D02*
X28889844Y37772354D01*
X28889844Y37772354D02*
X28842225Y37819974D01*
X30413653Y37724735D02*
X29842225Y37724735D01*
X30127939Y37724735D02*
X30127939Y38724735D01*
X30127939Y38724735D02*
X30032701Y38581878D01*
X30032701Y38581878D02*
X29937463Y38486640D01*
X29937463Y38486640D02*
X29842225Y38439021D01*
X97885544Y37715634D02*
X97885544Y38715634D01*
X97885544Y38239444D02*
X98456972Y38239444D01*
X98456972Y37715634D02*
X98456972Y38715634D01*
X98885544Y38620396D02*
X98933163Y38668015D01*
X98933163Y38668015D02*
X99028401Y38715634D01*
X99028401Y38715634D02*
X99266496Y38715634D01*
X99266496Y38715634D02*
X99361734Y38668015D01*
X99361734Y38668015D02*
X99409353Y38620396D01*
X99409353Y38620396D02*
X99456972Y38525158D01*
X99456972Y38525158D02*
X99456972Y38429920D01*
X99456972Y38429920D02*
X99409353Y38287063D01*
X99409353Y38287063D02*
X98837925Y37715634D01*
X98837925Y37715634D02*
X99456972Y37715634D01*
X100076020Y38715634D02*
X100171258Y38715634D01*
X100171258Y38715634D02*
X100266496Y38668015D01*
X100266496Y38668015D02*
X100314115Y38620396D01*
X100314115Y38620396D02*
X100361734Y38525158D01*
X100361734Y38525158D02*
X100409353Y38334682D01*
X100409353Y38334682D02*
X100409353Y38096587D01*
X100409353Y38096587D02*
X100361734Y37906111D01*
X100361734Y37906111D02*
X100314115Y37810873D01*
X100314115Y37810873D02*
X100266496Y37763253D01*
X100266496Y37763253D02*
X100171258Y37715634D01*
X100171258Y37715634D02*
X100076020Y37715634D01*
X100076020Y37715634D02*
X99980782Y37763253D01*
X99980782Y37763253D02*
X99933163Y37810873D01*
X99933163Y37810873D02*
X99885544Y37906111D01*
X99885544Y37906111D02*
X99837925Y38096587D01*
X99837925Y38096587D02*
X99837925Y38334682D01*
X99837925Y38334682D02*
X99885544Y38525158D01*
X99885544Y38525158D02*
X99933163Y38620396D01*
X99933163Y38620396D02*
X99980782Y38668015D01*
X99980782Y38668015D02*
X100076020Y38715634D01*
X33893844Y37705309D02*
X33893844Y38705309D01*
X33893844Y38229119D02*
X34465272Y38229119D01*
X34465272Y37705309D02*
X34465272Y38705309D01*
X34893844Y38610071D02*
X34941463Y38657690D01*
X34941463Y38657690D02*
X35036701Y38705309D01*
X35036701Y38705309D02*
X35274796Y38705309D01*
X35274796Y38705309D02*
X35370034Y38657690D01*
X35370034Y38657690D02*
X35417653Y38610071D01*
X35417653Y38610071D02*
X35465272Y38514833D01*
X35465272Y38514833D02*
X35465272Y38419595D01*
X35465272Y38419595D02*
X35417653Y38276738D01*
X35417653Y38276738D02*
X34846225Y37705309D01*
X34846225Y37705309D02*
X35465272Y37705309D01*
X36036701Y38276738D02*
X35941463Y38324357D01*
X35941463Y38324357D02*
X35893844Y38371976D01*
X35893844Y38371976D02*
X35846225Y38467214D01*
X35846225Y38467214D02*
X35846225Y38514833D01*
X35846225Y38514833D02*
X35893844Y38610071D01*
X35893844Y38610071D02*
X35941463Y38657690D01*
X35941463Y38657690D02*
X36036701Y38705309D01*
X36036701Y38705309D02*
X36227177Y38705309D01*
X36227177Y38705309D02*
X36322415Y38657690D01*
X36322415Y38657690D02*
X36370034Y38610071D01*
X36370034Y38610071D02*
X36417653Y38514833D01*
X36417653Y38514833D02*
X36417653Y38467214D01*
X36417653Y38467214D02*
X36370034Y38371976D01*
X36370034Y38371976D02*
X36322415Y38324357D01*
X36322415Y38324357D02*
X36227177Y38276738D01*
X36227177Y38276738D02*
X36036701Y38276738D01*
X36036701Y38276738D02*
X35941463Y38229119D01*
X35941463Y38229119D02*
X35893844Y38181500D01*
X35893844Y38181500D02*
X35846225Y38086262D01*
X35846225Y38086262D02*
X35846225Y37895786D01*
X35846225Y37895786D02*
X35893844Y37800548D01*
X35893844Y37800548D02*
X35941463Y37752928D01*
X35941463Y37752928D02*
X36036701Y37705309D01*
X36036701Y37705309D02*
X36227177Y37705309D01*
X36227177Y37705309D02*
X36322415Y37752928D01*
X36322415Y37752928D02*
X36370034Y37800548D01*
X36370034Y37800548D02*
X36417653Y37895786D01*
X36417653Y37895786D02*
X36417653Y38086262D01*
X36417653Y38086262D02*
X36370034Y38181500D01*
X36370034Y38181500D02*
X36322415Y38229119D01*
X36322415Y38229119D02*
X36227177Y38276738D01*
X33934844Y57649259D02*
X33934844Y58649259D01*
X33934844Y58173069D02*
X34506272Y58173069D01*
X34506272Y57649259D02*
X34506272Y58649259D01*
X34934844Y58554021D02*
X34982463Y58601640D01*
X34982463Y58601640D02*
X35077701Y58649259D01*
X35077701Y58649259D02*
X35315796Y58649259D01*
X35315796Y58649259D02*
X35411034Y58601640D01*
X35411034Y58601640D02*
X35458653Y58554021D01*
X35458653Y58554021D02*
X35506272Y58458783D01*
X35506272Y58458783D02*
X35506272Y58363545D01*
X35506272Y58363545D02*
X35458653Y58220688D01*
X35458653Y58220688D02*
X34887225Y57649259D01*
X34887225Y57649259D02*
X35506272Y57649259D01*
X36411034Y58649259D02*
X35934844Y58649259D01*
X35934844Y58649259D02*
X35887225Y58173069D01*
X35887225Y58173069D02*
X35934844Y58220688D01*
X35934844Y58220688D02*
X36030082Y58268307D01*
X36030082Y58268307D02*
X36268177Y58268307D01*
X36268177Y58268307D02*
X36363415Y58220688D01*
X36363415Y58220688D02*
X36411034Y58173069D01*
X36411034Y58173069D02*
X36458653Y58077831D01*
X36458653Y58077831D02*
X36458653Y57839736D01*
X36458653Y57839736D02*
X36411034Y57744498D01*
X36411034Y57744498D02*
X36363415Y57696878D01*
X36363415Y57696878D02*
X36268177Y57649259D01*
X36268177Y57649259D02*
X36030082Y57649259D01*
X36030082Y57649259D02*
X35934844Y57696878D01*
X35934844Y57696878D02*
X35887225Y57744498D01*
X124363261Y5652550D02*
X124363261Y6652550D01*
X124363261Y6176360D02*
X124934689Y6176360D01*
X124934689Y5652550D02*
X124934689Y6652550D01*
X125315642Y6652550D02*
X125934689Y6652550D01*
X125934689Y6652550D02*
X125601356Y6271598D01*
X125601356Y6271598D02*
X125744213Y6271598D01*
X125744213Y6271598D02*
X125839451Y6223979D01*
X125839451Y6223979D02*
X125887070Y6176360D01*
X125887070Y6176360D02*
X125934689Y6081122D01*
X125934689Y6081122D02*
X125934689Y5843027D01*
X125934689Y5843027D02*
X125887070Y5747789D01*
X125887070Y5747789D02*
X125839451Y5700169D01*
X125839451Y5700169D02*
X125744213Y5652550D01*
X125744213Y5652550D02*
X125458499Y5652550D01*
X125458499Y5652550D02*
X125363261Y5700169D01*
X125363261Y5700169D02*
X125315642Y5747789D01*
X66355448Y5662371D02*
X66355448Y6662371D01*
X66355448Y6186181D02*
X66926876Y6186181D01*
X66926876Y5662371D02*
X66926876Y6662371D01*
X67545924Y6233800D02*
X67450686Y6281419D01*
X67450686Y6281419D02*
X67403067Y6329038D01*
X67403067Y6329038D02*
X67355448Y6424276D01*
X67355448Y6424276D02*
X67355448Y6471895D01*
X67355448Y6471895D02*
X67403067Y6567133D01*
X67403067Y6567133D02*
X67450686Y6614752D01*
X67450686Y6614752D02*
X67545924Y6662371D01*
X67545924Y6662371D02*
X67736400Y6662371D01*
X67736400Y6662371D02*
X67831638Y6614752D01*
X67831638Y6614752D02*
X67879257Y6567133D01*
X67879257Y6567133D02*
X67926876Y6471895D01*
X67926876Y6471895D02*
X67926876Y6424276D01*
X67926876Y6424276D02*
X67879257Y6329038D01*
X67879257Y6329038D02*
X67831638Y6281419D01*
X67831638Y6281419D02*
X67736400Y6233800D01*
X67736400Y6233800D02*
X67545924Y6233800D01*
X67545924Y6233800D02*
X67450686Y6186181D01*
X67450686Y6186181D02*
X67403067Y6138562D01*
X67403067Y6138562D02*
X67355448Y6043324D01*
X67355448Y6043324D02*
X67355448Y5852848D01*
X67355448Y5852848D02*
X67403067Y5757610D01*
X67403067Y5757610D02*
X67450686Y5709990D01*
X67450686Y5709990D02*
X67545924Y5662371D01*
X67545924Y5662371D02*
X67736400Y5662371D01*
X67736400Y5662371D02*
X67831638Y5709990D01*
X67831638Y5709990D02*
X67879257Y5757610D01*
X67879257Y5757610D02*
X67926876Y5852848D01*
X67926876Y5852848D02*
X67926876Y6043324D01*
X67926876Y6043324D02*
X67879257Y6138562D01*
X67879257Y6138562D02*
X67831638Y6186181D01*
X67831638Y6186181D02*
X67736400Y6233800D01*
X66396448Y25606321D02*
X66396448Y26606321D01*
X66396448Y26130131D02*
X66967876Y26130131D01*
X66967876Y25606321D02*
X66967876Y26606321D01*
X67920257Y26606321D02*
X67444067Y26606321D01*
X67444067Y26606321D02*
X67396448Y26130131D01*
X67396448Y26130131D02*
X67444067Y26177750D01*
X67444067Y26177750D02*
X67539305Y26225369D01*
X67539305Y26225369D02*
X67777400Y26225369D01*
X67777400Y26225369D02*
X67872638Y26177750D01*
X67872638Y26177750D02*
X67920257Y26130131D01*
X67920257Y26130131D02*
X67967876Y26034893D01*
X67967876Y26034893D02*
X67967876Y25796798D01*
X67967876Y25796798D02*
X67920257Y25701560D01*
X67920257Y25701560D02*
X67872638Y25653940D01*
X67872638Y25653940D02*
X67777400Y25606321D01*
X67777400Y25606321D02*
X67539305Y25606321D01*
X67539305Y25606321D02*
X67444067Y25653940D01*
X67444067Y25653940D02*
X67396448Y25701560D01*
X34389734Y25643384D02*
X34389734Y26643384D01*
X34389734Y26167194D02*
X34961162Y26167194D01*
X34961162Y25643384D02*
X34961162Y26643384D01*
X35484972Y25643384D02*
X35675448Y25643384D01*
X35675448Y25643384D02*
X35770686Y25691003D01*
X35770686Y25691003D02*
X35818305Y25738623D01*
X35818305Y25738623D02*
X35913543Y25881480D01*
X35913543Y25881480D02*
X35961162Y26071956D01*
X35961162Y26071956D02*
X35961162Y26452908D01*
X35961162Y26452908D02*
X35913543Y26548146D01*
X35913543Y26548146D02*
X35865924Y26595765D01*
X35865924Y26595765D02*
X35770686Y26643384D01*
X35770686Y26643384D02*
X35580210Y26643384D01*
X35580210Y26643384D02*
X35484972Y26595765D01*
X35484972Y26595765D02*
X35437353Y26548146D01*
X35437353Y26548146D02*
X35389734Y26452908D01*
X35389734Y26452908D02*
X35389734Y26214813D01*
X35389734Y26214813D02*
X35437353Y26119575D01*
X35437353Y26119575D02*
X35484972Y26071956D01*
X35484972Y26071956D02*
X35580210Y26024337D01*
X35580210Y26024337D02*
X35770686Y26024337D01*
X35770686Y26024337D02*
X35865924Y26071956D01*
X35865924Y26071956D02*
X35913543Y26119575D01*
X35913543Y26119575D02*
X35961162Y26214813D01*
X59872544Y25699434D02*
X59872544Y26699434D01*
X59872544Y26223244D02*
X60443972Y26223244D01*
X60443972Y25699434D02*
X60443972Y26699434D01*
X61443972Y25699434D02*
X60872544Y25699434D01*
X61158258Y25699434D02*
X61158258Y26699434D01*
X61158258Y26699434D02*
X61063020Y26556577D01*
X61063020Y26556577D02*
X60967782Y26461339D01*
X60967782Y26461339D02*
X60872544Y26413720D01*
X62063020Y26699434D02*
X62158258Y26699434D01*
X62158258Y26699434D02*
X62253496Y26651815D01*
X62253496Y26651815D02*
X62301115Y26604196D01*
X62301115Y26604196D02*
X62348734Y26508958D01*
X62348734Y26508958D02*
X62396353Y26318482D01*
X62396353Y26318482D02*
X62396353Y26080387D01*
X62396353Y26080387D02*
X62348734Y25889911D01*
X62348734Y25889911D02*
X62301115Y25794673D01*
X62301115Y25794673D02*
X62253496Y25747053D01*
X62253496Y25747053D02*
X62158258Y25699434D01*
X62158258Y25699434D02*
X62063020Y25699434D01*
X62063020Y25699434D02*
X61967782Y25747053D01*
X61967782Y25747053D02*
X61920163Y25794673D01*
X61920163Y25794673D02*
X61872544Y25889911D01*
X61872544Y25889911D02*
X61824925Y26080387D01*
X61824925Y26080387D02*
X61824925Y26318482D01*
X61824925Y26318482D02*
X61872544Y26508958D01*
X61872544Y26508958D02*
X61920163Y26604196D01*
X61920163Y26604196D02*
X61967782Y26651815D01*
X61967782Y26651815D02*
X62063020Y26699434D01*
X91897844Y57695981D02*
X91897844Y58695981D01*
X91897844Y58219791D02*
X92469272Y58219791D01*
X92469272Y57695981D02*
X92469272Y58695981D01*
X92897844Y58600743D02*
X92945463Y58648362D01*
X92945463Y58648362D02*
X93040701Y58695981D01*
X93040701Y58695981D02*
X93278796Y58695981D01*
X93278796Y58695981D02*
X93374034Y58648362D01*
X93374034Y58648362D02*
X93421653Y58600743D01*
X93421653Y58600743D02*
X93469272Y58505505D01*
X93469272Y58505505D02*
X93469272Y58410267D01*
X93469272Y58410267D02*
X93421653Y58267410D01*
X93421653Y58267410D02*
X92850225Y57695981D01*
X92850225Y57695981D02*
X93469272Y57695981D01*
X93850225Y58600743D02*
X93897844Y58648362D01*
X93897844Y58648362D02*
X93993082Y58695981D01*
X93993082Y58695981D02*
X94231177Y58695981D01*
X94231177Y58695981D02*
X94326415Y58648362D01*
X94326415Y58648362D02*
X94374034Y58600743D01*
X94374034Y58600743D02*
X94421653Y58505505D01*
X94421653Y58505505D02*
X94421653Y58410267D01*
X94421653Y58410267D02*
X94374034Y58267410D01*
X94374034Y58267410D02*
X93802606Y57695981D01*
X93802606Y57695981D02*
X94421653Y57695981D01*
X59893844Y57705309D02*
X59893844Y58705309D01*
X59893844Y58229119D02*
X60465272Y58229119D01*
X60465272Y57705309D02*
X60465272Y58705309D01*
X60893844Y58610071D02*
X60941463Y58657690D01*
X60941463Y58657690D02*
X61036701Y58705309D01*
X61036701Y58705309D02*
X61274796Y58705309D01*
X61274796Y58705309D02*
X61370034Y58657690D01*
X61370034Y58657690D02*
X61417653Y58610071D01*
X61417653Y58610071D02*
X61465272Y58514833D01*
X61465272Y58514833D02*
X61465272Y58419595D01*
X61465272Y58419595D02*
X61417653Y58276738D01*
X61417653Y58276738D02*
X60846225Y57705309D01*
X60846225Y57705309D02*
X61465272Y57705309D01*
X62322415Y58705309D02*
X62131939Y58705309D01*
X62131939Y58705309D02*
X62036701Y58657690D01*
X62036701Y58657690D02*
X61989082Y58610071D01*
X61989082Y58610071D02*
X61893844Y58467214D01*
X61893844Y58467214D02*
X61846225Y58276738D01*
X61846225Y58276738D02*
X61846225Y57895786D01*
X61846225Y57895786D02*
X61893844Y57800548D01*
X61893844Y57800548D02*
X61941463Y57752928D01*
X61941463Y57752928D02*
X62036701Y57705309D01*
X62036701Y57705309D02*
X62227177Y57705309D01*
X62227177Y57705309D02*
X62322415Y57752928D01*
X62322415Y57752928D02*
X62370034Y57800548D01*
X62370034Y57800548D02*
X62417653Y57895786D01*
X62417653Y57895786D02*
X62417653Y58133881D01*
X62417653Y58133881D02*
X62370034Y58229119D01*
X62370034Y58229119D02*
X62322415Y58276738D01*
X62322415Y58276738D02*
X62227177Y58324357D01*
X62227177Y58324357D02*
X62036701Y58324357D01*
X62036701Y58324357D02*
X61941463Y58276738D01*
X61941463Y58276738D02*
X61893844Y58229119D01*
X61893844Y58229119D02*
X61846225Y58133881D01*
X97926544Y57659584D02*
X97926544Y58659584D01*
X97926544Y58183394D02*
X98497972Y58183394D01*
X98497972Y57659584D02*
X98497972Y58659584D01*
X99497972Y57659584D02*
X98926544Y57659584D01*
X99212258Y57659584D02*
X99212258Y58659584D01*
X99212258Y58659584D02*
X99117020Y58516727D01*
X99117020Y58516727D02*
X99021782Y58421489D01*
X99021782Y58421489D02*
X98926544Y58373870D01*
X99831306Y58659584D02*
X100497972Y58659584D01*
X100497972Y58659584D02*
X100069401Y57659584D01*
X91897844Y37695982D02*
X91897844Y38695982D01*
X91897844Y38219792D02*
X92469272Y38219792D01*
X92469272Y37695982D02*
X92469272Y38695982D01*
X92897844Y38600744D02*
X92945463Y38648363D01*
X92945463Y38648363D02*
X93040701Y38695982D01*
X93040701Y38695982D02*
X93278796Y38695982D01*
X93278796Y38695982D02*
X93374034Y38648363D01*
X93374034Y38648363D02*
X93421653Y38600744D01*
X93421653Y38600744D02*
X93469272Y38505506D01*
X93469272Y38505506D02*
X93469272Y38410268D01*
X93469272Y38410268D02*
X93421653Y38267411D01*
X93421653Y38267411D02*
X92850225Y37695982D01*
X92850225Y37695982D02*
X93469272Y37695982D01*
X93802606Y38695982D02*
X94421653Y38695982D01*
X94421653Y38695982D02*
X94088320Y38315030D01*
X94088320Y38315030D02*
X94231177Y38315030D01*
X94231177Y38315030D02*
X94326415Y38267411D01*
X94326415Y38267411D02*
X94374034Y38219792D01*
X94374034Y38219792D02*
X94421653Y38124554D01*
X94421653Y38124554D02*
X94421653Y37886459D01*
X94421653Y37886459D02*
X94374034Y37791221D01*
X94374034Y37791221D02*
X94326415Y37743601D01*
X94326415Y37743601D02*
X94231177Y37695982D01*
X94231177Y37695982D02*
X93945463Y37695982D01*
X93945463Y37695982D02*
X93850225Y37743601D01*
X93850225Y37743601D02*
X93802606Y37791221D01*
X92355448Y25662371D02*
X92355448Y26662371D01*
X92355448Y26186181D02*
X92926876Y26186181D01*
X92926876Y25662371D02*
X92926876Y26662371D01*
X93831638Y26662371D02*
X93641162Y26662371D01*
X93641162Y26662371D02*
X93545924Y26614752D01*
X93545924Y26614752D02*
X93498305Y26567133D01*
X93498305Y26567133D02*
X93403067Y26424276D01*
X93403067Y26424276D02*
X93355448Y26233800D01*
X93355448Y26233800D02*
X93355448Y25852848D01*
X93355448Y25852848D02*
X93403067Y25757610D01*
X93403067Y25757610D02*
X93450686Y25709990D01*
X93450686Y25709990D02*
X93545924Y25662371D01*
X93545924Y25662371D02*
X93736400Y25662371D01*
X93736400Y25662371D02*
X93831638Y25709990D01*
X93831638Y25709990D02*
X93879257Y25757610D01*
X93879257Y25757610D02*
X93926876Y25852848D01*
X93926876Y25852848D02*
X93926876Y26090943D01*
X93926876Y26090943D02*
X93879257Y26186181D01*
X93879257Y26186181D02*
X93831638Y26233800D01*
X93831638Y26233800D02*
X93736400Y26281419D01*
X93736400Y26281419D02*
X93545924Y26281419D01*
X93545924Y26281419D02*
X93450686Y26233800D01*
X93450686Y26233800D02*
X93403067Y26186181D01*
X93403067Y26186181D02*
X93355448Y26090943D01*
X65938844Y57639931D02*
X65938844Y58639931D01*
X65938844Y58163741D02*
X66510272Y58163741D01*
X66510272Y57639931D02*
X66510272Y58639931D01*
X66938844Y58544693D02*
X66986463Y58592312D01*
X66986463Y58592312D02*
X67081701Y58639931D01*
X67081701Y58639931D02*
X67319796Y58639931D01*
X67319796Y58639931D02*
X67415034Y58592312D01*
X67415034Y58592312D02*
X67462653Y58544693D01*
X67462653Y58544693D02*
X67510272Y58449455D01*
X67510272Y58449455D02*
X67510272Y58354217D01*
X67510272Y58354217D02*
X67462653Y58211360D01*
X67462653Y58211360D02*
X66891225Y57639931D01*
X66891225Y57639931D02*
X67510272Y57639931D01*
X68462653Y57639931D02*
X67891225Y57639931D01*
X68176939Y57639931D02*
X68176939Y58639931D01*
X68176939Y58639931D02*
X68081701Y58497074D01*
X68081701Y58497074D02*
X67986463Y58401836D01*
X67986463Y58401836D02*
X67891225Y58354217D01*
X59872544Y5699435D02*
X59872544Y6699435D01*
X59872544Y6223245D02*
X60443972Y6223245D01*
X60443972Y5699435D02*
X60443972Y6699435D01*
X61443972Y5699435D02*
X60872544Y5699435D01*
X61158258Y5699435D02*
X61158258Y6699435D01*
X61158258Y6699435D02*
X61063020Y6556578D01*
X61063020Y6556578D02*
X60967782Y6461340D01*
X60967782Y6461340D02*
X60872544Y6413721D01*
X62396353Y5699435D02*
X61824925Y5699435D01*
X62110639Y5699435D02*
X62110639Y6699435D01*
X62110639Y6699435D02*
X62015401Y6556578D01*
X62015401Y6556578D02*
X61920163Y6461340D01*
X61920163Y6461340D02*
X61824925Y6413721D01*
X15238512Y19144975D02*
X14667084Y19144975D01*
X14952798Y19144975D02*
X14952798Y20144975D01*
X14952798Y20144975D02*
X14857560Y20002118D01*
X14857560Y20002118D02*
X14762322Y19906880D01*
X14762322Y19906880D02*
X14667084Y19859261D01*
X15857560Y20144975D02*
X15952798Y20144975D01*
X15952798Y20144975D02*
X16048036Y20097356D01*
X16048036Y20097356D02*
X16095655Y20049737D01*
X16095655Y20049737D02*
X16143274Y19954499D01*
X16143274Y19954499D02*
X16190893Y19764023D01*
X16190893Y19764023D02*
X16190893Y19525928D01*
X16190893Y19525928D02*
X16143274Y19335452D01*
X16143274Y19335452D02*
X16095655Y19240214D01*
X16095655Y19240214D02*
X16048036Y19192594D01*
X16048036Y19192594D02*
X15952798Y19144975D01*
X15952798Y19144975D02*
X15857560Y19144975D01*
X15857560Y19144975D02*
X15762322Y19192594D01*
X15762322Y19192594D02*
X15714703Y19240214D01*
X15714703Y19240214D02*
X15667084Y19335452D01*
X15667084Y19335452D02*
X15619465Y19525928D01*
X15619465Y19525928D02*
X15619465Y19764023D01*
X15619465Y19764023D02*
X15667084Y19954499D01*
X15667084Y19954499D02*
X15714703Y20049737D01*
X15714703Y20049737D02*
X15762322Y20097356D01*
X15762322Y20097356D02*
X15857560Y20144975D01*
X16619465Y19144975D02*
X16619465Y20144975D01*
X17190893Y19144975D02*
X16762322Y19716404D01*
X17190893Y20144975D02*
X16619465Y19573547D01*
D11*
X15795656Y21055939D02*
X15528989Y21436892D01*
X15338513Y21055939D02*
X15338513Y21855939D01*
X15338513Y21855939D02*
X15643275Y21855939D01*
X15643275Y21855939D02*
X15719465Y21817844D01*
X15719465Y21817844D02*
X15757560Y21779749D01*
X15757560Y21779749D02*
X15795656Y21703558D01*
X15795656Y21703558D02*
X15795656Y21589273D01*
X15795656Y21589273D02*
X15757560Y21513082D01*
X15757560Y21513082D02*
X15719465Y21474987D01*
X15719465Y21474987D02*
X15643275Y21436892D01*
X15643275Y21436892D02*
X15338513Y21436892D01*
X16481370Y21589273D02*
X16481370Y21055939D01*
X16290894Y21894034D02*
X16100417Y21322606D01*
X16100417Y21322606D02*
X16595656Y21322606D01*
D10*
X98363261Y5652550D02*
X98363261Y6652550D01*
X98363261Y6176360D02*
X98934689Y6176360D01*
X98934689Y5652550D02*
X98934689Y6652550D01*
X99839451Y6319217D02*
X99839451Y5652550D01*
X99601356Y6700169D02*
X99363261Y5985884D01*
X99363261Y5985884D02*
X99982308Y5985884D01*
D12*
%TO.C,R3*%
X46318639Y22223894D02*
X49518639Y22223894D01*
X46318639Y20623894D02*
X46318639Y22223894D01*
X49518639Y22223894D02*
X49518639Y20623894D01*
X49518639Y20623894D02*
X46318639Y20623894D01*
%TO.C,R5*%
X110331639Y54240094D02*
X113531639Y54240094D01*
X110331639Y52640094D02*
X110331639Y54240094D01*
X113531639Y54240094D02*
X113531639Y52640094D01*
X113531639Y52640094D02*
X110331639Y52640094D01*
%TO.C,C3*%
X46297873Y25383284D02*
X49497873Y25383284D01*
X46297873Y23783284D02*
X46297873Y25383284D01*
X49497873Y25383284D02*
X49497873Y23783284D01*
X49497873Y23783284D02*
X46297873Y23783284D01*
%TO.C,U2*%
X104233166Y17513319D02*
X119633166Y17513319D01*
X104233166Y11013319D02*
X104233166Y17513319D01*
X105233166Y10013319D02*
X104233166Y11013319D01*
X119633166Y17513319D02*
X119633166Y10013319D01*
X119633166Y10013319D02*
X105233166Y10013319D01*
%TO.C,R1*%
X110333166Y22177010D02*
X113533166Y22177010D01*
X110333166Y20577010D02*
X110333166Y22177010D01*
X113533166Y22177010D02*
X113533166Y20577010D01*
X113533166Y20577010D02*
X110333166Y20577010D01*
%TO.C,U14*%
X40239939Y49566078D02*
X55639939Y49566078D01*
X40239939Y43066078D02*
X40239939Y49566078D01*
X41239939Y42066078D02*
X40239939Y43066078D01*
X55639939Y49566078D02*
X55639939Y42066078D01*
X55639939Y42066078D02*
X41239939Y42066078D01*
%TO.C,U10*%
X104231639Y49576403D02*
X119631639Y49576403D01*
X104231639Y43076403D02*
X104231639Y49576403D01*
X105231639Y42076403D02*
X104231639Y43076403D01*
X119631639Y49576403D02*
X119631639Y42076403D01*
X119631639Y42076403D02*
X105231639Y42076403D01*
%TO.C,U12*%
X72243939Y49556750D02*
X87643939Y49556750D01*
X72243939Y43056750D02*
X72243939Y49556750D01*
X73243939Y42056750D02*
X72243939Y43056750D01*
X87643939Y49556750D02*
X87643939Y42056750D01*
X87643939Y42056750D02*
X73243939Y42056750D01*
%TO.C,C6*%
X78323173Y57379831D02*
X81523173Y57379831D01*
X78323173Y55779831D02*
X78323173Y57379831D01*
X81523173Y57379831D02*
X81523173Y55779831D01*
X81523173Y55779831D02*
X78323173Y55779831D01*
%TO.C,C5*%
X110310873Y57399484D02*
X113510873Y57399484D01*
X110310873Y55799484D02*
X110310873Y57399484D01*
X113510873Y57399484D02*
X113510873Y55799484D01*
X113510873Y55799484D02*
X110310873Y55799484D01*
%TO.C,U16*%
X8235939Y49585503D02*
X23635939Y49585503D01*
X8235939Y43085503D02*
X8235939Y49585503D01*
X9235939Y42085503D02*
X8235939Y43085503D01*
X23635939Y49585503D02*
X23635939Y42085503D01*
X23635939Y42085503D02*
X9235939Y42085503D01*
%TO.C,R6*%
X78343939Y54220441D02*
X81543939Y54220441D01*
X78343939Y52620441D02*
X78343939Y54220441D01*
X81543939Y54220441D02*
X81543939Y52620441D01*
X81543939Y52620441D02*
X78343939Y52620441D01*
%TO.C,R2*%
X78325353Y22186831D02*
X81525353Y22186831D01*
X78325353Y20586831D02*
X78325353Y22186831D01*
X81525353Y22186831D02*
X81525353Y20586831D01*
X81525353Y20586831D02*
X78325353Y20586831D01*
%TO.C,R8*%
X14335939Y54249194D02*
X17535939Y54249194D01*
X14335939Y52649194D02*
X14335939Y54249194D01*
X17535939Y54249194D02*
X17535939Y52649194D01*
X17535939Y52649194D02*
X14335939Y52649194D01*
%TO.C,C8*%
X14315173Y57408584D02*
X17515173Y57408584D01*
X14315173Y55808584D02*
X14315173Y57408584D01*
X17515173Y57408584D02*
X17515173Y55808584D01*
X17515173Y55808584D02*
X14315173Y55808584D01*
%TO.C,R7*%
X46339939Y54229769D02*
X49539939Y54229769D01*
X46339939Y52629769D02*
X46339939Y54229769D01*
X49539939Y54229769D02*
X49539939Y52629769D01*
X49539939Y52629769D02*
X46339939Y52629769D01*
%TO.C,U6*%
X40218639Y17560203D02*
X55618639Y17560203D01*
X40218639Y11060203D02*
X40218639Y17560203D01*
X41218639Y10060203D02*
X40218639Y11060203D01*
X55618639Y17560203D02*
X55618639Y10060203D01*
X55618639Y10060203D02*
X41218639Y10060203D01*
%TO.C,C1*%
X110312400Y25336400D02*
X113512400Y25336400D01*
X110312400Y23736400D02*
X110312400Y25336400D01*
X113512400Y25336400D02*
X113512400Y23736400D01*
X113512400Y23736400D02*
X110312400Y23736400D01*
%TO.C,U4*%
X72225353Y17523140D02*
X87625353Y17523140D01*
X72225353Y11023140D02*
X72225353Y17523140D01*
X73225353Y10023140D02*
X72225353Y11023140D01*
X87625353Y17523140D02*
X87625353Y10023140D01*
X87625353Y10023140D02*
X73225353Y10023140D01*
%TO.C,C7*%
X46319173Y57389159D02*
X49519173Y57389159D01*
X46319173Y55789159D02*
X46319173Y57389159D01*
X49519173Y57389159D02*
X49519173Y55789159D01*
X49519173Y55789159D02*
X46319173Y55789159D01*
%TO.C,U8*%
X8228989Y17556103D02*
X23628989Y17556103D01*
X8228989Y11056103D02*
X8228989Y17556103D01*
X9228989Y10056103D02*
X8228989Y11056103D01*
X23628989Y17556103D02*
X23628989Y10056103D01*
X23628989Y10056103D02*
X9228989Y10056103D01*
%TO.C,C2*%
X78304587Y25346221D02*
X81504587Y25346221D01*
X78304587Y23746221D02*
X78304587Y25346221D01*
X81504587Y25346221D02*
X81504587Y23746221D01*
X81504587Y23746221D02*
X78304587Y23746221D01*
%TO.C,C4*%
X14308223Y25379184D02*
X17508223Y25379184D01*
X14308223Y23779184D02*
X14308223Y25379184D01*
X17508223Y25379184D02*
X17508223Y23779184D01*
X17508223Y23779184D02*
X14308223Y23779184D01*
%TO.C,R4*%
X14328989Y22219794D02*
X17528989Y22219794D01*
X14328989Y20619794D02*
X14328989Y22219794D01*
X17528989Y22219794D02*
X17528989Y20619794D01*
X17528989Y20619794D02*
X14328989Y20619794D01*
%TD*%
M02*
