%TF.GenerationSoftware,KiCad,Pcbnew,8.0.6*%
%TF.CreationDate,2024-11-17T13:24:28+02:00*%
%TF.ProjectId,1088as,31303838-6173-42e6-9b69-6361645f7063,rev?*%
%TF.SameCoordinates,PX4b9ebbdPY7add530*%
%TF.FileFunction,Legend,Bot*%
%TF.FilePolarity,Positive*%
%FSLAX46Y46*%
G04 Gerber Fmt 4.6, Leading zero omitted, Abs format (unit mm)*
G04 Created by KiCad (PCBNEW 8.0.6) date 2024-11-17 13:24:28*
%MOMM*%
%LPD*%
G01*
G04 APERTURE LIST*
%ADD10C,0.200000*%
%ADD11C,0.150000*%
G04 APERTURE END LIST*
D10*
X2690378Y55169867D02*
X1166568Y55169867D01*
X1547520Y54788915D02*
X1166568Y55169867D01*
X1166568Y55169867D02*
X1547520Y55550820D01*
X12143031Y31243162D02*
X12143031Y32576496D01*
X12143031Y32195543D02*
X12047793Y32386020D01*
X12047793Y32386020D02*
X11952555Y32481258D01*
X11952555Y32481258D02*
X11762079Y32576496D01*
X11762079Y32576496D02*
X11571602Y32576496D01*
X10143031Y31338400D02*
X10333507Y31243162D01*
X10333507Y31243162D02*
X10714460Y31243162D01*
X10714460Y31243162D02*
X10904936Y31338400D01*
X10904936Y31338400D02*
X11000174Y31528877D01*
X11000174Y31528877D02*
X11000174Y32290781D01*
X11000174Y32290781D02*
X10904936Y32481258D01*
X10904936Y32481258D02*
X10714460Y32576496D01*
X10714460Y32576496D02*
X10333507Y32576496D01*
X10333507Y32576496D02*
X10143031Y32481258D01*
X10143031Y32481258D02*
X10047793Y32290781D01*
X10047793Y32290781D02*
X10047793Y32100305D01*
X10047793Y32100305D02*
X11000174Y31909829D01*
X9381126Y32576496D02*
X8904936Y31243162D01*
X8904936Y31243162D02*
X8428745Y32576496D01*
X5762078Y33243162D02*
X5571601Y33243162D01*
X5571601Y33243162D02*
X5381125Y33147924D01*
X5381125Y33147924D02*
X5285887Y33052686D01*
X5285887Y33052686D02*
X5190649Y32862210D01*
X5190649Y32862210D02*
X5095411Y32481258D01*
X5095411Y32481258D02*
X5095411Y32005067D01*
X5095411Y32005067D02*
X5190649Y31624115D01*
X5190649Y31624115D02*
X5285887Y31433639D01*
X5285887Y31433639D02*
X5381125Y31338400D01*
X5381125Y31338400D02*
X5571601Y31243162D01*
X5571601Y31243162D02*
X5762078Y31243162D01*
X5762078Y31243162D02*
X5952554Y31338400D01*
X5952554Y31338400D02*
X6047792Y31433639D01*
X6047792Y31433639D02*
X6143030Y31624115D01*
X6143030Y31624115D02*
X6238268Y32005067D01*
X6238268Y32005067D02*
X6238268Y32481258D01*
X6238268Y32481258D02*
X6143030Y32862210D01*
X6143030Y32862210D02*
X6047792Y33052686D01*
X6047792Y33052686D02*
X5952554Y33147924D01*
X5952554Y33147924D02*
X5762078Y33243162D01*
X4238268Y31433639D02*
X4143030Y31338400D01*
X4143030Y31338400D02*
X4238268Y31243162D01*
X4238268Y31243162D02*
X4333506Y31338400D01*
X4333506Y31338400D02*
X4238268Y31433639D01*
X4238268Y31433639D02*
X4238268Y31243162D01*
X2238268Y31243162D02*
X3381125Y31243162D01*
X2809697Y31243162D02*
X2809697Y33243162D01*
X2809697Y33243162D02*
X3000173Y32957448D01*
X3000173Y32957448D02*
X3190649Y32766972D01*
X3190649Y32766972D02*
X3381125Y32671734D01*
X82654850Y31243162D02*
X82654850Y33243162D01*
X81797707Y31243162D02*
X81797707Y32290781D01*
X81797707Y32290781D02*
X81892945Y32481258D01*
X81892945Y32481258D02*
X82083421Y32576496D01*
X82083421Y32576496D02*
X82369136Y32576496D01*
X82369136Y32576496D02*
X82559612Y32481258D01*
X82559612Y32481258D02*
X82654850Y32386020D01*
X81131040Y32576496D02*
X80369136Y32576496D01*
X80845326Y33243162D02*
X80845326Y31528877D01*
X80845326Y31528877D02*
X80750088Y31338400D01*
X80750088Y31338400D02*
X80559612Y31243162D01*
X80559612Y31243162D02*
X80369136Y31243162D01*
X79988183Y32576496D02*
X79226279Y32576496D01*
X79702469Y33243162D02*
X79702469Y31528877D01*
X79702469Y31528877D02*
X79607231Y31338400D01*
X79607231Y31338400D02*
X79416755Y31243162D01*
X79416755Y31243162D02*
X79226279Y31243162D01*
X78559612Y32576496D02*
X78559612Y30576496D01*
X78559612Y32481258D02*
X78369136Y32576496D01*
X78369136Y32576496D02*
X77988183Y32576496D01*
X77988183Y32576496D02*
X77797707Y32481258D01*
X77797707Y32481258D02*
X77702469Y32386020D01*
X77702469Y32386020D02*
X77607231Y32195543D01*
X77607231Y32195543D02*
X77607231Y31624115D01*
X77607231Y31624115D02*
X77702469Y31433639D01*
X77702469Y31433639D02*
X77797707Y31338400D01*
X77797707Y31338400D02*
X77988183Y31243162D01*
X77988183Y31243162D02*
X78369136Y31243162D01*
X78369136Y31243162D02*
X78559612Y31338400D01*
X76845326Y31338400D02*
X76654850Y31243162D01*
X76654850Y31243162D02*
X76273898Y31243162D01*
X76273898Y31243162D02*
X76083421Y31338400D01*
X76083421Y31338400D02*
X75988183Y31528877D01*
X75988183Y31528877D02*
X75988183Y31624115D01*
X75988183Y31624115D02*
X76083421Y31814591D01*
X76083421Y31814591D02*
X76273898Y31909829D01*
X76273898Y31909829D02*
X76559612Y31909829D01*
X76559612Y31909829D02*
X76750088Y32005067D01*
X76750088Y32005067D02*
X76845326Y32195543D01*
X76845326Y32195543D02*
X76845326Y32290781D01*
X76845326Y32290781D02*
X76750088Y32481258D01*
X76750088Y32481258D02*
X76559612Y32576496D01*
X76559612Y32576496D02*
X76273898Y32576496D01*
X76273898Y32576496D02*
X76083421Y32481258D01*
X75131040Y31433639D02*
X75035802Y31338400D01*
X75035802Y31338400D02*
X75131040Y31243162D01*
X75131040Y31243162D02*
X75226278Y31338400D01*
X75226278Y31338400D02*
X75131040Y31433639D01*
X75131040Y31433639D02*
X75131040Y31243162D01*
X75131040Y32481258D02*
X75035802Y32386020D01*
X75035802Y32386020D02*
X75131040Y32290781D01*
X75131040Y32290781D02*
X75226278Y32386020D01*
X75226278Y32386020D02*
X75131040Y32481258D01*
X75131040Y32481258D02*
X75131040Y32290781D01*
X72750088Y33338400D02*
X74464373Y30766972D01*
X70654850Y33338400D02*
X72369135Y30766972D01*
X69131040Y32576496D02*
X69131040Y30957448D01*
X69131040Y30957448D02*
X69226278Y30766972D01*
X69226278Y30766972D02*
X69321516Y30671734D01*
X69321516Y30671734D02*
X69511993Y30576496D01*
X69511993Y30576496D02*
X69797707Y30576496D01*
X69797707Y30576496D02*
X69988183Y30671734D01*
X69131040Y31338400D02*
X69321516Y31243162D01*
X69321516Y31243162D02*
X69702469Y31243162D01*
X69702469Y31243162D02*
X69892945Y31338400D01*
X69892945Y31338400D02*
X69988183Y31433639D01*
X69988183Y31433639D02*
X70083421Y31624115D01*
X70083421Y31624115D02*
X70083421Y32195543D01*
X70083421Y32195543D02*
X69988183Y32386020D01*
X69988183Y32386020D02*
X69892945Y32481258D01*
X69892945Y32481258D02*
X69702469Y32576496D01*
X69702469Y32576496D02*
X69321516Y32576496D01*
X69321516Y32576496D02*
X69131040Y32481258D01*
X68178659Y31243162D02*
X68178659Y32576496D01*
X68178659Y33243162D02*
X68273897Y33147924D01*
X68273897Y33147924D02*
X68178659Y33052686D01*
X68178659Y33052686D02*
X68083421Y33147924D01*
X68083421Y33147924D02*
X68178659Y33243162D01*
X68178659Y33243162D02*
X68178659Y33052686D01*
X67511992Y32576496D02*
X66750088Y32576496D01*
X67226278Y33243162D02*
X67226278Y31528877D01*
X67226278Y31528877D02*
X67131040Y31338400D01*
X67131040Y31338400D02*
X66940564Y31243162D01*
X66940564Y31243162D02*
X66750088Y31243162D01*
X66083421Y31243162D02*
X66083421Y33243162D01*
X65226278Y31243162D02*
X65226278Y32290781D01*
X65226278Y32290781D02*
X65321516Y32481258D01*
X65321516Y32481258D02*
X65511992Y32576496D01*
X65511992Y32576496D02*
X65797707Y32576496D01*
X65797707Y32576496D02*
X65988183Y32481258D01*
X65988183Y32481258D02*
X66083421Y32386020D01*
X63416754Y32576496D02*
X63416754Y31243162D01*
X64273897Y32576496D02*
X64273897Y31528877D01*
X64273897Y31528877D02*
X64178659Y31338400D01*
X64178659Y31338400D02*
X63988183Y31243162D01*
X63988183Y31243162D02*
X63702468Y31243162D01*
X63702468Y31243162D02*
X63511992Y31338400D01*
X63511992Y31338400D02*
X63416754Y31433639D01*
X62464373Y31243162D02*
X62464373Y33243162D01*
X62464373Y32481258D02*
X62273897Y32576496D01*
X62273897Y32576496D02*
X61892944Y32576496D01*
X61892944Y32576496D02*
X61702468Y32481258D01*
X61702468Y32481258D02*
X61607230Y32386020D01*
X61607230Y32386020D02*
X61511992Y32195543D01*
X61511992Y32195543D02*
X61511992Y31624115D01*
X61511992Y31624115D02*
X61607230Y31433639D01*
X61607230Y31433639D02*
X61702468Y31338400D01*
X61702468Y31338400D02*
X61892944Y31243162D01*
X61892944Y31243162D02*
X62273897Y31243162D01*
X62273897Y31243162D02*
X62464373Y31338400D01*
X60654849Y31433639D02*
X60559611Y31338400D01*
X60559611Y31338400D02*
X60654849Y31243162D01*
X60654849Y31243162D02*
X60750087Y31338400D01*
X60750087Y31338400D02*
X60654849Y31433639D01*
X60654849Y31433639D02*
X60654849Y31243162D01*
X58845325Y31338400D02*
X59035801Y31243162D01*
X59035801Y31243162D02*
X59416754Y31243162D01*
X59416754Y31243162D02*
X59607230Y31338400D01*
X59607230Y31338400D02*
X59702468Y31433639D01*
X59702468Y31433639D02*
X59797706Y31624115D01*
X59797706Y31624115D02*
X59797706Y32195543D01*
X59797706Y32195543D02*
X59702468Y32386020D01*
X59702468Y32386020D02*
X59607230Y32481258D01*
X59607230Y32481258D02*
X59416754Y32576496D01*
X59416754Y32576496D02*
X59035801Y32576496D01*
X59035801Y32576496D02*
X58845325Y32481258D01*
X57702468Y31243162D02*
X57892944Y31338400D01*
X57892944Y31338400D02*
X57988182Y31433639D01*
X57988182Y31433639D02*
X58083420Y31624115D01*
X58083420Y31624115D02*
X58083420Y32195543D01*
X58083420Y32195543D02*
X57988182Y32386020D01*
X57988182Y32386020D02*
X57892944Y32481258D01*
X57892944Y32481258D02*
X57702468Y32576496D01*
X57702468Y32576496D02*
X57416753Y32576496D01*
X57416753Y32576496D02*
X57226277Y32481258D01*
X57226277Y32481258D02*
X57131039Y32386020D01*
X57131039Y32386020D02*
X57035801Y32195543D01*
X57035801Y32195543D02*
X57035801Y31624115D01*
X57035801Y31624115D02*
X57131039Y31433639D01*
X57131039Y31433639D02*
X57226277Y31338400D01*
X57226277Y31338400D02*
X57416753Y31243162D01*
X57416753Y31243162D02*
X57702468Y31243162D01*
X56178658Y31243162D02*
X56178658Y32576496D01*
X56178658Y32386020D02*
X56083420Y32481258D01*
X56083420Y32481258D02*
X55892944Y32576496D01*
X55892944Y32576496D02*
X55607229Y32576496D01*
X55607229Y32576496D02*
X55416753Y32481258D01*
X55416753Y32481258D02*
X55321515Y32290781D01*
X55321515Y32290781D02*
X55321515Y31243162D01*
X55321515Y32290781D02*
X55226277Y32481258D01*
X55226277Y32481258D02*
X55035801Y32576496D01*
X55035801Y32576496D02*
X54750087Y32576496D01*
X54750087Y32576496D02*
X54559610Y32481258D01*
X54559610Y32481258D02*
X54464372Y32290781D01*
X54464372Y32290781D02*
X54464372Y31243162D01*
X52083420Y33338400D02*
X53797705Y30766972D01*
X50559610Y31243162D02*
X50559610Y32290781D01*
X50559610Y32290781D02*
X50654848Y32481258D01*
X50654848Y32481258D02*
X50845324Y32576496D01*
X50845324Y32576496D02*
X51226277Y32576496D01*
X51226277Y32576496D02*
X51416753Y32481258D01*
X50559610Y31338400D02*
X50750086Y31243162D01*
X50750086Y31243162D02*
X51226277Y31243162D01*
X51226277Y31243162D02*
X51416753Y31338400D01*
X51416753Y31338400D02*
X51511991Y31528877D01*
X51511991Y31528877D02*
X51511991Y31719353D01*
X51511991Y31719353D02*
X51416753Y31909829D01*
X51416753Y31909829D02*
X51226277Y32005067D01*
X51226277Y32005067D02*
X50750086Y32005067D01*
X50750086Y32005067D02*
X50559610Y32100305D01*
X49702467Y31338400D02*
X49511991Y31243162D01*
X49511991Y31243162D02*
X49131039Y31243162D01*
X49131039Y31243162D02*
X48940562Y31338400D01*
X48940562Y31338400D02*
X48845324Y31528877D01*
X48845324Y31528877D02*
X48845324Y31624115D01*
X48845324Y31624115D02*
X48940562Y31814591D01*
X48940562Y31814591D02*
X49131039Y31909829D01*
X49131039Y31909829D02*
X49416753Y31909829D01*
X49416753Y31909829D02*
X49607229Y32005067D01*
X49607229Y32005067D02*
X49702467Y32195543D01*
X49702467Y32195543D02*
X49702467Y32290781D01*
X49702467Y32290781D02*
X49607229Y32481258D01*
X49607229Y32481258D02*
X49416753Y32576496D01*
X49416753Y32576496D02*
X49131039Y32576496D01*
X49131039Y32576496D02*
X48940562Y32481258D01*
X47988181Y31243162D02*
X47988181Y33243162D01*
X47131038Y31243162D02*
X47131038Y32290781D01*
X47131038Y32290781D02*
X47226276Y32481258D01*
X47226276Y32481258D02*
X47416752Y32576496D01*
X47416752Y32576496D02*
X47702467Y32576496D01*
X47702467Y32576496D02*
X47892943Y32481258D01*
X47892943Y32481258D02*
X47988181Y32386020D01*
X45416752Y31338400D02*
X45607228Y31243162D01*
X45607228Y31243162D02*
X45988181Y31243162D01*
X45988181Y31243162D02*
X46178657Y31338400D01*
X46178657Y31338400D02*
X46273895Y31528877D01*
X46273895Y31528877D02*
X46273895Y32290781D01*
X46273895Y32290781D02*
X46178657Y32481258D01*
X46178657Y32481258D02*
X45988181Y32576496D01*
X45988181Y32576496D02*
X45607228Y32576496D01*
X45607228Y32576496D02*
X45416752Y32481258D01*
X45416752Y32481258D02*
X45321514Y32290781D01*
X45321514Y32290781D02*
X45321514Y32100305D01*
X45321514Y32100305D02*
X46273895Y31909829D01*
X44464371Y32576496D02*
X44464371Y30576496D01*
X44464371Y32481258D02*
X44273895Y32576496D01*
X44273895Y32576496D02*
X43892942Y32576496D01*
X43892942Y32576496D02*
X43702466Y32481258D01*
X43702466Y32481258D02*
X43607228Y32386020D01*
X43607228Y32386020D02*
X43511990Y32195543D01*
X43511990Y32195543D02*
X43511990Y31624115D01*
X43511990Y31624115D02*
X43607228Y31433639D01*
X43607228Y31433639D02*
X43702466Y31338400D01*
X43702466Y31338400D02*
X43892942Y31243162D01*
X43892942Y31243162D02*
X44273895Y31243162D01*
X44273895Y31243162D02*
X44464371Y31338400D01*
X41226276Y33338400D02*
X42940561Y30766972D01*
X40273895Y32386020D02*
X40464371Y32481258D01*
X40464371Y32481258D02*
X40559609Y32576496D01*
X40559609Y32576496D02*
X40654847Y32766972D01*
X40654847Y32766972D02*
X40654847Y32862210D01*
X40654847Y32862210D02*
X40559609Y33052686D01*
X40559609Y33052686D02*
X40464371Y33147924D01*
X40464371Y33147924D02*
X40273895Y33243162D01*
X40273895Y33243162D02*
X39892942Y33243162D01*
X39892942Y33243162D02*
X39702466Y33147924D01*
X39702466Y33147924D02*
X39607228Y33052686D01*
X39607228Y33052686D02*
X39511990Y32862210D01*
X39511990Y32862210D02*
X39511990Y32766972D01*
X39511990Y32766972D02*
X39607228Y32576496D01*
X39607228Y32576496D02*
X39702466Y32481258D01*
X39702466Y32481258D02*
X39892942Y32386020D01*
X39892942Y32386020D02*
X40273895Y32386020D01*
X40273895Y32386020D02*
X40464371Y32290781D01*
X40464371Y32290781D02*
X40559609Y32195543D01*
X40559609Y32195543D02*
X40654847Y32005067D01*
X40654847Y32005067D02*
X40654847Y31624115D01*
X40654847Y31624115D02*
X40559609Y31433639D01*
X40559609Y31433639D02*
X40464371Y31338400D01*
X40464371Y31338400D02*
X40273895Y31243162D01*
X40273895Y31243162D02*
X39892942Y31243162D01*
X39892942Y31243162D02*
X39702466Y31338400D01*
X39702466Y31338400D02*
X39607228Y31433639D01*
X39607228Y31433639D02*
X39511990Y31624115D01*
X39511990Y31624115D02*
X39511990Y32005067D01*
X39511990Y32005067D02*
X39607228Y32195543D01*
X39607228Y32195543D02*
X39702466Y32290781D01*
X39702466Y32290781D02*
X39892942Y32386020D01*
X38845323Y31243162D02*
X37797704Y32576496D01*
X38845323Y32576496D02*
X37797704Y31243162D01*
X35988180Y31243162D02*
X37131037Y31243162D01*
X36559609Y31243162D02*
X36559609Y33243162D01*
X36559609Y33243162D02*
X36750085Y32957448D01*
X36750085Y32957448D02*
X36940561Y32766972D01*
X36940561Y32766972D02*
X37131037Y32671734D01*
X34750085Y33243162D02*
X34559608Y33243162D01*
X34559608Y33243162D02*
X34369132Y33147924D01*
X34369132Y33147924D02*
X34273894Y33052686D01*
X34273894Y33052686D02*
X34178656Y32862210D01*
X34178656Y32862210D02*
X34083418Y32481258D01*
X34083418Y32481258D02*
X34083418Y32005067D01*
X34083418Y32005067D02*
X34178656Y31624115D01*
X34178656Y31624115D02*
X34273894Y31433639D01*
X34273894Y31433639D02*
X34369132Y31338400D01*
X34369132Y31338400D02*
X34559608Y31243162D01*
X34559608Y31243162D02*
X34750085Y31243162D01*
X34750085Y31243162D02*
X34940561Y31338400D01*
X34940561Y31338400D02*
X35035799Y31433639D01*
X35035799Y31433639D02*
X35131037Y31624115D01*
X35131037Y31624115D02*
X35226275Y32005067D01*
X35226275Y32005067D02*
X35226275Y32481258D01*
X35226275Y32481258D02*
X35131037Y32862210D01*
X35131037Y32862210D02*
X35035799Y33052686D01*
X35035799Y33052686D02*
X34940561Y33147924D01*
X34940561Y33147924D02*
X34750085Y33243162D01*
X32940561Y32386020D02*
X33131037Y32481258D01*
X33131037Y32481258D02*
X33226275Y32576496D01*
X33226275Y32576496D02*
X33321513Y32766972D01*
X33321513Y32766972D02*
X33321513Y32862210D01*
X33321513Y32862210D02*
X33226275Y33052686D01*
X33226275Y33052686D02*
X33131037Y33147924D01*
X33131037Y33147924D02*
X32940561Y33243162D01*
X32940561Y33243162D02*
X32559608Y33243162D01*
X32559608Y33243162D02*
X32369132Y33147924D01*
X32369132Y33147924D02*
X32273894Y33052686D01*
X32273894Y33052686D02*
X32178656Y32862210D01*
X32178656Y32862210D02*
X32178656Y32766972D01*
X32178656Y32766972D02*
X32273894Y32576496D01*
X32273894Y32576496D02*
X32369132Y32481258D01*
X32369132Y32481258D02*
X32559608Y32386020D01*
X32559608Y32386020D02*
X32940561Y32386020D01*
X32940561Y32386020D02*
X33131037Y32290781D01*
X33131037Y32290781D02*
X33226275Y32195543D01*
X33226275Y32195543D02*
X33321513Y32005067D01*
X33321513Y32005067D02*
X33321513Y31624115D01*
X33321513Y31624115D02*
X33226275Y31433639D01*
X33226275Y31433639D02*
X33131037Y31338400D01*
X33131037Y31338400D02*
X32940561Y31243162D01*
X32940561Y31243162D02*
X32559608Y31243162D01*
X32559608Y31243162D02*
X32369132Y31338400D01*
X32369132Y31338400D02*
X32273894Y31433639D01*
X32273894Y31433639D02*
X32178656Y31624115D01*
X32178656Y31624115D02*
X32178656Y32005067D01*
X32178656Y32005067D02*
X32273894Y32195543D01*
X32273894Y32195543D02*
X32369132Y32290781D01*
X32369132Y32290781D02*
X32559608Y32386020D01*
X31035799Y32386020D02*
X31226275Y32481258D01*
X31226275Y32481258D02*
X31321513Y32576496D01*
X31321513Y32576496D02*
X31416751Y32766972D01*
X31416751Y32766972D02*
X31416751Y32862210D01*
X31416751Y32862210D02*
X31321513Y33052686D01*
X31321513Y33052686D02*
X31226275Y33147924D01*
X31226275Y33147924D02*
X31035799Y33243162D01*
X31035799Y33243162D02*
X30654846Y33243162D01*
X30654846Y33243162D02*
X30464370Y33147924D01*
X30464370Y33147924D02*
X30369132Y33052686D01*
X30369132Y33052686D02*
X30273894Y32862210D01*
X30273894Y32862210D02*
X30273894Y32766972D01*
X30273894Y32766972D02*
X30369132Y32576496D01*
X30369132Y32576496D02*
X30464370Y32481258D01*
X30464370Y32481258D02*
X30654846Y32386020D01*
X30654846Y32386020D02*
X31035799Y32386020D01*
X31035799Y32386020D02*
X31226275Y32290781D01*
X31226275Y32290781D02*
X31321513Y32195543D01*
X31321513Y32195543D02*
X31416751Y32005067D01*
X31416751Y32005067D02*
X31416751Y31624115D01*
X31416751Y31624115D02*
X31321513Y31433639D01*
X31321513Y31433639D02*
X31226275Y31338400D01*
X31226275Y31338400D02*
X31035799Y31243162D01*
X31035799Y31243162D02*
X30654846Y31243162D01*
X30654846Y31243162D02*
X30464370Y31338400D01*
X30464370Y31338400D02*
X30369132Y31433639D01*
X30369132Y31433639D02*
X30273894Y31624115D01*
X30273894Y31624115D02*
X30273894Y32005067D01*
X30273894Y32005067D02*
X30369132Y32195543D01*
X30369132Y32195543D02*
X30464370Y32290781D01*
X30464370Y32290781D02*
X30654846Y32386020D01*
X28559608Y31243162D02*
X28559608Y32290781D01*
X28559608Y32290781D02*
X28654846Y32481258D01*
X28654846Y32481258D02*
X28845322Y32576496D01*
X28845322Y32576496D02*
X29226275Y32576496D01*
X29226275Y32576496D02*
X29416751Y32481258D01*
X28559608Y31338400D02*
X28750084Y31243162D01*
X28750084Y31243162D02*
X29226275Y31243162D01*
X29226275Y31243162D02*
X29416751Y31338400D01*
X29416751Y31338400D02*
X29511989Y31528877D01*
X29511989Y31528877D02*
X29511989Y31719353D01*
X29511989Y31719353D02*
X29416751Y31909829D01*
X29416751Y31909829D02*
X29226275Y32005067D01*
X29226275Y32005067D02*
X28750084Y32005067D01*
X28750084Y32005067D02*
X28559608Y32100305D01*
X27702465Y31338400D02*
X27511989Y31243162D01*
X27511989Y31243162D02*
X27131037Y31243162D01*
X27131037Y31243162D02*
X26940560Y31338400D01*
X26940560Y31338400D02*
X26845322Y31528877D01*
X26845322Y31528877D02*
X26845322Y31624115D01*
X26845322Y31624115D02*
X26940560Y31814591D01*
X26940560Y31814591D02*
X27131037Y31909829D01*
X27131037Y31909829D02*
X27416751Y31909829D01*
X27416751Y31909829D02*
X27607227Y32005067D01*
X27607227Y32005067D02*
X27702465Y32195543D01*
X27702465Y32195543D02*
X27702465Y32290781D01*
X27702465Y32290781D02*
X27607227Y32481258D01*
X27607227Y32481258D02*
X27416751Y32576496D01*
X27416751Y32576496D02*
X27131037Y32576496D01*
X27131037Y32576496D02*
X26940560Y32481258D01*
X126794778Y23216667D02*
X125270968Y23216667D01*
X125651920Y22835715D02*
X125270968Y23216667D01*
X125270968Y23216667D02*
X125651920Y23597620D01*
X125071431Y31243162D02*
X125071431Y33243162D01*
X125071431Y33243162D02*
X124595241Y33243162D01*
X124595241Y33243162D02*
X124309526Y33147924D01*
X124309526Y33147924D02*
X124119050Y32957448D01*
X124119050Y32957448D02*
X124023812Y32766972D01*
X124023812Y32766972D02*
X123928574Y32386020D01*
X123928574Y32386020D02*
X123928574Y32100305D01*
X123928574Y32100305D02*
X124023812Y31719353D01*
X124023812Y31719353D02*
X124119050Y31528877D01*
X124119050Y31528877D02*
X124309526Y31338400D01*
X124309526Y31338400D02*
X124595241Y31243162D01*
X124595241Y31243162D02*
X125071431Y31243162D01*
X122309526Y31338400D02*
X122500002Y31243162D01*
X122500002Y31243162D02*
X122880955Y31243162D01*
X122880955Y31243162D02*
X123071431Y31338400D01*
X123071431Y31338400D02*
X123166669Y31528877D01*
X123166669Y31528877D02*
X123166669Y32290781D01*
X123166669Y32290781D02*
X123071431Y32481258D01*
X123071431Y32481258D02*
X122880955Y32576496D01*
X122880955Y32576496D02*
X122500002Y32576496D01*
X122500002Y32576496D02*
X122309526Y32481258D01*
X122309526Y32481258D02*
X122214288Y32290781D01*
X122214288Y32290781D02*
X122214288Y32100305D01*
X122214288Y32100305D02*
X123166669Y31909829D01*
X121452383Y31338400D02*
X121261907Y31243162D01*
X121261907Y31243162D02*
X120880955Y31243162D01*
X120880955Y31243162D02*
X120690478Y31338400D01*
X120690478Y31338400D02*
X120595240Y31528877D01*
X120595240Y31528877D02*
X120595240Y31624115D01*
X120595240Y31624115D02*
X120690478Y31814591D01*
X120690478Y31814591D02*
X120880955Y31909829D01*
X120880955Y31909829D02*
X121166669Y31909829D01*
X121166669Y31909829D02*
X121357145Y32005067D01*
X121357145Y32005067D02*
X121452383Y32195543D01*
X121452383Y32195543D02*
X121452383Y32290781D01*
X121452383Y32290781D02*
X121357145Y32481258D01*
X121357145Y32481258D02*
X121166669Y32576496D01*
X121166669Y32576496D02*
X120880955Y32576496D01*
X120880955Y32576496D02*
X120690478Y32481258D01*
X119738097Y31243162D02*
X119738097Y32576496D01*
X119738097Y33243162D02*
X119833335Y33147924D01*
X119833335Y33147924D02*
X119738097Y33052686D01*
X119738097Y33052686D02*
X119642859Y33147924D01*
X119642859Y33147924D02*
X119738097Y33243162D01*
X119738097Y33243162D02*
X119738097Y33052686D01*
X117928573Y32576496D02*
X117928573Y30957448D01*
X117928573Y30957448D02*
X118023811Y30766972D01*
X118023811Y30766972D02*
X118119049Y30671734D01*
X118119049Y30671734D02*
X118309526Y30576496D01*
X118309526Y30576496D02*
X118595240Y30576496D01*
X118595240Y30576496D02*
X118785716Y30671734D01*
X117928573Y31338400D02*
X118119049Y31243162D01*
X118119049Y31243162D02*
X118500002Y31243162D01*
X118500002Y31243162D02*
X118690478Y31338400D01*
X118690478Y31338400D02*
X118785716Y31433639D01*
X118785716Y31433639D02*
X118880954Y31624115D01*
X118880954Y31624115D02*
X118880954Y32195543D01*
X118880954Y32195543D02*
X118785716Y32386020D01*
X118785716Y32386020D02*
X118690478Y32481258D01*
X118690478Y32481258D02*
X118500002Y32576496D01*
X118500002Y32576496D02*
X118119049Y32576496D01*
X118119049Y32576496D02*
X117928573Y32481258D01*
X116976192Y32576496D02*
X116976192Y31243162D01*
X116976192Y32386020D02*
X116880954Y32481258D01*
X116880954Y32481258D02*
X116690478Y32576496D01*
X116690478Y32576496D02*
X116404763Y32576496D01*
X116404763Y32576496D02*
X116214287Y32481258D01*
X116214287Y32481258D02*
X116119049Y32290781D01*
X116119049Y32290781D02*
X116119049Y31243162D01*
X114404763Y31338400D02*
X114595239Y31243162D01*
X114595239Y31243162D02*
X114976192Y31243162D01*
X114976192Y31243162D02*
X115166668Y31338400D01*
X115166668Y31338400D02*
X115261906Y31528877D01*
X115261906Y31528877D02*
X115261906Y32290781D01*
X115261906Y32290781D02*
X115166668Y32481258D01*
X115166668Y32481258D02*
X114976192Y32576496D01*
X114976192Y32576496D02*
X114595239Y32576496D01*
X114595239Y32576496D02*
X114404763Y32481258D01*
X114404763Y32481258D02*
X114309525Y32290781D01*
X114309525Y32290781D02*
X114309525Y32100305D01*
X114309525Y32100305D02*
X115261906Y31909829D01*
X112595239Y31243162D02*
X112595239Y33243162D01*
X112595239Y31338400D02*
X112785715Y31243162D01*
X112785715Y31243162D02*
X113166668Y31243162D01*
X113166668Y31243162D02*
X113357144Y31338400D01*
X113357144Y31338400D02*
X113452382Y31433639D01*
X113452382Y31433639D02*
X113547620Y31624115D01*
X113547620Y31624115D02*
X113547620Y32195543D01*
X113547620Y32195543D02*
X113452382Y32386020D01*
X113452382Y32386020D02*
X113357144Y32481258D01*
X113357144Y32481258D02*
X113166668Y32576496D01*
X113166668Y32576496D02*
X112785715Y32576496D01*
X112785715Y32576496D02*
X112595239Y32481258D01*
X110119048Y31243162D02*
X110119048Y33243162D01*
X110119048Y32481258D02*
X109928572Y32576496D01*
X109928572Y32576496D02*
X109547619Y32576496D01*
X109547619Y32576496D02*
X109357143Y32481258D01*
X109357143Y32481258D02*
X109261905Y32386020D01*
X109261905Y32386020D02*
X109166667Y32195543D01*
X109166667Y32195543D02*
X109166667Y31624115D01*
X109166667Y31624115D02*
X109261905Y31433639D01*
X109261905Y31433639D02*
X109357143Y31338400D01*
X109357143Y31338400D02*
X109547619Y31243162D01*
X109547619Y31243162D02*
X109928572Y31243162D01*
X109928572Y31243162D02*
X110119048Y31338400D01*
X108500000Y32576496D02*
X108023810Y31243162D01*
X107547619Y32576496D02*
X108023810Y31243162D01*
X108023810Y31243162D02*
X108214286Y30766972D01*
X108214286Y30766972D02*
X108309524Y30671734D01*
X108309524Y30671734D02*
X108500000Y30576496D01*
X104404761Y31243162D02*
X104404761Y32290781D01*
X104404761Y32290781D02*
X104499999Y32481258D01*
X104499999Y32481258D02*
X104690475Y32576496D01*
X104690475Y32576496D02*
X105071428Y32576496D01*
X105071428Y32576496D02*
X105261904Y32481258D01*
X104404761Y31338400D02*
X104595237Y31243162D01*
X104595237Y31243162D02*
X105071428Y31243162D01*
X105071428Y31243162D02*
X105261904Y31338400D01*
X105261904Y31338400D02*
X105357142Y31528877D01*
X105357142Y31528877D02*
X105357142Y31719353D01*
X105357142Y31719353D02*
X105261904Y31909829D01*
X105261904Y31909829D02*
X105071428Y32005067D01*
X105071428Y32005067D02*
X104595237Y32005067D01*
X104595237Y32005067D02*
X104404761Y32100305D01*
X103547618Y31338400D02*
X103357142Y31243162D01*
X103357142Y31243162D02*
X102976190Y31243162D01*
X102976190Y31243162D02*
X102785713Y31338400D01*
X102785713Y31338400D02*
X102690475Y31528877D01*
X102690475Y31528877D02*
X102690475Y31624115D01*
X102690475Y31624115D02*
X102785713Y31814591D01*
X102785713Y31814591D02*
X102976190Y31909829D01*
X102976190Y31909829D02*
X103261904Y31909829D01*
X103261904Y31909829D02*
X103452380Y32005067D01*
X103452380Y32005067D02*
X103547618Y32195543D01*
X103547618Y32195543D02*
X103547618Y32290781D01*
X103547618Y32290781D02*
X103452380Y32481258D01*
X103452380Y32481258D02*
X103261904Y32576496D01*
X103261904Y32576496D02*
X102976190Y32576496D01*
X102976190Y32576496D02*
X102785713Y32481258D01*
X101833332Y31243162D02*
X101833332Y33243162D01*
X100976189Y31243162D02*
X100976189Y32290781D01*
X100976189Y32290781D02*
X101071427Y32481258D01*
X101071427Y32481258D02*
X101261903Y32576496D01*
X101261903Y32576496D02*
X101547618Y32576496D01*
X101547618Y32576496D02*
X101738094Y32481258D01*
X101738094Y32481258D02*
X101833332Y32386020D01*
X99261903Y31338400D02*
X99452379Y31243162D01*
X99452379Y31243162D02*
X99833332Y31243162D01*
X99833332Y31243162D02*
X100023808Y31338400D01*
X100023808Y31338400D02*
X100119046Y31528877D01*
X100119046Y31528877D02*
X100119046Y32290781D01*
X100119046Y32290781D02*
X100023808Y32481258D01*
X100023808Y32481258D02*
X99833332Y32576496D01*
X99833332Y32576496D02*
X99452379Y32576496D01*
X99452379Y32576496D02*
X99261903Y32481258D01*
X99261903Y32481258D02*
X99166665Y32290781D01*
X99166665Y32290781D02*
X99166665Y32100305D01*
X99166665Y32100305D02*
X100119046Y31909829D01*
X98309522Y32576496D02*
X98309522Y30576496D01*
X98309522Y32481258D02*
X98119046Y32576496D01*
X98119046Y32576496D02*
X97738093Y32576496D01*
X97738093Y32576496D02*
X97547617Y32481258D01*
X97547617Y32481258D02*
X97452379Y32386020D01*
X97452379Y32386020D02*
X97357141Y32195543D01*
X97357141Y32195543D02*
X97357141Y31624115D01*
X97357141Y31624115D02*
X97452379Y31433639D01*
X97452379Y31433639D02*
X97547617Y31338400D01*
X97547617Y31338400D02*
X97738093Y31243162D01*
X97738093Y31243162D02*
X98119046Y31243162D01*
X98119046Y31243162D02*
X98309522Y31338400D01*
X126896378Y8941867D02*
X125372568Y8941867D01*
X125753520Y8560915D02*
X125372568Y8941867D01*
X125372568Y8941867D02*
X125753520Y9322820D01*
X2690378Y40895067D02*
X1166568Y40895067D01*
X1547520Y40514115D02*
X1166568Y40895067D01*
X1166568Y40895067D02*
X1547520Y41276020D01*
D11*
X36919600Y13896768D02*
X36686267Y13196768D01*
X36686267Y13196768D02*
X36452933Y13896768D01*
X35919600Y13230101D02*
X35986267Y13196768D01*
X35986267Y13196768D02*
X36119600Y13196768D01*
X36119600Y13196768D02*
X36186267Y13230101D01*
X36186267Y13230101D02*
X36219600Y13263435D01*
X36219600Y13263435D02*
X36252933Y13330101D01*
X36252933Y13330101D02*
X36252933Y13530101D01*
X36252933Y13530101D02*
X36219600Y13596768D01*
X36219600Y13596768D02*
X36186267Y13630101D01*
X36186267Y13630101D02*
X36119600Y13663435D01*
X36119600Y13663435D02*
X35986267Y13663435D01*
X35986267Y13663435D02*
X35919600Y13630101D01*
X35319600Y13230101D02*
X35386267Y13196768D01*
X35386267Y13196768D02*
X35519600Y13196768D01*
X35519600Y13196768D02*
X35586267Y13230101D01*
X35586267Y13230101D02*
X35619600Y13263435D01*
X35619600Y13263435D02*
X35652933Y13330101D01*
X35652933Y13330101D02*
X35652933Y13530101D01*
X35652933Y13530101D02*
X35619600Y13596768D01*
X35619600Y13596768D02*
X35586267Y13630101D01*
X35586267Y13630101D02*
X35519600Y13663435D01*
X35519600Y13663435D02*
X35386267Y13663435D01*
X35386267Y13663435D02*
X35319600Y13630101D01*
X92143199Y20934233D02*
X92176532Y20900899D01*
X92176532Y20900899D02*
X92276532Y20867566D01*
X92276532Y20867566D02*
X92343199Y20867566D01*
X92343199Y20867566D02*
X92443199Y20900899D01*
X92443199Y20900899D02*
X92509866Y20967566D01*
X92509866Y20967566D02*
X92543199Y21034233D01*
X92543199Y21034233D02*
X92576532Y21167566D01*
X92576532Y21167566D02*
X92576532Y21267566D01*
X92576532Y21267566D02*
X92543199Y21400899D01*
X92543199Y21400899D02*
X92509866Y21467566D01*
X92509866Y21467566D02*
X92443199Y21534233D01*
X92443199Y21534233D02*
X92343199Y21567566D01*
X92343199Y21567566D02*
X92276532Y21567566D01*
X92276532Y21567566D02*
X92176532Y21534233D01*
X92176532Y21534233D02*
X92143199Y21500899D01*
X91509866Y20867566D02*
X91843199Y20867566D01*
X91843199Y20867566D02*
X91843199Y21567566D01*
X91276532Y20867566D02*
X91276532Y21567566D01*
X90876532Y20867566D02*
X91176532Y21267566D01*
X90876532Y21567566D02*
X91276532Y21167566D01*
X4952932Y43378234D02*
X5019599Y43411567D01*
X5019599Y43411567D02*
X5119599Y43411567D01*
X5119599Y43411567D02*
X5219599Y43378234D01*
X5219599Y43378234D02*
X5286266Y43311567D01*
X5286266Y43311567D02*
X5319599Y43244900D01*
X5319599Y43244900D02*
X5352932Y43111567D01*
X5352932Y43111567D02*
X5352932Y43011567D01*
X5352932Y43011567D02*
X5319599Y42878234D01*
X5319599Y42878234D02*
X5286266Y42811567D01*
X5286266Y42811567D02*
X5219599Y42744900D01*
X5219599Y42744900D02*
X5119599Y42711567D01*
X5119599Y42711567D02*
X5052932Y42711567D01*
X5052932Y42711567D02*
X4952932Y42744900D01*
X4952932Y42744900D02*
X4919599Y42778234D01*
X4919599Y42778234D02*
X4919599Y43011567D01*
X4919599Y43011567D02*
X5052932Y43011567D01*
X4619599Y42711567D02*
X4619599Y43411567D01*
X4619599Y43411567D02*
X4219599Y42711567D01*
X4219599Y42711567D02*
X4219599Y43411567D01*
X3886266Y42711567D02*
X3886266Y43411567D01*
X3886266Y43411567D02*
X3719599Y43411567D01*
X3719599Y43411567D02*
X3619599Y43378234D01*
X3619599Y43378234D02*
X3552933Y43311567D01*
X3552933Y43311567D02*
X3519599Y43244900D01*
X3519599Y43244900D02*
X3486266Y43111567D01*
X3486266Y43111567D02*
X3486266Y43011567D01*
X3486266Y43011567D02*
X3519599Y42878234D01*
X3519599Y42878234D02*
X3552933Y42811567D01*
X3552933Y42811567D02*
X3619599Y42744900D01*
X3619599Y42744900D02*
X3719599Y42711567D01*
X3719599Y42711567D02*
X3886266Y42711567D01*
X69825198Y50331567D02*
X69825198Y51031567D01*
X69825198Y51031567D02*
X69658531Y51031567D01*
X69658531Y51031567D02*
X69558531Y50998234D01*
X69558531Y50998234D02*
X69491865Y50931567D01*
X69491865Y50931567D02*
X69458531Y50864900D01*
X69458531Y50864900D02*
X69425198Y50731567D01*
X69425198Y50731567D02*
X69425198Y50631567D01*
X69425198Y50631567D02*
X69458531Y50498234D01*
X69458531Y50498234D02*
X69491865Y50431567D01*
X69491865Y50431567D02*
X69558531Y50364900D01*
X69558531Y50364900D02*
X69658531Y50331567D01*
X69658531Y50331567D02*
X69825198Y50331567D01*
X68991865Y51031567D02*
X68858531Y51031567D01*
X68858531Y51031567D02*
X68791865Y50998234D01*
X68791865Y50998234D02*
X68725198Y50931567D01*
X68725198Y50931567D02*
X68691865Y50798234D01*
X68691865Y50798234D02*
X68691865Y50564900D01*
X68691865Y50564900D02*
X68725198Y50431567D01*
X68725198Y50431567D02*
X68791865Y50364900D01*
X68791865Y50364900D02*
X68858531Y50331567D01*
X68858531Y50331567D02*
X68991865Y50331567D01*
X68991865Y50331567D02*
X69058531Y50364900D01*
X69058531Y50364900D02*
X69125198Y50431567D01*
X69125198Y50431567D02*
X69158531Y50564900D01*
X69158531Y50564900D02*
X69158531Y50798234D01*
X69158531Y50798234D02*
X69125198Y50931567D01*
X69125198Y50931567D02*
X69058531Y50998234D01*
X69058531Y50998234D02*
X68991865Y51031567D01*
X68391865Y51031567D02*
X68391865Y50464900D01*
X68391865Y50464900D02*
X68358532Y50398234D01*
X68358532Y50398234D02*
X68325198Y50364900D01*
X68325198Y50364900D02*
X68258532Y50331567D01*
X68258532Y50331567D02*
X68125198Y50331567D01*
X68125198Y50331567D02*
X68058532Y50364900D01*
X68058532Y50364900D02*
X68025198Y50398234D01*
X68025198Y50398234D02*
X67991865Y50464900D01*
X67991865Y50464900D02*
X67991865Y51031567D01*
X67758532Y51031567D02*
X67358532Y51031567D01*
X67558532Y50331567D02*
X67558532Y51031567D01*
X68942665Y11323435D02*
X69009332Y11356768D01*
X69009332Y11356768D02*
X69109332Y11356768D01*
X69109332Y11356768D02*
X69209332Y11323435D01*
X69209332Y11323435D02*
X69275999Y11256768D01*
X69275999Y11256768D02*
X69309332Y11190101D01*
X69309332Y11190101D02*
X69342665Y11056768D01*
X69342665Y11056768D02*
X69342665Y10956768D01*
X69342665Y10956768D02*
X69309332Y10823435D01*
X69309332Y10823435D02*
X69275999Y10756768D01*
X69275999Y10756768D02*
X69209332Y10690101D01*
X69209332Y10690101D02*
X69109332Y10656768D01*
X69109332Y10656768D02*
X69042665Y10656768D01*
X69042665Y10656768D02*
X68942665Y10690101D01*
X68942665Y10690101D02*
X68909332Y10723435D01*
X68909332Y10723435D02*
X68909332Y10956768D01*
X68909332Y10956768D02*
X69042665Y10956768D01*
X68609332Y10656768D02*
X68609332Y11356768D01*
X68609332Y11356768D02*
X68209332Y10656768D01*
X68209332Y10656768D02*
X68209332Y11356768D01*
X67875999Y10656768D02*
X67875999Y11356768D01*
X67875999Y11356768D02*
X67709332Y11356768D01*
X67709332Y11356768D02*
X67609332Y11323435D01*
X67609332Y11323435D02*
X67542666Y11256768D01*
X67542666Y11256768D02*
X67509332Y11190101D01*
X67509332Y11190101D02*
X67475999Y11056768D01*
X67475999Y11056768D02*
X67475999Y10956768D01*
X67475999Y10956768D02*
X67509332Y10823435D01*
X67509332Y10823435D02*
X67542666Y10756768D01*
X67542666Y10756768D02*
X67609332Y10690101D01*
X67609332Y10690101D02*
X67709332Y10656768D01*
X67709332Y10656768D02*
X67875999Y10656768D01*
X69875998Y18276767D02*
X69875998Y18976767D01*
X69875998Y18976767D02*
X69709331Y18976767D01*
X69709331Y18976767D02*
X69609331Y18943434D01*
X69609331Y18943434D02*
X69542665Y18876767D01*
X69542665Y18876767D02*
X69509331Y18810100D01*
X69509331Y18810100D02*
X69475998Y18676767D01*
X69475998Y18676767D02*
X69475998Y18576767D01*
X69475998Y18576767D02*
X69509331Y18443434D01*
X69509331Y18443434D02*
X69542665Y18376767D01*
X69542665Y18376767D02*
X69609331Y18310100D01*
X69609331Y18310100D02*
X69709331Y18276767D01*
X69709331Y18276767D02*
X69875998Y18276767D01*
X69042665Y18976767D02*
X68909331Y18976767D01*
X68909331Y18976767D02*
X68842665Y18943434D01*
X68842665Y18943434D02*
X68775998Y18876767D01*
X68775998Y18876767D02*
X68742665Y18743434D01*
X68742665Y18743434D02*
X68742665Y18510100D01*
X68742665Y18510100D02*
X68775998Y18376767D01*
X68775998Y18376767D02*
X68842665Y18310100D01*
X68842665Y18310100D02*
X68909331Y18276767D01*
X68909331Y18276767D02*
X69042665Y18276767D01*
X69042665Y18276767D02*
X69109331Y18310100D01*
X69109331Y18310100D02*
X69175998Y18376767D01*
X69175998Y18376767D02*
X69209331Y18510100D01*
X69209331Y18510100D02*
X69209331Y18743434D01*
X69209331Y18743434D02*
X69175998Y18876767D01*
X69175998Y18876767D02*
X69109331Y18943434D01*
X69109331Y18943434D02*
X69042665Y18976767D01*
X68442665Y18976767D02*
X68442665Y18410100D01*
X68442665Y18410100D02*
X68409332Y18343434D01*
X68409332Y18343434D02*
X68375998Y18310100D01*
X68375998Y18310100D02*
X68309332Y18276767D01*
X68309332Y18276767D02*
X68175998Y18276767D01*
X68175998Y18276767D02*
X68109332Y18310100D01*
X68109332Y18310100D02*
X68075998Y18343434D01*
X68075998Y18343434D02*
X68042665Y18410100D01*
X68042665Y18410100D02*
X68042665Y18976767D01*
X67809332Y18976767D02*
X67409332Y18976767D01*
X67609332Y18276767D02*
X67609332Y18976767D01*
X124850400Y13896767D02*
X124617067Y13196767D01*
X124617067Y13196767D02*
X124383733Y13896767D01*
X123850400Y13230100D02*
X123917067Y13196767D01*
X123917067Y13196767D02*
X124050400Y13196767D01*
X124050400Y13196767D02*
X124117067Y13230100D01*
X124117067Y13230100D02*
X124150400Y13263434D01*
X124150400Y13263434D02*
X124183733Y13330100D01*
X124183733Y13330100D02*
X124183733Y13530100D01*
X124183733Y13530100D02*
X124150400Y13596767D01*
X124150400Y13596767D02*
X124117067Y13630100D01*
X124117067Y13630100D02*
X124050400Y13663434D01*
X124050400Y13663434D02*
X123917067Y13663434D01*
X123917067Y13663434D02*
X123850400Y13630100D01*
X123250400Y13230100D02*
X123317067Y13196767D01*
X123317067Y13196767D02*
X123450400Y13196767D01*
X123450400Y13196767D02*
X123517067Y13230100D01*
X123517067Y13230100D02*
X123550400Y13263434D01*
X123550400Y13263434D02*
X123583733Y13330100D01*
X123583733Y13330100D02*
X123583733Y13530100D01*
X123583733Y13530100D02*
X123550400Y13596767D01*
X123550400Y13596767D02*
X123517067Y13630100D01*
X123517067Y13630100D02*
X123450400Y13663434D01*
X123450400Y13663434D02*
X123317067Y13663434D01*
X123317067Y13663434D02*
X123250400Y13630100D01*
X92610667Y45940199D02*
X92377334Y45240199D01*
X92377334Y45240199D02*
X92144000Y45940199D01*
X91610667Y45273532D02*
X91677334Y45240199D01*
X91677334Y45240199D02*
X91810667Y45240199D01*
X91810667Y45240199D02*
X91877334Y45273532D01*
X91877334Y45273532D02*
X91910667Y45306866D01*
X91910667Y45306866D02*
X91944000Y45373532D01*
X91944000Y45373532D02*
X91944000Y45573532D01*
X91944000Y45573532D02*
X91910667Y45640199D01*
X91910667Y45640199D02*
X91877334Y45673532D01*
X91877334Y45673532D02*
X91810667Y45706866D01*
X91810667Y45706866D02*
X91677334Y45706866D01*
X91677334Y45706866D02*
X91610667Y45673532D01*
X91010667Y45273532D02*
X91077334Y45240199D01*
X91077334Y45240199D02*
X91210667Y45240199D01*
X91210667Y45240199D02*
X91277334Y45273532D01*
X91277334Y45273532D02*
X91310667Y45306866D01*
X91310667Y45306866D02*
X91344000Y45373532D01*
X91344000Y45373532D02*
X91344000Y45573532D01*
X91344000Y45573532D02*
X91310667Y45640199D01*
X91310667Y45640199D02*
X91277334Y45673532D01*
X91277334Y45673532D02*
X91210667Y45706866D01*
X91210667Y45706866D02*
X91077334Y45706866D01*
X91077334Y45706866D02*
X91010667Y45673532D01*
X68742666Y20883434D02*
X68775999Y20850100D01*
X68775999Y20850100D02*
X68875999Y20816767D01*
X68875999Y20816767D02*
X68942666Y20816767D01*
X68942666Y20816767D02*
X69042666Y20850100D01*
X69042666Y20850100D02*
X69109333Y20916767D01*
X69109333Y20916767D02*
X69142666Y20983434D01*
X69142666Y20983434D02*
X69175999Y21116767D01*
X69175999Y21116767D02*
X69175999Y21216767D01*
X69175999Y21216767D02*
X69142666Y21350100D01*
X69142666Y21350100D02*
X69109333Y21416767D01*
X69109333Y21416767D02*
X69042666Y21483434D01*
X69042666Y21483434D02*
X68942666Y21516767D01*
X68942666Y21516767D02*
X68875999Y21516767D01*
X68875999Y21516767D02*
X68775999Y21483434D01*
X68775999Y21483434D02*
X68742666Y21450100D01*
X68109333Y20816767D02*
X68442666Y20816767D01*
X68442666Y20816767D02*
X68442666Y21516767D01*
X67875999Y20816767D02*
X67875999Y21516767D01*
X67475999Y20816767D02*
X67775999Y21216767D01*
X67475999Y21516767D02*
X67875999Y21116767D01*
X60393999Y43429035D02*
X60460666Y43462368D01*
X60460666Y43462368D02*
X60560666Y43462368D01*
X60560666Y43462368D02*
X60660666Y43429035D01*
X60660666Y43429035D02*
X60727333Y43362368D01*
X60727333Y43362368D02*
X60760666Y43295701D01*
X60760666Y43295701D02*
X60793999Y43162368D01*
X60793999Y43162368D02*
X60793999Y43062368D01*
X60793999Y43062368D02*
X60760666Y42929035D01*
X60760666Y42929035D02*
X60727333Y42862368D01*
X60727333Y42862368D02*
X60660666Y42795701D01*
X60660666Y42795701D02*
X60560666Y42762368D01*
X60560666Y42762368D02*
X60493999Y42762368D01*
X60493999Y42762368D02*
X60393999Y42795701D01*
X60393999Y42795701D02*
X60360666Y42829035D01*
X60360666Y42829035D02*
X60360666Y43062368D01*
X60360666Y43062368D02*
X60493999Y43062368D01*
X60060666Y42762368D02*
X60060666Y43462368D01*
X60060666Y43462368D02*
X59660666Y42762368D01*
X59660666Y42762368D02*
X59660666Y43462368D01*
X59327333Y42762368D02*
X59327333Y43462368D01*
X59327333Y43462368D02*
X59160666Y43462368D01*
X59160666Y43462368D02*
X59060666Y43429035D01*
X59060666Y43429035D02*
X58994000Y43362368D01*
X58994000Y43362368D02*
X58960666Y43295701D01*
X58960666Y43295701D02*
X58927333Y43162368D01*
X58927333Y43162368D02*
X58927333Y43062368D01*
X58927333Y43062368D02*
X58960666Y42929035D01*
X58960666Y42929035D02*
X58994000Y42862368D01*
X58994000Y42862368D02*
X59060666Y42795701D01*
X59060666Y42795701D02*
X59160666Y42762368D01*
X59160666Y42762368D02*
X59327333Y42762368D01*
X4752933Y52938233D02*
X4786266Y52904899D01*
X4786266Y52904899D02*
X4886266Y52871566D01*
X4886266Y52871566D02*
X4952933Y52871566D01*
X4952933Y52871566D02*
X5052933Y52904899D01*
X5052933Y52904899D02*
X5119600Y52971566D01*
X5119600Y52971566D02*
X5152933Y53038233D01*
X5152933Y53038233D02*
X5186266Y53171566D01*
X5186266Y53171566D02*
X5186266Y53271566D01*
X5186266Y53271566D02*
X5152933Y53404899D01*
X5152933Y53404899D02*
X5119600Y53471566D01*
X5119600Y53471566D02*
X5052933Y53538233D01*
X5052933Y53538233D02*
X4952933Y53571566D01*
X4952933Y53571566D02*
X4886266Y53571566D01*
X4886266Y53571566D02*
X4786266Y53538233D01*
X4786266Y53538233D02*
X4752933Y53504899D01*
X4119600Y52871566D02*
X4452933Y52871566D01*
X4452933Y52871566D02*
X4452933Y53571566D01*
X3886266Y52871566D02*
X3886266Y53571566D01*
X3486266Y52871566D02*
X3786266Y53271566D01*
X3486266Y53571566D02*
X3886266Y53171566D01*
X101047467Y45951567D02*
X100814134Y45251567D01*
X100814134Y45251567D02*
X100580800Y45951567D01*
X100047467Y45284900D02*
X100114134Y45251567D01*
X100114134Y45251567D02*
X100247467Y45251567D01*
X100247467Y45251567D02*
X100314134Y45284900D01*
X100314134Y45284900D02*
X100347467Y45318234D01*
X100347467Y45318234D02*
X100380800Y45384900D01*
X100380800Y45384900D02*
X100380800Y45584900D01*
X100380800Y45584900D02*
X100347467Y45651567D01*
X100347467Y45651567D02*
X100314134Y45684900D01*
X100314134Y45684900D02*
X100247467Y45718234D01*
X100247467Y45718234D02*
X100114134Y45718234D01*
X100114134Y45718234D02*
X100047467Y45684900D01*
X99447467Y45284900D02*
X99514134Y45251567D01*
X99514134Y45251567D02*
X99647467Y45251567D01*
X99647467Y45251567D02*
X99714134Y45284900D01*
X99714134Y45284900D02*
X99747467Y45318234D01*
X99747467Y45318234D02*
X99780800Y45384900D01*
X99780800Y45384900D02*
X99780800Y45584900D01*
X99780800Y45584900D02*
X99747467Y45651567D01*
X99747467Y45651567D02*
X99714134Y45684900D01*
X99714134Y45684900D02*
X99647467Y45718234D01*
X99647467Y45718234D02*
X99514134Y45718234D01*
X99514134Y45718234D02*
X99447467Y45684900D01*
X5886265Y50331566D02*
X5886265Y51031566D01*
X5886265Y51031566D02*
X5719598Y51031566D01*
X5719598Y51031566D02*
X5619598Y50998233D01*
X5619598Y50998233D02*
X5552932Y50931566D01*
X5552932Y50931566D02*
X5519598Y50864899D01*
X5519598Y50864899D02*
X5486265Y50731566D01*
X5486265Y50731566D02*
X5486265Y50631566D01*
X5486265Y50631566D02*
X5519598Y50498233D01*
X5519598Y50498233D02*
X5552932Y50431566D01*
X5552932Y50431566D02*
X5619598Y50364899D01*
X5619598Y50364899D02*
X5719598Y50331566D01*
X5719598Y50331566D02*
X5886265Y50331566D01*
X5052932Y51031566D02*
X4919598Y51031566D01*
X4919598Y51031566D02*
X4852932Y50998233D01*
X4852932Y50998233D02*
X4786265Y50931566D01*
X4786265Y50931566D02*
X4752932Y50798233D01*
X4752932Y50798233D02*
X4752932Y50564899D01*
X4752932Y50564899D02*
X4786265Y50431566D01*
X4786265Y50431566D02*
X4852932Y50364899D01*
X4852932Y50364899D02*
X4919598Y50331566D01*
X4919598Y50331566D02*
X5052932Y50331566D01*
X5052932Y50331566D02*
X5119598Y50364899D01*
X5119598Y50364899D02*
X5186265Y50431566D01*
X5186265Y50431566D02*
X5219598Y50564899D01*
X5219598Y50564899D02*
X5219598Y50798233D01*
X5219598Y50798233D02*
X5186265Y50931566D01*
X5186265Y50931566D02*
X5119598Y50998233D01*
X5119598Y50998233D02*
X5052932Y51031566D01*
X4452932Y51031566D02*
X4452932Y50464899D01*
X4452932Y50464899D02*
X4419599Y50398233D01*
X4419599Y50398233D02*
X4386265Y50364899D01*
X4386265Y50364899D02*
X4319599Y50331566D01*
X4319599Y50331566D02*
X4186265Y50331566D01*
X4186265Y50331566D02*
X4119599Y50364899D01*
X4119599Y50364899D02*
X4086265Y50398233D01*
X4086265Y50398233D02*
X4052932Y50464899D01*
X4052932Y50464899D02*
X4052932Y51031566D01*
X3819599Y51031566D02*
X3419599Y51031566D01*
X3619599Y50331566D02*
X3619599Y51031566D01*
X60360666Y47909034D02*
X60393999Y47875700D01*
X60393999Y47875700D02*
X60493999Y47842367D01*
X60493999Y47842367D02*
X60560666Y47842367D01*
X60560666Y47842367D02*
X60660666Y47875700D01*
X60660666Y47875700D02*
X60727333Y47942367D01*
X60727333Y47942367D02*
X60760666Y48009034D01*
X60760666Y48009034D02*
X60793999Y48142367D01*
X60793999Y48142367D02*
X60793999Y48242367D01*
X60793999Y48242367D02*
X60760666Y48375700D01*
X60760666Y48375700D02*
X60727333Y48442367D01*
X60727333Y48442367D02*
X60660666Y48509034D01*
X60660666Y48509034D02*
X60560666Y48542367D01*
X60560666Y48542367D02*
X60493999Y48542367D01*
X60493999Y48542367D02*
X60393999Y48509034D01*
X60393999Y48509034D02*
X60360666Y48475700D01*
X60093999Y47875700D02*
X59993999Y47842367D01*
X59993999Y47842367D02*
X59827333Y47842367D01*
X59827333Y47842367D02*
X59760666Y47875700D01*
X59760666Y47875700D02*
X59727333Y47909034D01*
X59727333Y47909034D02*
X59693999Y47975700D01*
X59693999Y47975700D02*
X59693999Y48042367D01*
X59693999Y48042367D02*
X59727333Y48109034D01*
X59727333Y48109034D02*
X59760666Y48142367D01*
X59760666Y48142367D02*
X59827333Y48175700D01*
X59827333Y48175700D02*
X59960666Y48209034D01*
X59960666Y48209034D02*
X60027333Y48242367D01*
X60027333Y48242367D02*
X60060666Y48275700D01*
X60060666Y48275700D02*
X60093999Y48342367D01*
X60093999Y48342367D02*
X60093999Y48409034D01*
X60093999Y48409034D02*
X60060666Y48475700D01*
X60060666Y48475700D02*
X60027333Y48509034D01*
X60027333Y48509034D02*
X59960666Y48542367D01*
X59960666Y48542367D02*
X59793999Y48542367D01*
X59793999Y48542367D02*
X59693999Y48509034D01*
X68142666Y15803434D02*
X68175999Y15770100D01*
X68175999Y15770100D02*
X68275999Y15736767D01*
X68275999Y15736767D02*
X68342666Y15736767D01*
X68342666Y15736767D02*
X68442666Y15770100D01*
X68442666Y15770100D02*
X68509333Y15836767D01*
X68509333Y15836767D02*
X68542666Y15903434D01*
X68542666Y15903434D02*
X68575999Y16036767D01*
X68575999Y16036767D02*
X68575999Y16136767D01*
X68575999Y16136767D02*
X68542666Y16270100D01*
X68542666Y16270100D02*
X68509333Y16336767D01*
X68509333Y16336767D02*
X68442666Y16403434D01*
X68442666Y16403434D02*
X68342666Y16436767D01*
X68342666Y16436767D02*
X68275999Y16436767D01*
X68275999Y16436767D02*
X68175999Y16403434D01*
X68175999Y16403434D02*
X68142666Y16370100D01*
X67875999Y15770100D02*
X67775999Y15736767D01*
X67775999Y15736767D02*
X67609333Y15736767D01*
X67609333Y15736767D02*
X67542666Y15770100D01*
X67542666Y15770100D02*
X67509333Y15803434D01*
X67509333Y15803434D02*
X67475999Y15870100D01*
X67475999Y15870100D02*
X67475999Y15936767D01*
X67475999Y15936767D02*
X67509333Y16003434D01*
X67509333Y16003434D02*
X67542666Y16036767D01*
X67542666Y16036767D02*
X67609333Y16070100D01*
X67609333Y16070100D02*
X67742666Y16103434D01*
X67742666Y16103434D02*
X67809333Y16136767D01*
X67809333Y16136767D02*
X67842666Y16170100D01*
X67842666Y16170100D02*
X67875999Y16236767D01*
X67875999Y16236767D02*
X67875999Y16303434D01*
X67875999Y16303434D02*
X67842666Y16370100D01*
X67842666Y16370100D02*
X67809333Y16403434D01*
X67809333Y16403434D02*
X67742666Y16436767D01*
X67742666Y16436767D02*
X67575999Y16436767D01*
X67575999Y16436767D02*
X67475999Y16403434D01*
X35986266Y15803434D02*
X36019599Y15770100D01*
X36019599Y15770100D02*
X36119599Y15736767D01*
X36119599Y15736767D02*
X36186266Y15736767D01*
X36186266Y15736767D02*
X36286266Y15770100D01*
X36286266Y15770100D02*
X36352933Y15836767D01*
X36352933Y15836767D02*
X36386266Y15903434D01*
X36386266Y15903434D02*
X36419599Y16036767D01*
X36419599Y16036767D02*
X36419599Y16136767D01*
X36419599Y16136767D02*
X36386266Y16270100D01*
X36386266Y16270100D02*
X36352933Y16336767D01*
X36352933Y16336767D02*
X36286266Y16403434D01*
X36286266Y16403434D02*
X36186266Y16436767D01*
X36186266Y16436767D02*
X36119599Y16436767D01*
X36119599Y16436767D02*
X36019599Y16403434D01*
X36019599Y16403434D02*
X35986266Y16370100D01*
X35719599Y15770100D02*
X35619599Y15736767D01*
X35619599Y15736767D02*
X35452933Y15736767D01*
X35452933Y15736767D02*
X35386266Y15770100D01*
X35386266Y15770100D02*
X35352933Y15803434D01*
X35352933Y15803434D02*
X35319599Y15870100D01*
X35319599Y15870100D02*
X35319599Y15936767D01*
X35319599Y15936767D02*
X35352933Y16003434D01*
X35352933Y16003434D02*
X35386266Y16036767D01*
X35386266Y16036767D02*
X35452933Y16070100D01*
X35452933Y16070100D02*
X35586266Y16103434D01*
X35586266Y16103434D02*
X35652933Y16136767D01*
X35652933Y16136767D02*
X35686266Y16170100D01*
X35686266Y16170100D02*
X35719599Y16236767D01*
X35719599Y16236767D02*
X35719599Y16303434D01*
X35719599Y16303434D02*
X35686266Y16370100D01*
X35686266Y16370100D02*
X35652933Y16403434D01*
X35652933Y16403434D02*
X35586266Y16436767D01*
X35586266Y16436767D02*
X35419599Y16436767D01*
X35419599Y16436767D02*
X35319599Y16403434D01*
X92543200Y18327566D02*
X92543200Y19027566D01*
X92543200Y19027566D02*
X92376533Y19027566D01*
X92376533Y19027566D02*
X92276533Y18994233D01*
X92276533Y18994233D02*
X92209867Y18927566D01*
X92209867Y18927566D02*
X92176533Y18860899D01*
X92176533Y18860899D02*
X92143200Y18727566D01*
X92143200Y18727566D02*
X92143200Y18627566D01*
X92143200Y18627566D02*
X92176533Y18494233D01*
X92176533Y18494233D02*
X92209867Y18427566D01*
X92209867Y18427566D02*
X92276533Y18360899D01*
X92276533Y18360899D02*
X92376533Y18327566D01*
X92376533Y18327566D02*
X92543200Y18327566D01*
X91843200Y18327566D02*
X91843200Y19027566D01*
X91509867Y18327566D02*
X91509867Y19027566D01*
X91509867Y19027566D02*
X91109867Y18327566D01*
X91109867Y18327566D02*
X91109867Y19027566D01*
X124401199Y47866518D02*
X124434532Y47833184D01*
X124434532Y47833184D02*
X124534532Y47799851D01*
X124534532Y47799851D02*
X124601199Y47799851D01*
X124601199Y47799851D02*
X124701199Y47833184D01*
X124701199Y47833184D02*
X124767866Y47899851D01*
X124767866Y47899851D02*
X124801199Y47966518D01*
X124801199Y47966518D02*
X124834532Y48099851D01*
X124834532Y48099851D02*
X124834532Y48199851D01*
X124834532Y48199851D02*
X124801199Y48333184D01*
X124801199Y48333184D02*
X124767866Y48399851D01*
X124767866Y48399851D02*
X124701199Y48466518D01*
X124701199Y48466518D02*
X124601199Y48499851D01*
X124601199Y48499851D02*
X124534532Y48499851D01*
X124534532Y48499851D02*
X124434532Y48466518D01*
X124434532Y48466518D02*
X124401199Y48433184D01*
X124134532Y47833184D02*
X124034532Y47799851D01*
X124034532Y47799851D02*
X123867866Y47799851D01*
X123867866Y47799851D02*
X123801199Y47833184D01*
X123801199Y47833184D02*
X123767866Y47866518D01*
X123767866Y47866518D02*
X123734532Y47933184D01*
X123734532Y47933184D02*
X123734532Y47999851D01*
X123734532Y47999851D02*
X123767866Y48066518D01*
X123767866Y48066518D02*
X123801199Y48099851D01*
X123801199Y48099851D02*
X123867866Y48133184D01*
X123867866Y48133184D02*
X124001199Y48166518D01*
X124001199Y48166518D02*
X124067866Y48199851D01*
X124067866Y48199851D02*
X124101199Y48233184D01*
X124101199Y48233184D02*
X124134532Y48299851D01*
X124134532Y48299851D02*
X124134532Y48366518D01*
X124134532Y48366518D02*
X124101199Y48433184D01*
X124101199Y48433184D02*
X124067866Y48466518D01*
X124067866Y48466518D02*
X124001199Y48499851D01*
X124001199Y48499851D02*
X123834532Y48499851D01*
X123834532Y48499851D02*
X123734532Y48466518D01*
X36840266Y52887434D02*
X36873599Y52854100D01*
X36873599Y52854100D02*
X36973599Y52820767D01*
X36973599Y52820767D02*
X37040266Y52820767D01*
X37040266Y52820767D02*
X37140266Y52854100D01*
X37140266Y52854100D02*
X37206933Y52920767D01*
X37206933Y52920767D02*
X37240266Y52987434D01*
X37240266Y52987434D02*
X37273599Y53120767D01*
X37273599Y53120767D02*
X37273599Y53220767D01*
X37273599Y53220767D02*
X37240266Y53354100D01*
X37240266Y53354100D02*
X37206933Y53420767D01*
X37206933Y53420767D02*
X37140266Y53487434D01*
X37140266Y53487434D02*
X37040266Y53520767D01*
X37040266Y53520767D02*
X36973599Y53520767D01*
X36973599Y53520767D02*
X36873599Y53487434D01*
X36873599Y53487434D02*
X36840266Y53454100D01*
X36206933Y52820767D02*
X36540266Y52820767D01*
X36540266Y52820767D02*
X36540266Y53520767D01*
X35973599Y52820767D02*
X35973599Y53520767D01*
X35573599Y52820767D02*
X35873599Y53220767D01*
X35573599Y53520767D02*
X35973599Y53120767D01*
X37719598Y18276767D02*
X37719598Y18976767D01*
X37719598Y18976767D02*
X37552931Y18976767D01*
X37552931Y18976767D02*
X37452931Y18943434D01*
X37452931Y18943434D02*
X37386265Y18876767D01*
X37386265Y18876767D02*
X37352931Y18810100D01*
X37352931Y18810100D02*
X37319598Y18676767D01*
X37319598Y18676767D02*
X37319598Y18576767D01*
X37319598Y18576767D02*
X37352931Y18443434D01*
X37352931Y18443434D02*
X37386265Y18376767D01*
X37386265Y18376767D02*
X37452931Y18310100D01*
X37452931Y18310100D02*
X37552931Y18276767D01*
X37552931Y18276767D02*
X37719598Y18276767D01*
X36886265Y18976767D02*
X36752931Y18976767D01*
X36752931Y18976767D02*
X36686265Y18943434D01*
X36686265Y18943434D02*
X36619598Y18876767D01*
X36619598Y18876767D02*
X36586265Y18743434D01*
X36586265Y18743434D02*
X36586265Y18510100D01*
X36586265Y18510100D02*
X36619598Y18376767D01*
X36619598Y18376767D02*
X36686265Y18310100D01*
X36686265Y18310100D02*
X36752931Y18276767D01*
X36752931Y18276767D02*
X36886265Y18276767D01*
X36886265Y18276767D02*
X36952931Y18310100D01*
X36952931Y18310100D02*
X37019598Y18376767D01*
X37019598Y18376767D02*
X37052931Y18510100D01*
X37052931Y18510100D02*
X37052931Y18743434D01*
X37052931Y18743434D02*
X37019598Y18876767D01*
X37019598Y18876767D02*
X36952931Y18943434D01*
X36952931Y18943434D02*
X36886265Y18976767D01*
X36286265Y18976767D02*
X36286265Y18410100D01*
X36286265Y18410100D02*
X36252932Y18343434D01*
X36252932Y18343434D02*
X36219598Y18310100D01*
X36219598Y18310100D02*
X36152932Y18276767D01*
X36152932Y18276767D02*
X36019598Y18276767D01*
X36019598Y18276767D02*
X35952932Y18310100D01*
X35952932Y18310100D02*
X35919598Y18343434D01*
X35919598Y18343434D02*
X35886265Y18410100D01*
X35886265Y18410100D02*
X35886265Y18976767D01*
X35652932Y18976767D02*
X35252932Y18976767D01*
X35452932Y18276767D02*
X35452932Y18976767D01*
X60240799Y15803433D02*
X60274132Y15770099D01*
X60274132Y15770099D02*
X60374132Y15736766D01*
X60374132Y15736766D02*
X60440799Y15736766D01*
X60440799Y15736766D02*
X60540799Y15770099D01*
X60540799Y15770099D02*
X60607466Y15836766D01*
X60607466Y15836766D02*
X60640799Y15903433D01*
X60640799Y15903433D02*
X60674132Y16036766D01*
X60674132Y16036766D02*
X60674132Y16136766D01*
X60674132Y16136766D02*
X60640799Y16270099D01*
X60640799Y16270099D02*
X60607466Y16336766D01*
X60607466Y16336766D02*
X60540799Y16403433D01*
X60540799Y16403433D02*
X60440799Y16436766D01*
X60440799Y16436766D02*
X60374132Y16436766D01*
X60374132Y16436766D02*
X60274132Y16403433D01*
X60274132Y16403433D02*
X60240799Y16370099D01*
X59974132Y15770099D02*
X59874132Y15736766D01*
X59874132Y15736766D02*
X59707466Y15736766D01*
X59707466Y15736766D02*
X59640799Y15770099D01*
X59640799Y15770099D02*
X59607466Y15803433D01*
X59607466Y15803433D02*
X59574132Y15870099D01*
X59574132Y15870099D02*
X59574132Y15936766D01*
X59574132Y15936766D02*
X59607466Y16003433D01*
X59607466Y16003433D02*
X59640799Y16036766D01*
X59640799Y16036766D02*
X59707466Y16070099D01*
X59707466Y16070099D02*
X59840799Y16103433D01*
X59840799Y16103433D02*
X59907466Y16136766D01*
X59907466Y16136766D02*
X59940799Y16170099D01*
X59940799Y16170099D02*
X59974132Y16236766D01*
X59974132Y16236766D02*
X59974132Y16303433D01*
X59974132Y16303433D02*
X59940799Y16370099D01*
X59940799Y16370099D02*
X59907466Y16403433D01*
X59907466Y16403433D02*
X59840799Y16436766D01*
X59840799Y16436766D02*
X59674132Y16436766D01*
X59674132Y16436766D02*
X59574132Y16403433D01*
X124434532Y43386519D02*
X124501199Y43419852D01*
X124501199Y43419852D02*
X124601199Y43419852D01*
X124601199Y43419852D02*
X124701199Y43386519D01*
X124701199Y43386519D02*
X124767866Y43319852D01*
X124767866Y43319852D02*
X124801199Y43253185D01*
X124801199Y43253185D02*
X124834532Y43119852D01*
X124834532Y43119852D02*
X124834532Y43019852D01*
X124834532Y43019852D02*
X124801199Y42886519D01*
X124801199Y42886519D02*
X124767866Y42819852D01*
X124767866Y42819852D02*
X124701199Y42753185D01*
X124701199Y42753185D02*
X124601199Y42719852D01*
X124601199Y42719852D02*
X124534532Y42719852D01*
X124534532Y42719852D02*
X124434532Y42753185D01*
X124434532Y42753185D02*
X124401199Y42786519D01*
X124401199Y42786519D02*
X124401199Y43019852D01*
X124401199Y43019852D02*
X124534532Y43019852D01*
X124101199Y42719852D02*
X124101199Y43419852D01*
X124101199Y43419852D02*
X123701199Y42719852D01*
X123701199Y42719852D02*
X123701199Y43419852D01*
X123367866Y42719852D02*
X123367866Y43419852D01*
X123367866Y43419852D02*
X123201199Y43419852D01*
X123201199Y43419852D02*
X123101199Y43386519D01*
X123101199Y43386519D02*
X123034533Y43319852D01*
X123034533Y43319852D02*
X123001199Y43253185D01*
X123001199Y43253185D02*
X122967866Y43119852D01*
X122967866Y43119852D02*
X122967866Y43019852D01*
X122967866Y43019852D02*
X123001199Y42886519D01*
X123001199Y42886519D02*
X123034533Y42819852D01*
X123034533Y42819852D02*
X123101199Y42753185D01*
X123101199Y42753185D02*
X123201199Y42719852D01*
X123201199Y42719852D02*
X123367866Y42719852D01*
X60740800Y13896767D02*
X60507467Y13196767D01*
X60507467Y13196767D02*
X60274133Y13896767D01*
X59740800Y13230100D02*
X59807467Y13196767D01*
X59807467Y13196767D02*
X59940800Y13196767D01*
X59940800Y13196767D02*
X60007467Y13230100D01*
X60007467Y13230100D02*
X60040800Y13263434D01*
X60040800Y13263434D02*
X60074133Y13330100D01*
X60074133Y13330100D02*
X60074133Y13530100D01*
X60074133Y13530100D02*
X60040800Y13596767D01*
X60040800Y13596767D02*
X60007467Y13630100D01*
X60007467Y13630100D02*
X59940800Y13663434D01*
X59940800Y13663434D02*
X59807467Y13663434D01*
X59807467Y13663434D02*
X59740800Y13630100D01*
X59140800Y13230100D02*
X59207467Y13196767D01*
X59207467Y13196767D02*
X59340800Y13196767D01*
X59340800Y13196767D02*
X59407467Y13230100D01*
X59407467Y13230100D02*
X59440800Y13263434D01*
X59440800Y13263434D02*
X59474133Y13330100D01*
X59474133Y13330100D02*
X59474133Y13530100D01*
X59474133Y13530100D02*
X59440800Y13596767D01*
X59440800Y13596767D02*
X59407467Y13630100D01*
X59407467Y13630100D02*
X59340800Y13663434D01*
X59340800Y13663434D02*
X59207467Y13663434D01*
X59207467Y13663434D02*
X59140800Y13630100D01*
X100786400Y20883434D02*
X100819733Y20850100D01*
X100819733Y20850100D02*
X100919733Y20816767D01*
X100919733Y20816767D02*
X100986400Y20816767D01*
X100986400Y20816767D02*
X101086400Y20850100D01*
X101086400Y20850100D02*
X101153067Y20916767D01*
X101153067Y20916767D02*
X101186400Y20983434D01*
X101186400Y20983434D02*
X101219733Y21116767D01*
X101219733Y21116767D02*
X101219733Y21216767D01*
X101219733Y21216767D02*
X101186400Y21350100D01*
X101186400Y21350100D02*
X101153067Y21416767D01*
X101153067Y21416767D02*
X101086400Y21483434D01*
X101086400Y21483434D02*
X100986400Y21516767D01*
X100986400Y21516767D02*
X100919733Y21516767D01*
X100919733Y21516767D02*
X100819733Y21483434D01*
X100819733Y21483434D02*
X100786400Y21450100D01*
X100153067Y20816767D02*
X100486400Y20816767D01*
X100486400Y20816767D02*
X100486400Y21516767D01*
X99919733Y20816767D02*
X99919733Y21516767D01*
X99519733Y20816767D02*
X99819733Y21216767D01*
X99519733Y21516767D02*
X99919733Y21116767D01*
X37040265Y43327435D02*
X37106932Y43360768D01*
X37106932Y43360768D02*
X37206932Y43360768D01*
X37206932Y43360768D02*
X37306932Y43327435D01*
X37306932Y43327435D02*
X37373599Y43260768D01*
X37373599Y43260768D02*
X37406932Y43194101D01*
X37406932Y43194101D02*
X37440265Y43060768D01*
X37440265Y43060768D02*
X37440265Y42960768D01*
X37440265Y42960768D02*
X37406932Y42827435D01*
X37406932Y42827435D02*
X37373599Y42760768D01*
X37373599Y42760768D02*
X37306932Y42694101D01*
X37306932Y42694101D02*
X37206932Y42660768D01*
X37206932Y42660768D02*
X37140265Y42660768D01*
X37140265Y42660768D02*
X37040265Y42694101D01*
X37040265Y42694101D02*
X37006932Y42727435D01*
X37006932Y42727435D02*
X37006932Y42960768D01*
X37006932Y42960768D02*
X37140265Y42960768D01*
X36706932Y42660768D02*
X36706932Y43360768D01*
X36706932Y43360768D02*
X36306932Y42660768D01*
X36306932Y42660768D02*
X36306932Y43360768D01*
X35973599Y42660768D02*
X35973599Y43360768D01*
X35973599Y43360768D02*
X35806932Y43360768D01*
X35806932Y43360768D02*
X35706932Y43327435D01*
X35706932Y43327435D02*
X35640266Y43260768D01*
X35640266Y43260768D02*
X35606932Y43194101D01*
X35606932Y43194101D02*
X35573599Y43060768D01*
X35573599Y43060768D02*
X35573599Y42960768D01*
X35573599Y42960768D02*
X35606932Y42827435D01*
X35606932Y42827435D02*
X35640266Y42760768D01*
X35640266Y42760768D02*
X35706932Y42694101D01*
X35706932Y42694101D02*
X35806932Y42660768D01*
X35806932Y42660768D02*
X35973599Y42660768D01*
X60640800Y18276766D02*
X60640800Y18976766D01*
X60640800Y18976766D02*
X60474133Y18976766D01*
X60474133Y18976766D02*
X60374133Y18943433D01*
X60374133Y18943433D02*
X60307467Y18876766D01*
X60307467Y18876766D02*
X60274133Y18810099D01*
X60274133Y18810099D02*
X60240800Y18676766D01*
X60240800Y18676766D02*
X60240800Y18576766D01*
X60240800Y18576766D02*
X60274133Y18443433D01*
X60274133Y18443433D02*
X60307467Y18376766D01*
X60307467Y18376766D02*
X60374133Y18310099D01*
X60374133Y18310099D02*
X60474133Y18276766D01*
X60474133Y18276766D02*
X60640800Y18276766D01*
X59940800Y18276766D02*
X59940800Y18976766D01*
X59607467Y18276766D02*
X59607467Y18976766D01*
X59607467Y18976766D02*
X59207467Y18276766D01*
X59207467Y18276766D02*
X59207467Y18976766D01*
X4883067Y13896767D02*
X4649734Y13196767D01*
X4649734Y13196767D02*
X4416400Y13896767D01*
X3883067Y13230100D02*
X3949734Y13196767D01*
X3949734Y13196767D02*
X4083067Y13196767D01*
X4083067Y13196767D02*
X4149734Y13230100D01*
X4149734Y13230100D02*
X4183067Y13263434D01*
X4183067Y13263434D02*
X4216400Y13330100D01*
X4216400Y13330100D02*
X4216400Y13530100D01*
X4216400Y13530100D02*
X4183067Y13596767D01*
X4183067Y13596767D02*
X4149734Y13630100D01*
X4149734Y13630100D02*
X4083067Y13663434D01*
X4083067Y13663434D02*
X3949734Y13663434D01*
X3949734Y13663434D02*
X3883067Y13630100D01*
X3283067Y13230100D02*
X3349734Y13196767D01*
X3349734Y13196767D02*
X3483067Y13196767D01*
X3483067Y13196767D02*
X3549734Y13230100D01*
X3549734Y13230100D02*
X3583067Y13263434D01*
X3583067Y13263434D02*
X3616400Y13330100D01*
X3616400Y13330100D02*
X3616400Y13530100D01*
X3616400Y13530100D02*
X3583067Y13596767D01*
X3583067Y13596767D02*
X3549734Y13630100D01*
X3549734Y13630100D02*
X3483067Y13663434D01*
X3483067Y13663434D02*
X3349734Y13663434D01*
X3349734Y13663434D02*
X3283067Y13630100D01*
X100914132Y43378234D02*
X100980799Y43411567D01*
X100980799Y43411567D02*
X101080799Y43411567D01*
X101080799Y43411567D02*
X101180799Y43378234D01*
X101180799Y43378234D02*
X101247466Y43311567D01*
X101247466Y43311567D02*
X101280799Y43244900D01*
X101280799Y43244900D02*
X101314132Y43111567D01*
X101314132Y43111567D02*
X101314132Y43011567D01*
X101314132Y43011567D02*
X101280799Y42878234D01*
X101280799Y42878234D02*
X101247466Y42811567D01*
X101247466Y42811567D02*
X101180799Y42744900D01*
X101180799Y42744900D02*
X101080799Y42711567D01*
X101080799Y42711567D02*
X101014132Y42711567D01*
X101014132Y42711567D02*
X100914132Y42744900D01*
X100914132Y42744900D02*
X100880799Y42778234D01*
X100880799Y42778234D02*
X100880799Y43011567D01*
X100880799Y43011567D02*
X101014132Y43011567D01*
X100580799Y42711567D02*
X100580799Y43411567D01*
X100580799Y43411567D02*
X100180799Y42711567D01*
X100180799Y42711567D02*
X100180799Y43411567D01*
X99847466Y42711567D02*
X99847466Y43411567D01*
X99847466Y43411567D02*
X99680799Y43411567D01*
X99680799Y43411567D02*
X99580799Y43378234D01*
X99580799Y43378234D02*
X99514133Y43311567D01*
X99514133Y43311567D02*
X99480799Y43244900D01*
X99480799Y43244900D02*
X99447466Y43111567D01*
X99447466Y43111567D02*
X99447466Y43011567D01*
X99447466Y43011567D02*
X99480799Y42878234D01*
X99480799Y42878234D02*
X99514133Y42811567D01*
X99514133Y42811567D02*
X99580799Y42744900D01*
X99580799Y42744900D02*
X99680799Y42711567D01*
X99680799Y42711567D02*
X99847466Y42711567D01*
X3949733Y15803433D02*
X3983066Y15770099D01*
X3983066Y15770099D02*
X4083066Y15736766D01*
X4083066Y15736766D02*
X4149733Y15736766D01*
X4149733Y15736766D02*
X4249733Y15770099D01*
X4249733Y15770099D02*
X4316400Y15836766D01*
X4316400Y15836766D02*
X4349733Y15903433D01*
X4349733Y15903433D02*
X4383066Y16036766D01*
X4383066Y16036766D02*
X4383066Y16136766D01*
X4383066Y16136766D02*
X4349733Y16270099D01*
X4349733Y16270099D02*
X4316400Y16336766D01*
X4316400Y16336766D02*
X4249733Y16403433D01*
X4249733Y16403433D02*
X4149733Y16436766D01*
X4149733Y16436766D02*
X4083066Y16436766D01*
X4083066Y16436766D02*
X3983066Y16403433D01*
X3983066Y16403433D02*
X3949733Y16370099D01*
X3683066Y15770099D02*
X3583066Y15736766D01*
X3583066Y15736766D02*
X3416400Y15736766D01*
X3416400Y15736766D02*
X3349733Y15770099D01*
X3349733Y15770099D02*
X3316400Y15803433D01*
X3316400Y15803433D02*
X3283066Y15870099D01*
X3283066Y15870099D02*
X3283066Y15936766D01*
X3283066Y15936766D02*
X3316400Y16003433D01*
X3316400Y16003433D02*
X3349733Y16036766D01*
X3349733Y16036766D02*
X3416400Y16070099D01*
X3416400Y16070099D02*
X3549733Y16103433D01*
X3549733Y16103433D02*
X3616400Y16136766D01*
X3616400Y16136766D02*
X3649733Y16170099D01*
X3649733Y16170099D02*
X3683066Y16236766D01*
X3683066Y16236766D02*
X3683066Y16303433D01*
X3683066Y16303433D02*
X3649733Y16370099D01*
X3649733Y16370099D02*
X3616400Y16403433D01*
X3616400Y16403433D02*
X3549733Y16436766D01*
X3549733Y16436766D02*
X3383066Y16436766D01*
X3383066Y16436766D02*
X3283066Y16403433D01*
X100714133Y52938233D02*
X100747466Y52904899D01*
X100747466Y52904899D02*
X100847466Y52871566D01*
X100847466Y52871566D02*
X100914133Y52871566D01*
X100914133Y52871566D02*
X101014133Y52904899D01*
X101014133Y52904899D02*
X101080800Y52971566D01*
X101080800Y52971566D02*
X101114133Y53038233D01*
X101114133Y53038233D02*
X101147466Y53171566D01*
X101147466Y53171566D02*
X101147466Y53271566D01*
X101147466Y53271566D02*
X101114133Y53404899D01*
X101114133Y53404899D02*
X101080800Y53471566D01*
X101080800Y53471566D02*
X101014133Y53538233D01*
X101014133Y53538233D02*
X100914133Y53571566D01*
X100914133Y53571566D02*
X100847466Y53571566D01*
X100847466Y53571566D02*
X100747466Y53538233D01*
X100747466Y53538233D02*
X100714133Y53504899D01*
X100080800Y52871566D02*
X100414133Y52871566D01*
X100414133Y52871566D02*
X100414133Y53571566D01*
X99847466Y52871566D02*
X99847466Y53571566D01*
X99447466Y52871566D02*
X99747466Y53271566D01*
X99447466Y53571566D02*
X99847466Y53171566D01*
X28204266Y52989034D02*
X28237599Y52955700D01*
X28237599Y52955700D02*
X28337599Y52922367D01*
X28337599Y52922367D02*
X28404266Y52922367D01*
X28404266Y52922367D02*
X28504266Y52955700D01*
X28504266Y52955700D02*
X28570933Y53022367D01*
X28570933Y53022367D02*
X28604266Y53089034D01*
X28604266Y53089034D02*
X28637599Y53222367D01*
X28637599Y53222367D02*
X28637599Y53322367D01*
X28637599Y53322367D02*
X28604266Y53455700D01*
X28604266Y53455700D02*
X28570933Y53522367D01*
X28570933Y53522367D02*
X28504266Y53589034D01*
X28504266Y53589034D02*
X28404266Y53622367D01*
X28404266Y53622367D02*
X28337599Y53622367D01*
X28337599Y53622367D02*
X28237599Y53589034D01*
X28237599Y53589034D02*
X28204266Y53555700D01*
X27570933Y52922367D02*
X27904266Y52922367D01*
X27904266Y52922367D02*
X27904266Y53622367D01*
X27337599Y52922367D02*
X27337599Y53622367D01*
X26937599Y52922367D02*
X27237599Y53322367D01*
X26937599Y53622367D02*
X27337599Y53222367D01*
X28586000Y18327566D02*
X28586000Y19027566D01*
X28586000Y19027566D02*
X28419333Y19027566D01*
X28419333Y19027566D02*
X28319333Y18994233D01*
X28319333Y18994233D02*
X28252667Y18927566D01*
X28252667Y18927566D02*
X28219333Y18860899D01*
X28219333Y18860899D02*
X28186000Y18727566D01*
X28186000Y18727566D02*
X28186000Y18627566D01*
X28186000Y18627566D02*
X28219333Y18494233D01*
X28219333Y18494233D02*
X28252667Y18427566D01*
X28252667Y18427566D02*
X28319333Y18360899D01*
X28319333Y18360899D02*
X28419333Y18327566D01*
X28419333Y18327566D02*
X28586000Y18327566D01*
X27886000Y18327566D02*
X27886000Y19027566D01*
X27552667Y18327566D02*
X27552667Y19027566D01*
X27552667Y19027566D02*
X27152667Y18327566D01*
X27152667Y18327566D02*
X27152667Y19027566D01*
X36240266Y47807434D02*
X36273599Y47774100D01*
X36273599Y47774100D02*
X36373599Y47740767D01*
X36373599Y47740767D02*
X36440266Y47740767D01*
X36440266Y47740767D02*
X36540266Y47774100D01*
X36540266Y47774100D02*
X36606933Y47840767D01*
X36606933Y47840767D02*
X36640266Y47907434D01*
X36640266Y47907434D02*
X36673599Y48040767D01*
X36673599Y48040767D02*
X36673599Y48140767D01*
X36673599Y48140767D02*
X36640266Y48274100D01*
X36640266Y48274100D02*
X36606933Y48340767D01*
X36606933Y48340767D02*
X36540266Y48407434D01*
X36540266Y48407434D02*
X36440266Y48440767D01*
X36440266Y48440767D02*
X36373599Y48440767D01*
X36373599Y48440767D02*
X36273599Y48407434D01*
X36273599Y48407434D02*
X36240266Y48374100D01*
X35973599Y47774100D02*
X35873599Y47740767D01*
X35873599Y47740767D02*
X35706933Y47740767D01*
X35706933Y47740767D02*
X35640266Y47774100D01*
X35640266Y47774100D02*
X35606933Y47807434D01*
X35606933Y47807434D02*
X35573599Y47874100D01*
X35573599Y47874100D02*
X35573599Y47940767D01*
X35573599Y47940767D02*
X35606933Y48007434D01*
X35606933Y48007434D02*
X35640266Y48040767D01*
X35640266Y48040767D02*
X35706933Y48074100D01*
X35706933Y48074100D02*
X35840266Y48107434D01*
X35840266Y48107434D02*
X35906933Y48140767D01*
X35906933Y48140767D02*
X35940266Y48174100D01*
X35940266Y48174100D02*
X35973599Y48240767D01*
X35973599Y48240767D02*
X35973599Y48307434D01*
X35973599Y48307434D02*
X35940266Y48374100D01*
X35940266Y48374100D02*
X35906933Y48407434D01*
X35906933Y48407434D02*
X35840266Y48440767D01*
X35840266Y48440767D02*
X35673599Y48440767D01*
X35673599Y48440767D02*
X35573599Y48407434D01*
X101847465Y50331566D02*
X101847465Y51031566D01*
X101847465Y51031566D02*
X101680798Y51031566D01*
X101680798Y51031566D02*
X101580798Y50998233D01*
X101580798Y50998233D02*
X101514132Y50931566D01*
X101514132Y50931566D02*
X101480798Y50864899D01*
X101480798Y50864899D02*
X101447465Y50731566D01*
X101447465Y50731566D02*
X101447465Y50631566D01*
X101447465Y50631566D02*
X101480798Y50498233D01*
X101480798Y50498233D02*
X101514132Y50431566D01*
X101514132Y50431566D02*
X101580798Y50364899D01*
X101580798Y50364899D02*
X101680798Y50331566D01*
X101680798Y50331566D02*
X101847465Y50331566D01*
X101014132Y51031566D02*
X100880798Y51031566D01*
X100880798Y51031566D02*
X100814132Y50998233D01*
X100814132Y50998233D02*
X100747465Y50931566D01*
X100747465Y50931566D02*
X100714132Y50798233D01*
X100714132Y50798233D02*
X100714132Y50564899D01*
X100714132Y50564899D02*
X100747465Y50431566D01*
X100747465Y50431566D02*
X100814132Y50364899D01*
X100814132Y50364899D02*
X100880798Y50331566D01*
X100880798Y50331566D02*
X101014132Y50331566D01*
X101014132Y50331566D02*
X101080798Y50364899D01*
X101080798Y50364899D02*
X101147465Y50431566D01*
X101147465Y50431566D02*
X101180798Y50564899D01*
X101180798Y50564899D02*
X101180798Y50798233D01*
X101180798Y50798233D02*
X101147465Y50931566D01*
X101147465Y50931566D02*
X101080798Y50998233D01*
X101080798Y50998233D02*
X101014132Y51031566D01*
X100414132Y51031566D02*
X100414132Y50464899D01*
X100414132Y50464899D02*
X100380799Y50398233D01*
X100380799Y50398233D02*
X100347465Y50364899D01*
X100347465Y50364899D02*
X100280799Y50331566D01*
X100280799Y50331566D02*
X100147465Y50331566D01*
X100147465Y50331566D02*
X100080799Y50364899D01*
X100080799Y50364899D02*
X100047465Y50398233D01*
X100047465Y50398233D02*
X100014132Y50464899D01*
X100014132Y50464899D02*
X100014132Y51031566D01*
X99780799Y51031566D02*
X99380799Y51031566D01*
X99580799Y50331566D02*
X99580799Y51031566D01*
X60360666Y52989034D02*
X60393999Y52955700D01*
X60393999Y52955700D02*
X60493999Y52922367D01*
X60493999Y52922367D02*
X60560666Y52922367D01*
X60560666Y52922367D02*
X60660666Y52955700D01*
X60660666Y52955700D02*
X60727333Y53022367D01*
X60727333Y53022367D02*
X60760666Y53089034D01*
X60760666Y53089034D02*
X60793999Y53222367D01*
X60793999Y53222367D02*
X60793999Y53322367D01*
X60793999Y53322367D02*
X60760666Y53455700D01*
X60760666Y53455700D02*
X60727333Y53522367D01*
X60727333Y53522367D02*
X60660666Y53589034D01*
X60660666Y53589034D02*
X60560666Y53622367D01*
X60560666Y53622367D02*
X60493999Y53622367D01*
X60493999Y53622367D02*
X60393999Y53589034D01*
X60393999Y53589034D02*
X60360666Y53555700D01*
X59727333Y52922367D02*
X60060666Y52922367D01*
X60060666Y52922367D02*
X60060666Y53622367D01*
X59493999Y52922367D02*
X59493999Y53622367D01*
X59093999Y52922367D02*
X59393999Y53322367D01*
X59093999Y53622367D02*
X59493999Y53222367D01*
X100986399Y11323434D02*
X101053066Y11356767D01*
X101053066Y11356767D02*
X101153066Y11356767D01*
X101153066Y11356767D02*
X101253066Y11323434D01*
X101253066Y11323434D02*
X101319733Y11256767D01*
X101319733Y11256767D02*
X101353066Y11190100D01*
X101353066Y11190100D02*
X101386399Y11056767D01*
X101386399Y11056767D02*
X101386399Y10956767D01*
X101386399Y10956767D02*
X101353066Y10823434D01*
X101353066Y10823434D02*
X101319733Y10756767D01*
X101319733Y10756767D02*
X101253066Y10690100D01*
X101253066Y10690100D02*
X101153066Y10656767D01*
X101153066Y10656767D02*
X101086399Y10656767D01*
X101086399Y10656767D02*
X100986399Y10690100D01*
X100986399Y10690100D02*
X100953066Y10723434D01*
X100953066Y10723434D02*
X100953066Y10956767D01*
X100953066Y10956767D02*
X101086399Y10956767D01*
X100653066Y10656767D02*
X100653066Y11356767D01*
X100653066Y11356767D02*
X100253066Y10656767D01*
X100253066Y10656767D02*
X100253066Y11356767D01*
X99919733Y10656767D02*
X99919733Y11356767D01*
X99919733Y11356767D02*
X99753066Y11356767D01*
X99753066Y11356767D02*
X99653066Y11323434D01*
X99653066Y11323434D02*
X99586400Y11256767D01*
X99586400Y11256767D02*
X99553066Y11190100D01*
X99553066Y11190100D02*
X99519733Y11056767D01*
X99519733Y11056767D02*
X99519733Y10956767D01*
X99519733Y10956767D02*
X99553066Y10823434D01*
X99553066Y10823434D02*
X99586400Y10756767D01*
X99586400Y10756767D02*
X99653066Y10690100D01*
X99653066Y10690100D02*
X99753066Y10656767D01*
X99753066Y10656767D02*
X99919733Y10656767D01*
X28185999Y15854233D02*
X28219332Y15820899D01*
X28219332Y15820899D02*
X28319332Y15787566D01*
X28319332Y15787566D02*
X28385999Y15787566D01*
X28385999Y15787566D02*
X28485999Y15820899D01*
X28485999Y15820899D02*
X28552666Y15887566D01*
X28552666Y15887566D02*
X28585999Y15954233D01*
X28585999Y15954233D02*
X28619332Y16087566D01*
X28619332Y16087566D02*
X28619332Y16187566D01*
X28619332Y16187566D02*
X28585999Y16320899D01*
X28585999Y16320899D02*
X28552666Y16387566D01*
X28552666Y16387566D02*
X28485999Y16454233D01*
X28485999Y16454233D02*
X28385999Y16487566D01*
X28385999Y16487566D02*
X28319332Y16487566D01*
X28319332Y16487566D02*
X28219332Y16454233D01*
X28219332Y16454233D02*
X28185999Y16420899D01*
X27919332Y15820899D02*
X27819332Y15787566D01*
X27819332Y15787566D02*
X27652666Y15787566D01*
X27652666Y15787566D02*
X27585999Y15820899D01*
X27585999Y15820899D02*
X27552666Y15854233D01*
X27552666Y15854233D02*
X27519332Y15920899D01*
X27519332Y15920899D02*
X27519332Y15987566D01*
X27519332Y15987566D02*
X27552666Y16054233D01*
X27552666Y16054233D02*
X27585999Y16087566D01*
X27585999Y16087566D02*
X27652666Y16120899D01*
X27652666Y16120899D02*
X27785999Y16154233D01*
X27785999Y16154233D02*
X27852666Y16187566D01*
X27852666Y16187566D02*
X27885999Y16220899D01*
X27885999Y16220899D02*
X27919332Y16287566D01*
X27919332Y16287566D02*
X27919332Y16354233D01*
X27919332Y16354233D02*
X27885999Y16420899D01*
X27885999Y16420899D02*
X27852666Y16454233D01*
X27852666Y16454233D02*
X27785999Y16487566D01*
X27785999Y16487566D02*
X27619332Y16487566D01*
X27619332Y16487566D02*
X27519332Y16454233D01*
X100114133Y47858233D02*
X100147466Y47824899D01*
X100147466Y47824899D02*
X100247466Y47791566D01*
X100247466Y47791566D02*
X100314133Y47791566D01*
X100314133Y47791566D02*
X100414133Y47824899D01*
X100414133Y47824899D02*
X100480800Y47891566D01*
X100480800Y47891566D02*
X100514133Y47958233D01*
X100514133Y47958233D02*
X100547466Y48091566D01*
X100547466Y48091566D02*
X100547466Y48191566D01*
X100547466Y48191566D02*
X100514133Y48324899D01*
X100514133Y48324899D02*
X100480800Y48391566D01*
X100480800Y48391566D02*
X100414133Y48458233D01*
X100414133Y48458233D02*
X100314133Y48491566D01*
X100314133Y48491566D02*
X100247466Y48491566D01*
X100247466Y48491566D02*
X100147466Y48458233D01*
X100147466Y48458233D02*
X100114133Y48424899D01*
X99847466Y47824899D02*
X99747466Y47791566D01*
X99747466Y47791566D02*
X99580800Y47791566D01*
X99580800Y47791566D02*
X99514133Y47824899D01*
X99514133Y47824899D02*
X99480800Y47858233D01*
X99480800Y47858233D02*
X99447466Y47924899D01*
X99447466Y47924899D02*
X99447466Y47991566D01*
X99447466Y47991566D02*
X99480800Y48058233D01*
X99480800Y48058233D02*
X99514133Y48091566D01*
X99514133Y48091566D02*
X99580800Y48124899D01*
X99580800Y48124899D02*
X99714133Y48158233D01*
X99714133Y48158233D02*
X99780800Y48191566D01*
X99780800Y48191566D02*
X99814133Y48224899D01*
X99814133Y48224899D02*
X99847466Y48291566D01*
X99847466Y48291566D02*
X99847466Y48358233D01*
X99847466Y48358233D02*
X99814133Y48424899D01*
X99814133Y48424899D02*
X99780800Y48458233D01*
X99780800Y48458233D02*
X99714133Y48491566D01*
X99714133Y48491566D02*
X99547466Y48491566D01*
X99547466Y48491566D02*
X99447466Y48458233D01*
X92143999Y43366866D02*
X92210666Y43400199D01*
X92210666Y43400199D02*
X92310666Y43400199D01*
X92310666Y43400199D02*
X92410666Y43366866D01*
X92410666Y43366866D02*
X92477333Y43300199D01*
X92477333Y43300199D02*
X92510666Y43233532D01*
X92510666Y43233532D02*
X92543999Y43100199D01*
X92543999Y43100199D02*
X92543999Y43000199D01*
X92543999Y43000199D02*
X92510666Y42866866D01*
X92510666Y42866866D02*
X92477333Y42800199D01*
X92477333Y42800199D02*
X92410666Y42733532D01*
X92410666Y42733532D02*
X92310666Y42700199D01*
X92310666Y42700199D02*
X92243999Y42700199D01*
X92243999Y42700199D02*
X92143999Y42733532D01*
X92143999Y42733532D02*
X92110666Y42766866D01*
X92110666Y42766866D02*
X92110666Y43000199D01*
X92110666Y43000199D02*
X92243999Y43000199D01*
X91810666Y42700199D02*
X91810666Y43400199D01*
X91810666Y43400199D02*
X91410666Y42700199D01*
X91410666Y42700199D02*
X91410666Y43400199D01*
X91077333Y42700199D02*
X91077333Y43400199D01*
X91077333Y43400199D02*
X90910666Y43400199D01*
X90910666Y43400199D02*
X90810666Y43366866D01*
X90810666Y43366866D02*
X90744000Y43300199D01*
X90744000Y43300199D02*
X90710666Y43233532D01*
X90710666Y43233532D02*
X90677333Y43100199D01*
X90677333Y43100199D02*
X90677333Y43000199D01*
X90677333Y43000199D02*
X90710666Y42866866D01*
X90710666Y42866866D02*
X90744000Y42800199D01*
X90744000Y42800199D02*
X90810666Y42733532D01*
X90810666Y42733532D02*
X90910666Y42700199D01*
X90910666Y42700199D02*
X91077333Y42700199D01*
X28686000Y13947567D02*
X28452667Y13247567D01*
X28452667Y13247567D02*
X28219333Y13947567D01*
X27686000Y13280900D02*
X27752667Y13247567D01*
X27752667Y13247567D02*
X27886000Y13247567D01*
X27886000Y13247567D02*
X27952667Y13280900D01*
X27952667Y13280900D02*
X27986000Y13314234D01*
X27986000Y13314234D02*
X28019333Y13380900D01*
X28019333Y13380900D02*
X28019333Y13580900D01*
X28019333Y13580900D02*
X27986000Y13647567D01*
X27986000Y13647567D02*
X27952667Y13680900D01*
X27952667Y13680900D02*
X27886000Y13714234D01*
X27886000Y13714234D02*
X27752667Y13714234D01*
X27752667Y13714234D02*
X27686000Y13680900D01*
X27086000Y13280900D02*
X27152667Y13247567D01*
X27152667Y13247567D02*
X27286000Y13247567D01*
X27286000Y13247567D02*
X27352667Y13280900D01*
X27352667Y13280900D02*
X27386000Y13314234D01*
X27386000Y13314234D02*
X27419333Y13380900D01*
X27419333Y13380900D02*
X27419333Y13580900D01*
X27419333Y13580900D02*
X27386000Y13647567D01*
X27386000Y13647567D02*
X27352667Y13680900D01*
X27352667Y13680900D02*
X27286000Y13714234D01*
X27286000Y13714234D02*
X27152667Y13714234D01*
X27152667Y13714234D02*
X27086000Y13680900D01*
X37173600Y45900768D02*
X36940267Y45200768D01*
X36940267Y45200768D02*
X36706933Y45900768D01*
X36173600Y45234101D02*
X36240267Y45200768D01*
X36240267Y45200768D02*
X36373600Y45200768D01*
X36373600Y45200768D02*
X36440267Y45234101D01*
X36440267Y45234101D02*
X36473600Y45267435D01*
X36473600Y45267435D02*
X36506933Y45334101D01*
X36506933Y45334101D02*
X36506933Y45534101D01*
X36506933Y45534101D02*
X36473600Y45600768D01*
X36473600Y45600768D02*
X36440267Y45634101D01*
X36440267Y45634101D02*
X36373600Y45667435D01*
X36373600Y45667435D02*
X36240267Y45667435D01*
X36240267Y45667435D02*
X36173600Y45634101D01*
X35573600Y45234101D02*
X35640267Y45200768D01*
X35640267Y45200768D02*
X35773600Y45200768D01*
X35773600Y45200768D02*
X35840267Y45234101D01*
X35840267Y45234101D02*
X35873600Y45267435D01*
X35873600Y45267435D02*
X35906933Y45334101D01*
X35906933Y45334101D02*
X35906933Y45534101D01*
X35906933Y45534101D02*
X35873600Y45600768D01*
X35873600Y45600768D02*
X35840267Y45634101D01*
X35840267Y45634101D02*
X35773600Y45667435D01*
X35773600Y45667435D02*
X35640267Y45667435D01*
X35640267Y45667435D02*
X35573600Y45634101D01*
X101919732Y18276767D02*
X101919732Y18976767D01*
X101919732Y18976767D02*
X101753065Y18976767D01*
X101753065Y18976767D02*
X101653065Y18943434D01*
X101653065Y18943434D02*
X101586399Y18876767D01*
X101586399Y18876767D02*
X101553065Y18810100D01*
X101553065Y18810100D02*
X101519732Y18676767D01*
X101519732Y18676767D02*
X101519732Y18576767D01*
X101519732Y18576767D02*
X101553065Y18443434D01*
X101553065Y18443434D02*
X101586399Y18376767D01*
X101586399Y18376767D02*
X101653065Y18310100D01*
X101653065Y18310100D02*
X101753065Y18276767D01*
X101753065Y18276767D02*
X101919732Y18276767D01*
X101086399Y18976767D02*
X100953065Y18976767D01*
X100953065Y18976767D02*
X100886399Y18943434D01*
X100886399Y18943434D02*
X100819732Y18876767D01*
X100819732Y18876767D02*
X100786399Y18743434D01*
X100786399Y18743434D02*
X100786399Y18510100D01*
X100786399Y18510100D02*
X100819732Y18376767D01*
X100819732Y18376767D02*
X100886399Y18310100D01*
X100886399Y18310100D02*
X100953065Y18276767D01*
X100953065Y18276767D02*
X101086399Y18276767D01*
X101086399Y18276767D02*
X101153065Y18310100D01*
X101153065Y18310100D02*
X101219732Y18376767D01*
X101219732Y18376767D02*
X101253065Y18510100D01*
X101253065Y18510100D02*
X101253065Y18743434D01*
X101253065Y18743434D02*
X101219732Y18876767D01*
X101219732Y18876767D02*
X101153065Y18943434D01*
X101153065Y18943434D02*
X101086399Y18976767D01*
X100486399Y18976767D02*
X100486399Y18410100D01*
X100486399Y18410100D02*
X100453066Y18343434D01*
X100453066Y18343434D02*
X100419732Y18310100D01*
X100419732Y18310100D02*
X100353066Y18276767D01*
X100353066Y18276767D02*
X100219732Y18276767D01*
X100219732Y18276767D02*
X100153066Y18310100D01*
X100153066Y18310100D02*
X100119732Y18343434D01*
X100119732Y18343434D02*
X100086399Y18410100D01*
X100086399Y18410100D02*
X100086399Y18976767D01*
X99853066Y18976767D02*
X99453066Y18976767D01*
X99653066Y18276767D02*
X99653066Y18976767D01*
X28204266Y47909034D02*
X28237599Y47875700D01*
X28237599Y47875700D02*
X28337599Y47842367D01*
X28337599Y47842367D02*
X28404266Y47842367D01*
X28404266Y47842367D02*
X28504266Y47875700D01*
X28504266Y47875700D02*
X28570933Y47942367D01*
X28570933Y47942367D02*
X28604266Y48009034D01*
X28604266Y48009034D02*
X28637599Y48142367D01*
X28637599Y48142367D02*
X28637599Y48242367D01*
X28637599Y48242367D02*
X28604266Y48375700D01*
X28604266Y48375700D02*
X28570933Y48442367D01*
X28570933Y48442367D02*
X28504266Y48509034D01*
X28504266Y48509034D02*
X28404266Y48542367D01*
X28404266Y48542367D02*
X28337599Y48542367D01*
X28337599Y48542367D02*
X28237599Y48509034D01*
X28237599Y48509034D02*
X28204266Y48475700D01*
X27937599Y47875700D02*
X27837599Y47842367D01*
X27837599Y47842367D02*
X27670933Y47842367D01*
X27670933Y47842367D02*
X27604266Y47875700D01*
X27604266Y47875700D02*
X27570933Y47909034D01*
X27570933Y47909034D02*
X27537599Y47975700D01*
X27537599Y47975700D02*
X27537599Y48042367D01*
X27537599Y48042367D02*
X27570933Y48109034D01*
X27570933Y48109034D02*
X27604266Y48142367D01*
X27604266Y48142367D02*
X27670933Y48175700D01*
X27670933Y48175700D02*
X27804266Y48209034D01*
X27804266Y48209034D02*
X27870933Y48242367D01*
X27870933Y48242367D02*
X27904266Y48275700D01*
X27904266Y48275700D02*
X27937599Y48342367D01*
X27937599Y48342367D02*
X27937599Y48409034D01*
X27937599Y48409034D02*
X27904266Y48475700D01*
X27904266Y48475700D02*
X27870933Y48509034D01*
X27870933Y48509034D02*
X27804266Y48542367D01*
X27804266Y48542367D02*
X27637599Y48542367D01*
X27637599Y48542367D02*
X27537599Y48509034D01*
X37973598Y50280767D02*
X37973598Y50980767D01*
X37973598Y50980767D02*
X37806931Y50980767D01*
X37806931Y50980767D02*
X37706931Y50947434D01*
X37706931Y50947434D02*
X37640265Y50880767D01*
X37640265Y50880767D02*
X37606931Y50814100D01*
X37606931Y50814100D02*
X37573598Y50680767D01*
X37573598Y50680767D02*
X37573598Y50580767D01*
X37573598Y50580767D02*
X37606931Y50447434D01*
X37606931Y50447434D02*
X37640265Y50380767D01*
X37640265Y50380767D02*
X37706931Y50314100D01*
X37706931Y50314100D02*
X37806931Y50280767D01*
X37806931Y50280767D02*
X37973598Y50280767D01*
X37140265Y50980767D02*
X37006931Y50980767D01*
X37006931Y50980767D02*
X36940265Y50947434D01*
X36940265Y50947434D02*
X36873598Y50880767D01*
X36873598Y50880767D02*
X36840265Y50747434D01*
X36840265Y50747434D02*
X36840265Y50514100D01*
X36840265Y50514100D02*
X36873598Y50380767D01*
X36873598Y50380767D02*
X36940265Y50314100D01*
X36940265Y50314100D02*
X37006931Y50280767D01*
X37006931Y50280767D02*
X37140265Y50280767D01*
X37140265Y50280767D02*
X37206931Y50314100D01*
X37206931Y50314100D02*
X37273598Y50380767D01*
X37273598Y50380767D02*
X37306931Y50514100D01*
X37306931Y50514100D02*
X37306931Y50747434D01*
X37306931Y50747434D02*
X37273598Y50880767D01*
X37273598Y50880767D02*
X37206931Y50947434D01*
X37206931Y50947434D02*
X37140265Y50980767D01*
X36540265Y50980767D02*
X36540265Y50414100D01*
X36540265Y50414100D02*
X36506932Y50347434D01*
X36506932Y50347434D02*
X36473598Y50314100D01*
X36473598Y50314100D02*
X36406932Y50280767D01*
X36406932Y50280767D02*
X36273598Y50280767D01*
X36273598Y50280767D02*
X36206932Y50314100D01*
X36206932Y50314100D02*
X36173598Y50347434D01*
X36173598Y50347434D02*
X36140265Y50414100D01*
X36140265Y50414100D02*
X36140265Y50980767D01*
X35906932Y50980767D02*
X35506932Y50980767D01*
X35706932Y50280767D02*
X35706932Y50980767D01*
X28185999Y20934233D02*
X28219332Y20900899D01*
X28219332Y20900899D02*
X28319332Y20867566D01*
X28319332Y20867566D02*
X28385999Y20867566D01*
X28385999Y20867566D02*
X28485999Y20900899D01*
X28485999Y20900899D02*
X28552666Y20967566D01*
X28552666Y20967566D02*
X28585999Y21034233D01*
X28585999Y21034233D02*
X28619332Y21167566D01*
X28619332Y21167566D02*
X28619332Y21267566D01*
X28619332Y21267566D02*
X28585999Y21400899D01*
X28585999Y21400899D02*
X28552666Y21467566D01*
X28552666Y21467566D02*
X28485999Y21534233D01*
X28485999Y21534233D02*
X28385999Y21567566D01*
X28385999Y21567566D02*
X28319332Y21567566D01*
X28319332Y21567566D02*
X28219332Y21534233D01*
X28219332Y21534233D02*
X28185999Y21500899D01*
X27552666Y20867566D02*
X27885999Y20867566D01*
X27885999Y20867566D02*
X27885999Y21567566D01*
X27319332Y20867566D02*
X27319332Y21567566D01*
X26919332Y20867566D02*
X27219332Y21267566D01*
X26919332Y21567566D02*
X27319332Y21167566D01*
X124401199Y52946518D02*
X124434532Y52913184D01*
X124434532Y52913184D02*
X124534532Y52879851D01*
X124534532Y52879851D02*
X124601199Y52879851D01*
X124601199Y52879851D02*
X124701199Y52913184D01*
X124701199Y52913184D02*
X124767866Y52979851D01*
X124767866Y52979851D02*
X124801199Y53046518D01*
X124801199Y53046518D02*
X124834532Y53179851D01*
X124834532Y53179851D02*
X124834532Y53279851D01*
X124834532Y53279851D02*
X124801199Y53413184D01*
X124801199Y53413184D02*
X124767866Y53479851D01*
X124767866Y53479851D02*
X124701199Y53546518D01*
X124701199Y53546518D02*
X124601199Y53579851D01*
X124601199Y53579851D02*
X124534532Y53579851D01*
X124534532Y53579851D02*
X124434532Y53546518D01*
X124434532Y53546518D02*
X124401199Y53513184D01*
X123767866Y52879851D02*
X124101199Y52879851D01*
X124101199Y52879851D02*
X124101199Y53579851D01*
X123534532Y52879851D02*
X123534532Y53579851D01*
X123134532Y52879851D02*
X123434532Y53279851D01*
X123134532Y53579851D02*
X123534532Y53179851D01*
X28219332Y11374234D02*
X28285999Y11407567D01*
X28285999Y11407567D02*
X28385999Y11407567D01*
X28385999Y11407567D02*
X28485999Y11374234D01*
X28485999Y11374234D02*
X28552666Y11307567D01*
X28552666Y11307567D02*
X28585999Y11240900D01*
X28585999Y11240900D02*
X28619332Y11107567D01*
X28619332Y11107567D02*
X28619332Y11007567D01*
X28619332Y11007567D02*
X28585999Y10874234D01*
X28585999Y10874234D02*
X28552666Y10807567D01*
X28552666Y10807567D02*
X28485999Y10740900D01*
X28485999Y10740900D02*
X28385999Y10707567D01*
X28385999Y10707567D02*
X28319332Y10707567D01*
X28319332Y10707567D02*
X28219332Y10740900D01*
X28219332Y10740900D02*
X28185999Y10774234D01*
X28185999Y10774234D02*
X28185999Y11007567D01*
X28185999Y11007567D02*
X28319332Y11007567D01*
X27885999Y10707567D02*
X27885999Y11407567D01*
X27885999Y11407567D02*
X27485999Y10707567D01*
X27485999Y10707567D02*
X27485999Y11407567D01*
X27152666Y10707567D02*
X27152666Y11407567D01*
X27152666Y11407567D02*
X26985999Y11407567D01*
X26985999Y11407567D02*
X26885999Y11374234D01*
X26885999Y11374234D02*
X26819333Y11307567D01*
X26819333Y11307567D02*
X26785999Y11240900D01*
X26785999Y11240900D02*
X26752666Y11107567D01*
X26752666Y11107567D02*
X26752666Y11007567D01*
X26752666Y11007567D02*
X26785999Y10874234D01*
X26785999Y10874234D02*
X26819333Y10807567D01*
X26819333Y10807567D02*
X26885999Y10740900D01*
X26885999Y10740900D02*
X26985999Y10707567D01*
X26985999Y10707567D02*
X27152666Y10707567D01*
X68091866Y47858234D02*
X68125199Y47824900D01*
X68125199Y47824900D02*
X68225199Y47791567D01*
X68225199Y47791567D02*
X68291866Y47791567D01*
X68291866Y47791567D02*
X68391866Y47824900D01*
X68391866Y47824900D02*
X68458533Y47891567D01*
X68458533Y47891567D02*
X68491866Y47958234D01*
X68491866Y47958234D02*
X68525199Y48091567D01*
X68525199Y48091567D02*
X68525199Y48191567D01*
X68525199Y48191567D02*
X68491866Y48324900D01*
X68491866Y48324900D02*
X68458533Y48391567D01*
X68458533Y48391567D02*
X68391866Y48458234D01*
X68391866Y48458234D02*
X68291866Y48491567D01*
X68291866Y48491567D02*
X68225199Y48491567D01*
X68225199Y48491567D02*
X68125199Y48458234D01*
X68125199Y48458234D02*
X68091866Y48424900D01*
X67825199Y47824900D02*
X67725199Y47791567D01*
X67725199Y47791567D02*
X67558533Y47791567D01*
X67558533Y47791567D02*
X67491866Y47824900D01*
X67491866Y47824900D02*
X67458533Y47858234D01*
X67458533Y47858234D02*
X67425199Y47924900D01*
X67425199Y47924900D02*
X67425199Y47991567D01*
X67425199Y47991567D02*
X67458533Y48058234D01*
X67458533Y48058234D02*
X67491866Y48091567D01*
X67491866Y48091567D02*
X67558533Y48124900D01*
X67558533Y48124900D02*
X67691866Y48158234D01*
X67691866Y48158234D02*
X67758533Y48191567D01*
X67758533Y48191567D02*
X67791866Y48224900D01*
X67791866Y48224900D02*
X67825199Y48291567D01*
X67825199Y48291567D02*
X67825199Y48358234D01*
X67825199Y48358234D02*
X67791866Y48424900D01*
X67791866Y48424900D02*
X67758533Y48458234D01*
X67758533Y48458234D02*
X67691866Y48491567D01*
X67691866Y48491567D02*
X67525199Y48491567D01*
X67525199Y48491567D02*
X67425199Y48458234D01*
X92143199Y15854233D02*
X92176532Y15820899D01*
X92176532Y15820899D02*
X92276532Y15787566D01*
X92276532Y15787566D02*
X92343199Y15787566D01*
X92343199Y15787566D02*
X92443199Y15820899D01*
X92443199Y15820899D02*
X92509866Y15887566D01*
X92509866Y15887566D02*
X92543199Y15954233D01*
X92543199Y15954233D02*
X92576532Y16087566D01*
X92576532Y16087566D02*
X92576532Y16187566D01*
X92576532Y16187566D02*
X92543199Y16320899D01*
X92543199Y16320899D02*
X92509866Y16387566D01*
X92509866Y16387566D02*
X92443199Y16454233D01*
X92443199Y16454233D02*
X92343199Y16487566D01*
X92343199Y16487566D02*
X92276532Y16487566D01*
X92276532Y16487566D02*
X92176532Y16454233D01*
X92176532Y16454233D02*
X92143199Y16420899D01*
X91876532Y15820899D02*
X91776532Y15787566D01*
X91776532Y15787566D02*
X91609866Y15787566D01*
X91609866Y15787566D02*
X91543199Y15820899D01*
X91543199Y15820899D02*
X91509866Y15854233D01*
X91509866Y15854233D02*
X91476532Y15920899D01*
X91476532Y15920899D02*
X91476532Y15987566D01*
X91476532Y15987566D02*
X91509866Y16054233D01*
X91509866Y16054233D02*
X91543199Y16087566D01*
X91543199Y16087566D02*
X91609866Y16120899D01*
X91609866Y16120899D02*
X91743199Y16154233D01*
X91743199Y16154233D02*
X91809866Y16187566D01*
X91809866Y16187566D02*
X91843199Y16220899D01*
X91843199Y16220899D02*
X91876532Y16287566D01*
X91876532Y16287566D02*
X91876532Y16354233D01*
X91876532Y16354233D02*
X91843199Y16420899D01*
X91843199Y16420899D02*
X91809866Y16454233D01*
X91809866Y16454233D02*
X91743199Y16487566D01*
X91743199Y16487566D02*
X91576532Y16487566D01*
X91576532Y16487566D02*
X91476532Y16454233D01*
X60240799Y20883433D02*
X60274132Y20850099D01*
X60274132Y20850099D02*
X60374132Y20816766D01*
X60374132Y20816766D02*
X60440799Y20816766D01*
X60440799Y20816766D02*
X60540799Y20850099D01*
X60540799Y20850099D02*
X60607466Y20916766D01*
X60607466Y20916766D02*
X60640799Y20983433D01*
X60640799Y20983433D02*
X60674132Y21116766D01*
X60674132Y21116766D02*
X60674132Y21216766D01*
X60674132Y21216766D02*
X60640799Y21350099D01*
X60640799Y21350099D02*
X60607466Y21416766D01*
X60607466Y21416766D02*
X60540799Y21483433D01*
X60540799Y21483433D02*
X60440799Y21516766D01*
X60440799Y21516766D02*
X60374132Y21516766D01*
X60374132Y21516766D02*
X60274132Y21483433D01*
X60274132Y21483433D02*
X60240799Y21450099D01*
X59607466Y20816766D02*
X59940799Y20816766D01*
X59940799Y20816766D02*
X59940799Y21516766D01*
X59374132Y20816766D02*
X59374132Y21516766D01*
X58974132Y20816766D02*
X59274132Y21216766D01*
X58974132Y21516766D02*
X59374132Y21116766D01*
X124901200Y45959852D02*
X124667867Y45259852D01*
X124667867Y45259852D02*
X124434533Y45959852D01*
X123901200Y45293185D02*
X123967867Y45259852D01*
X123967867Y45259852D02*
X124101200Y45259852D01*
X124101200Y45259852D02*
X124167867Y45293185D01*
X124167867Y45293185D02*
X124201200Y45326519D01*
X124201200Y45326519D02*
X124234533Y45393185D01*
X124234533Y45393185D02*
X124234533Y45593185D01*
X124234533Y45593185D02*
X124201200Y45659852D01*
X124201200Y45659852D02*
X124167867Y45693185D01*
X124167867Y45693185D02*
X124101200Y45726519D01*
X124101200Y45726519D02*
X123967867Y45726519D01*
X123967867Y45726519D02*
X123901200Y45693185D01*
X123301200Y45293185D02*
X123367867Y45259852D01*
X123367867Y45259852D02*
X123501200Y45259852D01*
X123501200Y45259852D02*
X123567867Y45293185D01*
X123567867Y45293185D02*
X123601200Y45326519D01*
X123601200Y45326519D02*
X123634533Y45393185D01*
X123634533Y45393185D02*
X123634533Y45593185D01*
X123634533Y45593185D02*
X123601200Y45659852D01*
X123601200Y45659852D02*
X123567867Y45693185D01*
X123567867Y45693185D02*
X123501200Y45726519D01*
X123501200Y45726519D02*
X123367867Y45726519D01*
X123367867Y45726519D02*
X123301200Y45693185D01*
X92110666Y47846865D02*
X92143999Y47813531D01*
X92143999Y47813531D02*
X92243999Y47780198D01*
X92243999Y47780198D02*
X92310666Y47780198D01*
X92310666Y47780198D02*
X92410666Y47813531D01*
X92410666Y47813531D02*
X92477333Y47880198D01*
X92477333Y47880198D02*
X92510666Y47946865D01*
X92510666Y47946865D02*
X92543999Y48080198D01*
X92543999Y48080198D02*
X92543999Y48180198D01*
X92543999Y48180198D02*
X92510666Y48313531D01*
X92510666Y48313531D02*
X92477333Y48380198D01*
X92477333Y48380198D02*
X92410666Y48446865D01*
X92410666Y48446865D02*
X92310666Y48480198D01*
X92310666Y48480198D02*
X92243999Y48480198D01*
X92243999Y48480198D02*
X92143999Y48446865D01*
X92143999Y48446865D02*
X92110666Y48413531D01*
X91843999Y47813531D02*
X91743999Y47780198D01*
X91743999Y47780198D02*
X91577333Y47780198D01*
X91577333Y47780198D02*
X91510666Y47813531D01*
X91510666Y47813531D02*
X91477333Y47846865D01*
X91477333Y47846865D02*
X91443999Y47913531D01*
X91443999Y47913531D02*
X91443999Y47980198D01*
X91443999Y47980198D02*
X91477333Y48046865D01*
X91477333Y48046865D02*
X91510666Y48080198D01*
X91510666Y48080198D02*
X91577333Y48113531D01*
X91577333Y48113531D02*
X91710666Y48146865D01*
X91710666Y48146865D02*
X91777333Y48180198D01*
X91777333Y48180198D02*
X91810666Y48213531D01*
X91810666Y48213531D02*
X91843999Y48280198D01*
X91843999Y48280198D02*
X91843999Y48346865D01*
X91843999Y48346865D02*
X91810666Y48413531D01*
X91810666Y48413531D02*
X91777333Y48446865D01*
X91777333Y48446865D02*
X91710666Y48480198D01*
X91710666Y48480198D02*
X91543999Y48480198D01*
X91543999Y48480198D02*
X91443999Y48446865D01*
X5683065Y18276766D02*
X5683065Y18976766D01*
X5683065Y18976766D02*
X5516398Y18976766D01*
X5516398Y18976766D02*
X5416398Y18943433D01*
X5416398Y18943433D02*
X5349732Y18876766D01*
X5349732Y18876766D02*
X5316398Y18810099D01*
X5316398Y18810099D02*
X5283065Y18676766D01*
X5283065Y18676766D02*
X5283065Y18576766D01*
X5283065Y18576766D02*
X5316398Y18443433D01*
X5316398Y18443433D02*
X5349732Y18376766D01*
X5349732Y18376766D02*
X5416398Y18310099D01*
X5416398Y18310099D02*
X5516398Y18276766D01*
X5516398Y18276766D02*
X5683065Y18276766D01*
X4849732Y18976766D02*
X4716398Y18976766D01*
X4716398Y18976766D02*
X4649732Y18943433D01*
X4649732Y18943433D02*
X4583065Y18876766D01*
X4583065Y18876766D02*
X4549732Y18743433D01*
X4549732Y18743433D02*
X4549732Y18510099D01*
X4549732Y18510099D02*
X4583065Y18376766D01*
X4583065Y18376766D02*
X4649732Y18310099D01*
X4649732Y18310099D02*
X4716398Y18276766D01*
X4716398Y18276766D02*
X4849732Y18276766D01*
X4849732Y18276766D02*
X4916398Y18310099D01*
X4916398Y18310099D02*
X4983065Y18376766D01*
X4983065Y18376766D02*
X5016398Y18510099D01*
X5016398Y18510099D02*
X5016398Y18743433D01*
X5016398Y18743433D02*
X4983065Y18876766D01*
X4983065Y18876766D02*
X4916398Y18943433D01*
X4916398Y18943433D02*
X4849732Y18976766D01*
X4249732Y18976766D02*
X4249732Y18410099D01*
X4249732Y18410099D02*
X4216399Y18343433D01*
X4216399Y18343433D02*
X4183065Y18310099D01*
X4183065Y18310099D02*
X4116399Y18276766D01*
X4116399Y18276766D02*
X3983065Y18276766D01*
X3983065Y18276766D02*
X3916399Y18310099D01*
X3916399Y18310099D02*
X3883065Y18343433D01*
X3883065Y18343433D02*
X3849732Y18410099D01*
X3849732Y18410099D02*
X3849732Y18976766D01*
X3616399Y18976766D02*
X3216399Y18976766D01*
X3416399Y18276766D02*
X3416399Y18976766D01*
X92110666Y52926865D02*
X92143999Y52893531D01*
X92143999Y52893531D02*
X92243999Y52860198D01*
X92243999Y52860198D02*
X92310666Y52860198D01*
X92310666Y52860198D02*
X92410666Y52893531D01*
X92410666Y52893531D02*
X92477333Y52960198D01*
X92477333Y52960198D02*
X92510666Y53026865D01*
X92510666Y53026865D02*
X92543999Y53160198D01*
X92543999Y53160198D02*
X92543999Y53260198D01*
X92543999Y53260198D02*
X92510666Y53393531D01*
X92510666Y53393531D02*
X92477333Y53460198D01*
X92477333Y53460198D02*
X92410666Y53526865D01*
X92410666Y53526865D02*
X92310666Y53560198D01*
X92310666Y53560198D02*
X92243999Y53560198D01*
X92243999Y53560198D02*
X92143999Y53526865D01*
X92143999Y53526865D02*
X92110666Y53493531D01*
X91477333Y52860198D02*
X91810666Y52860198D01*
X91810666Y52860198D02*
X91810666Y53560198D01*
X91243999Y52860198D02*
X91243999Y53560198D01*
X90843999Y52860198D02*
X91143999Y53260198D01*
X90843999Y53560198D02*
X91243999Y53160198D01*
X60274132Y11323434D02*
X60340799Y11356767D01*
X60340799Y11356767D02*
X60440799Y11356767D01*
X60440799Y11356767D02*
X60540799Y11323434D01*
X60540799Y11323434D02*
X60607466Y11256767D01*
X60607466Y11256767D02*
X60640799Y11190100D01*
X60640799Y11190100D02*
X60674132Y11056767D01*
X60674132Y11056767D02*
X60674132Y10956767D01*
X60674132Y10956767D02*
X60640799Y10823434D01*
X60640799Y10823434D02*
X60607466Y10756767D01*
X60607466Y10756767D02*
X60540799Y10690100D01*
X60540799Y10690100D02*
X60440799Y10656767D01*
X60440799Y10656767D02*
X60374132Y10656767D01*
X60374132Y10656767D02*
X60274132Y10690100D01*
X60274132Y10690100D02*
X60240799Y10723434D01*
X60240799Y10723434D02*
X60240799Y10956767D01*
X60240799Y10956767D02*
X60374132Y10956767D01*
X59940799Y10656767D02*
X59940799Y11356767D01*
X59940799Y11356767D02*
X59540799Y10656767D01*
X59540799Y10656767D02*
X59540799Y11356767D01*
X59207466Y10656767D02*
X59207466Y11356767D01*
X59207466Y11356767D02*
X59040799Y11356767D01*
X59040799Y11356767D02*
X58940799Y11323434D01*
X58940799Y11323434D02*
X58874133Y11256767D01*
X58874133Y11256767D02*
X58840799Y11190100D01*
X58840799Y11190100D02*
X58807466Y11056767D01*
X58807466Y11056767D02*
X58807466Y10956767D01*
X58807466Y10956767D02*
X58840799Y10823434D01*
X58840799Y10823434D02*
X58874133Y10756767D01*
X58874133Y10756767D02*
X58940799Y10690100D01*
X58940799Y10690100D02*
X59040799Y10656767D01*
X59040799Y10656767D02*
X59207466Y10656767D01*
X92643200Y13947567D02*
X92409867Y13247567D01*
X92409867Y13247567D02*
X92176533Y13947567D01*
X91643200Y13280900D02*
X91709867Y13247567D01*
X91709867Y13247567D02*
X91843200Y13247567D01*
X91843200Y13247567D02*
X91909867Y13280900D01*
X91909867Y13280900D02*
X91943200Y13314234D01*
X91943200Y13314234D02*
X91976533Y13380900D01*
X91976533Y13380900D02*
X91976533Y13580900D01*
X91976533Y13580900D02*
X91943200Y13647567D01*
X91943200Y13647567D02*
X91909867Y13680900D01*
X91909867Y13680900D02*
X91843200Y13714234D01*
X91843200Y13714234D02*
X91709867Y13714234D01*
X91709867Y13714234D02*
X91643200Y13680900D01*
X91043200Y13280900D02*
X91109867Y13247567D01*
X91109867Y13247567D02*
X91243200Y13247567D01*
X91243200Y13247567D02*
X91309867Y13280900D01*
X91309867Y13280900D02*
X91343200Y13314234D01*
X91343200Y13314234D02*
X91376533Y13380900D01*
X91376533Y13380900D02*
X91376533Y13580900D01*
X91376533Y13580900D02*
X91343200Y13647567D01*
X91343200Y13647567D02*
X91309867Y13680900D01*
X91309867Y13680900D02*
X91243200Y13714234D01*
X91243200Y13714234D02*
X91109867Y13714234D01*
X91109867Y13714234D02*
X91043200Y13680900D01*
X68891865Y43378235D02*
X68958532Y43411568D01*
X68958532Y43411568D02*
X69058532Y43411568D01*
X69058532Y43411568D02*
X69158532Y43378235D01*
X69158532Y43378235D02*
X69225199Y43311568D01*
X69225199Y43311568D02*
X69258532Y43244901D01*
X69258532Y43244901D02*
X69291865Y43111568D01*
X69291865Y43111568D02*
X69291865Y43011568D01*
X69291865Y43011568D02*
X69258532Y42878235D01*
X69258532Y42878235D02*
X69225199Y42811568D01*
X69225199Y42811568D02*
X69158532Y42744901D01*
X69158532Y42744901D02*
X69058532Y42711568D01*
X69058532Y42711568D02*
X68991865Y42711568D01*
X68991865Y42711568D02*
X68891865Y42744901D01*
X68891865Y42744901D02*
X68858532Y42778235D01*
X68858532Y42778235D02*
X68858532Y43011568D01*
X68858532Y43011568D02*
X68991865Y43011568D01*
X68558532Y42711568D02*
X68558532Y43411568D01*
X68558532Y43411568D02*
X68158532Y42711568D01*
X68158532Y42711568D02*
X68158532Y43411568D01*
X67825199Y42711568D02*
X67825199Y43411568D01*
X67825199Y43411568D02*
X67658532Y43411568D01*
X67658532Y43411568D02*
X67558532Y43378235D01*
X67558532Y43378235D02*
X67491866Y43311568D01*
X67491866Y43311568D02*
X67458532Y43244901D01*
X67458532Y43244901D02*
X67425199Y43111568D01*
X67425199Y43111568D02*
X67425199Y43011568D01*
X67425199Y43011568D02*
X67458532Y42878235D01*
X67458532Y42878235D02*
X67491866Y42811568D01*
X67491866Y42811568D02*
X67558532Y42744901D01*
X67558532Y42744901D02*
X67658532Y42711568D01*
X67658532Y42711568D02*
X67825199Y42711568D01*
X28237599Y43429035D02*
X28304266Y43462368D01*
X28304266Y43462368D02*
X28404266Y43462368D01*
X28404266Y43462368D02*
X28504266Y43429035D01*
X28504266Y43429035D02*
X28570933Y43362368D01*
X28570933Y43362368D02*
X28604266Y43295701D01*
X28604266Y43295701D02*
X28637599Y43162368D01*
X28637599Y43162368D02*
X28637599Y43062368D01*
X28637599Y43062368D02*
X28604266Y42929035D01*
X28604266Y42929035D02*
X28570933Y42862368D01*
X28570933Y42862368D02*
X28504266Y42795701D01*
X28504266Y42795701D02*
X28404266Y42762368D01*
X28404266Y42762368D02*
X28337599Y42762368D01*
X28337599Y42762368D02*
X28237599Y42795701D01*
X28237599Y42795701D02*
X28204266Y42829035D01*
X28204266Y42829035D02*
X28204266Y43062368D01*
X28204266Y43062368D02*
X28337599Y43062368D01*
X27904266Y42762368D02*
X27904266Y43462368D01*
X27904266Y43462368D02*
X27504266Y42762368D01*
X27504266Y42762368D02*
X27504266Y43462368D01*
X27170933Y42762368D02*
X27170933Y43462368D01*
X27170933Y43462368D02*
X27004266Y43462368D01*
X27004266Y43462368D02*
X26904266Y43429035D01*
X26904266Y43429035D02*
X26837600Y43362368D01*
X26837600Y43362368D02*
X26804266Y43295701D01*
X26804266Y43295701D02*
X26770933Y43162368D01*
X26770933Y43162368D02*
X26770933Y43062368D01*
X26770933Y43062368D02*
X26804266Y42929035D01*
X26804266Y42929035D02*
X26837600Y42862368D01*
X26837600Y42862368D02*
X26904266Y42795701D01*
X26904266Y42795701D02*
X27004266Y42762368D01*
X27004266Y42762368D02*
X27170933Y42762368D01*
X60760667Y50382367D02*
X60760667Y51082367D01*
X60760667Y51082367D02*
X60594000Y51082367D01*
X60594000Y51082367D02*
X60494000Y51049034D01*
X60494000Y51049034D02*
X60427334Y50982367D01*
X60427334Y50982367D02*
X60394000Y50915700D01*
X60394000Y50915700D02*
X60360667Y50782367D01*
X60360667Y50782367D02*
X60360667Y50682367D01*
X60360667Y50682367D02*
X60394000Y50549034D01*
X60394000Y50549034D02*
X60427334Y50482367D01*
X60427334Y50482367D02*
X60494000Y50415700D01*
X60494000Y50415700D02*
X60594000Y50382367D01*
X60594000Y50382367D02*
X60760667Y50382367D01*
X60060667Y50382367D02*
X60060667Y51082367D01*
X59727334Y50382367D02*
X59727334Y51082367D01*
X59727334Y51082367D02*
X59327334Y50382367D01*
X59327334Y50382367D02*
X59327334Y51082367D01*
X28704267Y46002368D02*
X28470934Y45302368D01*
X28470934Y45302368D02*
X28237600Y46002368D01*
X27704267Y45335701D02*
X27770934Y45302368D01*
X27770934Y45302368D02*
X27904267Y45302368D01*
X27904267Y45302368D02*
X27970934Y45335701D01*
X27970934Y45335701D02*
X28004267Y45369035D01*
X28004267Y45369035D02*
X28037600Y45435701D01*
X28037600Y45435701D02*
X28037600Y45635701D01*
X28037600Y45635701D02*
X28004267Y45702368D01*
X28004267Y45702368D02*
X27970934Y45735701D01*
X27970934Y45735701D02*
X27904267Y45769035D01*
X27904267Y45769035D02*
X27770934Y45769035D01*
X27770934Y45769035D02*
X27704267Y45735701D01*
X27104267Y45335701D02*
X27170934Y45302368D01*
X27170934Y45302368D02*
X27304267Y45302368D01*
X27304267Y45302368D02*
X27370934Y45335701D01*
X27370934Y45335701D02*
X27404267Y45369035D01*
X27404267Y45369035D02*
X27437600Y45435701D01*
X27437600Y45435701D02*
X27437600Y45635701D01*
X27437600Y45635701D02*
X27404267Y45702368D01*
X27404267Y45702368D02*
X27370934Y45735701D01*
X27370934Y45735701D02*
X27304267Y45769035D01*
X27304267Y45769035D02*
X27170934Y45769035D01*
X27170934Y45769035D02*
X27104267Y45735701D01*
X60860667Y46002368D02*
X60627334Y45302368D01*
X60627334Y45302368D02*
X60394000Y46002368D01*
X59860667Y45335701D02*
X59927334Y45302368D01*
X59927334Y45302368D02*
X60060667Y45302368D01*
X60060667Y45302368D02*
X60127334Y45335701D01*
X60127334Y45335701D02*
X60160667Y45369035D01*
X60160667Y45369035D02*
X60194000Y45435701D01*
X60194000Y45435701D02*
X60194000Y45635701D01*
X60194000Y45635701D02*
X60160667Y45702368D01*
X60160667Y45702368D02*
X60127334Y45735701D01*
X60127334Y45735701D02*
X60060667Y45769035D01*
X60060667Y45769035D02*
X59927334Y45769035D01*
X59927334Y45769035D02*
X59860667Y45735701D01*
X59260667Y45335701D02*
X59327334Y45302368D01*
X59327334Y45302368D02*
X59460667Y45302368D01*
X59460667Y45302368D02*
X59527334Y45335701D01*
X59527334Y45335701D02*
X59560667Y45369035D01*
X59560667Y45369035D02*
X59594000Y45435701D01*
X59594000Y45435701D02*
X59594000Y45635701D01*
X59594000Y45635701D02*
X59560667Y45702368D01*
X59560667Y45702368D02*
X59527334Y45735701D01*
X59527334Y45735701D02*
X59460667Y45769035D01*
X59460667Y45769035D02*
X59327334Y45769035D01*
X59327334Y45769035D02*
X59260667Y45735701D01*
X4749732Y11323434D02*
X4816399Y11356767D01*
X4816399Y11356767D02*
X4916399Y11356767D01*
X4916399Y11356767D02*
X5016399Y11323434D01*
X5016399Y11323434D02*
X5083066Y11256767D01*
X5083066Y11256767D02*
X5116399Y11190100D01*
X5116399Y11190100D02*
X5149732Y11056767D01*
X5149732Y11056767D02*
X5149732Y10956767D01*
X5149732Y10956767D02*
X5116399Y10823434D01*
X5116399Y10823434D02*
X5083066Y10756767D01*
X5083066Y10756767D02*
X5016399Y10690100D01*
X5016399Y10690100D02*
X4916399Y10656767D01*
X4916399Y10656767D02*
X4849732Y10656767D01*
X4849732Y10656767D02*
X4749732Y10690100D01*
X4749732Y10690100D02*
X4716399Y10723434D01*
X4716399Y10723434D02*
X4716399Y10956767D01*
X4716399Y10956767D02*
X4849732Y10956767D01*
X4416399Y10656767D02*
X4416399Y11356767D01*
X4416399Y11356767D02*
X4016399Y10656767D01*
X4016399Y10656767D02*
X4016399Y11356767D01*
X3683066Y10656767D02*
X3683066Y11356767D01*
X3683066Y11356767D02*
X3516399Y11356767D01*
X3516399Y11356767D02*
X3416399Y11323434D01*
X3416399Y11323434D02*
X3349733Y11256767D01*
X3349733Y11256767D02*
X3316399Y11190100D01*
X3316399Y11190100D02*
X3283066Y11056767D01*
X3283066Y11056767D02*
X3283066Y10956767D01*
X3283066Y10956767D02*
X3316399Y10823434D01*
X3316399Y10823434D02*
X3349733Y10756767D01*
X3349733Y10756767D02*
X3416399Y10690100D01*
X3416399Y10690100D02*
X3516399Y10656767D01*
X3516399Y10656767D02*
X3683066Y10656767D01*
X124750400Y18276767D02*
X124750400Y18976767D01*
X124750400Y18976767D02*
X124583733Y18976767D01*
X124583733Y18976767D02*
X124483733Y18943434D01*
X124483733Y18943434D02*
X124417067Y18876767D01*
X124417067Y18876767D02*
X124383733Y18810100D01*
X124383733Y18810100D02*
X124350400Y18676767D01*
X124350400Y18676767D02*
X124350400Y18576767D01*
X124350400Y18576767D02*
X124383733Y18443434D01*
X124383733Y18443434D02*
X124417067Y18376767D01*
X124417067Y18376767D02*
X124483733Y18310100D01*
X124483733Y18310100D02*
X124583733Y18276767D01*
X124583733Y18276767D02*
X124750400Y18276767D01*
X124050400Y18276767D02*
X124050400Y18976767D01*
X123717067Y18276767D02*
X123717067Y18976767D01*
X123717067Y18976767D02*
X123317067Y18276767D01*
X123317067Y18276767D02*
X123317067Y18976767D01*
X124801200Y50339851D02*
X124801200Y51039851D01*
X124801200Y51039851D02*
X124634533Y51039851D01*
X124634533Y51039851D02*
X124534533Y51006518D01*
X124534533Y51006518D02*
X124467867Y50939851D01*
X124467867Y50939851D02*
X124434533Y50873184D01*
X124434533Y50873184D02*
X124401200Y50739851D01*
X124401200Y50739851D02*
X124401200Y50639851D01*
X124401200Y50639851D02*
X124434533Y50506518D01*
X124434533Y50506518D02*
X124467867Y50439851D01*
X124467867Y50439851D02*
X124534533Y50373184D01*
X124534533Y50373184D02*
X124634533Y50339851D01*
X124634533Y50339851D02*
X124801200Y50339851D01*
X124101200Y50339851D02*
X124101200Y51039851D01*
X123767867Y50339851D02*
X123767867Y51039851D01*
X123767867Y51039851D02*
X123367867Y50339851D01*
X123367867Y50339851D02*
X123367867Y51039851D01*
X101119734Y13896767D02*
X100886401Y13196767D01*
X100886401Y13196767D02*
X100653067Y13896767D01*
X100119734Y13230100D02*
X100186401Y13196767D01*
X100186401Y13196767D02*
X100319734Y13196767D01*
X100319734Y13196767D02*
X100386401Y13230100D01*
X100386401Y13230100D02*
X100419734Y13263434D01*
X100419734Y13263434D02*
X100453067Y13330100D01*
X100453067Y13330100D02*
X100453067Y13530100D01*
X100453067Y13530100D02*
X100419734Y13596767D01*
X100419734Y13596767D02*
X100386401Y13630100D01*
X100386401Y13630100D02*
X100319734Y13663434D01*
X100319734Y13663434D02*
X100186401Y13663434D01*
X100186401Y13663434D02*
X100119734Y13630100D01*
X99519734Y13230100D02*
X99586401Y13196767D01*
X99586401Y13196767D02*
X99719734Y13196767D01*
X99719734Y13196767D02*
X99786401Y13230100D01*
X99786401Y13230100D02*
X99819734Y13263434D01*
X99819734Y13263434D02*
X99853067Y13330100D01*
X99853067Y13330100D02*
X99853067Y13530100D01*
X99853067Y13530100D02*
X99819734Y13596767D01*
X99819734Y13596767D02*
X99786401Y13630100D01*
X99786401Y13630100D02*
X99719734Y13663434D01*
X99719734Y13663434D02*
X99586401Y13663434D01*
X99586401Y13663434D02*
X99519734Y13630100D01*
X124350399Y20883434D02*
X124383732Y20850100D01*
X124383732Y20850100D02*
X124483732Y20816767D01*
X124483732Y20816767D02*
X124550399Y20816767D01*
X124550399Y20816767D02*
X124650399Y20850100D01*
X124650399Y20850100D02*
X124717066Y20916767D01*
X124717066Y20916767D02*
X124750399Y20983434D01*
X124750399Y20983434D02*
X124783732Y21116767D01*
X124783732Y21116767D02*
X124783732Y21216767D01*
X124783732Y21216767D02*
X124750399Y21350100D01*
X124750399Y21350100D02*
X124717066Y21416767D01*
X124717066Y21416767D02*
X124650399Y21483434D01*
X124650399Y21483434D02*
X124550399Y21516767D01*
X124550399Y21516767D02*
X124483732Y21516767D01*
X124483732Y21516767D02*
X124383732Y21483434D01*
X124383732Y21483434D02*
X124350399Y21450100D01*
X123717066Y20816767D02*
X124050399Y20816767D01*
X124050399Y20816767D02*
X124050399Y21516767D01*
X123483732Y20816767D02*
X123483732Y21516767D01*
X123083732Y20816767D02*
X123383732Y21216767D01*
X123083732Y21516767D02*
X123483732Y21116767D01*
X69076000Y13896768D02*
X68842667Y13196768D01*
X68842667Y13196768D02*
X68609333Y13896768D01*
X68076000Y13230101D02*
X68142667Y13196768D01*
X68142667Y13196768D02*
X68276000Y13196768D01*
X68276000Y13196768D02*
X68342667Y13230101D01*
X68342667Y13230101D02*
X68376000Y13263435D01*
X68376000Y13263435D02*
X68409333Y13330101D01*
X68409333Y13330101D02*
X68409333Y13530101D01*
X68409333Y13530101D02*
X68376000Y13596768D01*
X68376000Y13596768D02*
X68342667Y13630101D01*
X68342667Y13630101D02*
X68276000Y13663435D01*
X68276000Y13663435D02*
X68142667Y13663435D01*
X68142667Y13663435D02*
X68076000Y13630101D01*
X67476000Y13230101D02*
X67542667Y13196768D01*
X67542667Y13196768D02*
X67676000Y13196768D01*
X67676000Y13196768D02*
X67742667Y13230101D01*
X67742667Y13230101D02*
X67776000Y13263435D01*
X67776000Y13263435D02*
X67809333Y13330101D01*
X67809333Y13330101D02*
X67809333Y13530101D01*
X67809333Y13530101D02*
X67776000Y13596768D01*
X67776000Y13596768D02*
X67742667Y13630101D01*
X67742667Y13630101D02*
X67676000Y13663435D01*
X67676000Y13663435D02*
X67542667Y13663435D01*
X67542667Y13663435D02*
X67476000Y13630101D01*
X69025200Y45951568D02*
X68791867Y45251568D01*
X68791867Y45251568D02*
X68558533Y45951568D01*
X68025200Y45284901D02*
X68091867Y45251568D01*
X68091867Y45251568D02*
X68225200Y45251568D01*
X68225200Y45251568D02*
X68291867Y45284901D01*
X68291867Y45284901D02*
X68325200Y45318235D01*
X68325200Y45318235D02*
X68358533Y45384901D01*
X68358533Y45384901D02*
X68358533Y45584901D01*
X68358533Y45584901D02*
X68325200Y45651568D01*
X68325200Y45651568D02*
X68291867Y45684901D01*
X68291867Y45684901D02*
X68225200Y45718235D01*
X68225200Y45718235D02*
X68091867Y45718235D01*
X68091867Y45718235D02*
X68025200Y45684901D01*
X67425200Y45284901D02*
X67491867Y45251568D01*
X67491867Y45251568D02*
X67625200Y45251568D01*
X67625200Y45251568D02*
X67691867Y45284901D01*
X67691867Y45284901D02*
X67725200Y45318235D01*
X67725200Y45318235D02*
X67758533Y45384901D01*
X67758533Y45384901D02*
X67758533Y45584901D01*
X67758533Y45584901D02*
X67725200Y45651568D01*
X67725200Y45651568D02*
X67691867Y45684901D01*
X67691867Y45684901D02*
X67625200Y45718235D01*
X67625200Y45718235D02*
X67491867Y45718235D01*
X67491867Y45718235D02*
X67425200Y45684901D01*
X4549733Y20883433D02*
X4583066Y20850099D01*
X4583066Y20850099D02*
X4683066Y20816766D01*
X4683066Y20816766D02*
X4749733Y20816766D01*
X4749733Y20816766D02*
X4849733Y20850099D01*
X4849733Y20850099D02*
X4916400Y20916766D01*
X4916400Y20916766D02*
X4949733Y20983433D01*
X4949733Y20983433D02*
X4983066Y21116766D01*
X4983066Y21116766D02*
X4983066Y21216766D01*
X4983066Y21216766D02*
X4949733Y21350099D01*
X4949733Y21350099D02*
X4916400Y21416766D01*
X4916400Y21416766D02*
X4849733Y21483433D01*
X4849733Y21483433D02*
X4749733Y21516766D01*
X4749733Y21516766D02*
X4683066Y21516766D01*
X4683066Y21516766D02*
X4583066Y21483433D01*
X4583066Y21483433D02*
X4549733Y21450099D01*
X3916400Y20816766D02*
X4249733Y20816766D01*
X4249733Y20816766D02*
X4249733Y21516766D01*
X3683066Y20816766D02*
X3683066Y21516766D01*
X3283066Y20816766D02*
X3583066Y21216766D01*
X3283066Y21516766D02*
X3683066Y21116766D01*
X124383732Y11323434D02*
X124450399Y11356767D01*
X124450399Y11356767D02*
X124550399Y11356767D01*
X124550399Y11356767D02*
X124650399Y11323434D01*
X124650399Y11323434D02*
X124717066Y11256767D01*
X124717066Y11256767D02*
X124750399Y11190100D01*
X124750399Y11190100D02*
X124783732Y11056767D01*
X124783732Y11056767D02*
X124783732Y10956767D01*
X124783732Y10956767D02*
X124750399Y10823434D01*
X124750399Y10823434D02*
X124717066Y10756767D01*
X124717066Y10756767D02*
X124650399Y10690100D01*
X124650399Y10690100D02*
X124550399Y10656767D01*
X124550399Y10656767D02*
X124483732Y10656767D01*
X124483732Y10656767D02*
X124383732Y10690100D01*
X124383732Y10690100D02*
X124350399Y10723434D01*
X124350399Y10723434D02*
X124350399Y10956767D01*
X124350399Y10956767D02*
X124483732Y10956767D01*
X124050399Y10656767D02*
X124050399Y11356767D01*
X124050399Y11356767D02*
X123650399Y10656767D01*
X123650399Y10656767D02*
X123650399Y11356767D01*
X123317066Y10656767D02*
X123317066Y11356767D01*
X123317066Y11356767D02*
X123150399Y11356767D01*
X123150399Y11356767D02*
X123050399Y11323434D01*
X123050399Y11323434D02*
X122983733Y11256767D01*
X122983733Y11256767D02*
X122950399Y11190100D01*
X122950399Y11190100D02*
X122917066Y11056767D01*
X122917066Y11056767D02*
X122917066Y10956767D01*
X122917066Y10956767D02*
X122950399Y10823434D01*
X122950399Y10823434D02*
X122983733Y10756767D01*
X122983733Y10756767D02*
X123050399Y10690100D01*
X123050399Y10690100D02*
X123150399Y10656767D01*
X123150399Y10656767D02*
X123317066Y10656767D01*
X92176532Y11374234D02*
X92243199Y11407567D01*
X92243199Y11407567D02*
X92343199Y11407567D01*
X92343199Y11407567D02*
X92443199Y11374234D01*
X92443199Y11374234D02*
X92509866Y11307567D01*
X92509866Y11307567D02*
X92543199Y11240900D01*
X92543199Y11240900D02*
X92576532Y11107567D01*
X92576532Y11107567D02*
X92576532Y11007567D01*
X92576532Y11007567D02*
X92543199Y10874234D01*
X92543199Y10874234D02*
X92509866Y10807567D01*
X92509866Y10807567D02*
X92443199Y10740900D01*
X92443199Y10740900D02*
X92343199Y10707567D01*
X92343199Y10707567D02*
X92276532Y10707567D01*
X92276532Y10707567D02*
X92176532Y10740900D01*
X92176532Y10740900D02*
X92143199Y10774234D01*
X92143199Y10774234D02*
X92143199Y11007567D01*
X92143199Y11007567D02*
X92276532Y11007567D01*
X91843199Y10707567D02*
X91843199Y11407567D01*
X91843199Y11407567D02*
X91443199Y10707567D01*
X91443199Y10707567D02*
X91443199Y11407567D01*
X91109866Y10707567D02*
X91109866Y11407567D01*
X91109866Y11407567D02*
X90943199Y11407567D01*
X90943199Y11407567D02*
X90843199Y11374234D01*
X90843199Y11374234D02*
X90776533Y11307567D01*
X90776533Y11307567D02*
X90743199Y11240900D01*
X90743199Y11240900D02*
X90709866Y11107567D01*
X90709866Y11107567D02*
X90709866Y11007567D01*
X90709866Y11007567D02*
X90743199Y10874234D01*
X90743199Y10874234D02*
X90776533Y10807567D01*
X90776533Y10807567D02*
X90843199Y10740900D01*
X90843199Y10740900D02*
X90943199Y10707567D01*
X90943199Y10707567D02*
X91109866Y10707567D01*
X28604267Y50382367D02*
X28604267Y51082367D01*
X28604267Y51082367D02*
X28437600Y51082367D01*
X28437600Y51082367D02*
X28337600Y51049034D01*
X28337600Y51049034D02*
X28270934Y50982367D01*
X28270934Y50982367D02*
X28237600Y50915700D01*
X28237600Y50915700D02*
X28204267Y50782367D01*
X28204267Y50782367D02*
X28204267Y50682367D01*
X28204267Y50682367D02*
X28237600Y50549034D01*
X28237600Y50549034D02*
X28270934Y50482367D01*
X28270934Y50482367D02*
X28337600Y50415700D01*
X28337600Y50415700D02*
X28437600Y50382367D01*
X28437600Y50382367D02*
X28604267Y50382367D01*
X27904267Y50382367D02*
X27904267Y51082367D01*
X27570934Y50382367D02*
X27570934Y51082367D01*
X27570934Y51082367D02*
X27170934Y50382367D01*
X27170934Y50382367D02*
X27170934Y51082367D01*
X36586266Y20883434D02*
X36619599Y20850100D01*
X36619599Y20850100D02*
X36719599Y20816767D01*
X36719599Y20816767D02*
X36786266Y20816767D01*
X36786266Y20816767D02*
X36886266Y20850100D01*
X36886266Y20850100D02*
X36952933Y20916767D01*
X36952933Y20916767D02*
X36986266Y20983434D01*
X36986266Y20983434D02*
X37019599Y21116767D01*
X37019599Y21116767D02*
X37019599Y21216767D01*
X37019599Y21216767D02*
X36986266Y21350100D01*
X36986266Y21350100D02*
X36952933Y21416767D01*
X36952933Y21416767D02*
X36886266Y21483434D01*
X36886266Y21483434D02*
X36786266Y21516767D01*
X36786266Y21516767D02*
X36719599Y21516767D01*
X36719599Y21516767D02*
X36619599Y21483434D01*
X36619599Y21483434D02*
X36586266Y21450100D01*
X35952933Y20816767D02*
X36286266Y20816767D01*
X36286266Y20816767D02*
X36286266Y21516767D01*
X35719599Y20816767D02*
X35719599Y21516767D01*
X35319599Y20816767D02*
X35619599Y21216767D01*
X35319599Y21516767D02*
X35719599Y21116767D01*
X4152933Y47858233D02*
X4186266Y47824899D01*
X4186266Y47824899D02*
X4286266Y47791566D01*
X4286266Y47791566D02*
X4352933Y47791566D01*
X4352933Y47791566D02*
X4452933Y47824899D01*
X4452933Y47824899D02*
X4519600Y47891566D01*
X4519600Y47891566D02*
X4552933Y47958233D01*
X4552933Y47958233D02*
X4586266Y48091566D01*
X4586266Y48091566D02*
X4586266Y48191566D01*
X4586266Y48191566D02*
X4552933Y48324899D01*
X4552933Y48324899D02*
X4519600Y48391566D01*
X4519600Y48391566D02*
X4452933Y48458233D01*
X4452933Y48458233D02*
X4352933Y48491566D01*
X4352933Y48491566D02*
X4286266Y48491566D01*
X4286266Y48491566D02*
X4186266Y48458233D01*
X4186266Y48458233D02*
X4152933Y48424899D01*
X3886266Y47824899D02*
X3786266Y47791566D01*
X3786266Y47791566D02*
X3619600Y47791566D01*
X3619600Y47791566D02*
X3552933Y47824899D01*
X3552933Y47824899D02*
X3519600Y47858233D01*
X3519600Y47858233D02*
X3486266Y47924899D01*
X3486266Y47924899D02*
X3486266Y47991566D01*
X3486266Y47991566D02*
X3519600Y48058233D01*
X3519600Y48058233D02*
X3552933Y48091566D01*
X3552933Y48091566D02*
X3619600Y48124899D01*
X3619600Y48124899D02*
X3752933Y48158233D01*
X3752933Y48158233D02*
X3819600Y48191566D01*
X3819600Y48191566D02*
X3852933Y48224899D01*
X3852933Y48224899D02*
X3886266Y48291566D01*
X3886266Y48291566D02*
X3886266Y48358233D01*
X3886266Y48358233D02*
X3852933Y48424899D01*
X3852933Y48424899D02*
X3819600Y48458233D01*
X3819600Y48458233D02*
X3752933Y48491566D01*
X3752933Y48491566D02*
X3586266Y48491566D01*
X3586266Y48491566D02*
X3486266Y48458233D01*
X36786265Y11323435D02*
X36852932Y11356768D01*
X36852932Y11356768D02*
X36952932Y11356768D01*
X36952932Y11356768D02*
X37052932Y11323435D01*
X37052932Y11323435D02*
X37119599Y11256768D01*
X37119599Y11256768D02*
X37152932Y11190101D01*
X37152932Y11190101D02*
X37186265Y11056768D01*
X37186265Y11056768D02*
X37186265Y10956768D01*
X37186265Y10956768D02*
X37152932Y10823435D01*
X37152932Y10823435D02*
X37119599Y10756768D01*
X37119599Y10756768D02*
X37052932Y10690101D01*
X37052932Y10690101D02*
X36952932Y10656768D01*
X36952932Y10656768D02*
X36886265Y10656768D01*
X36886265Y10656768D02*
X36786265Y10690101D01*
X36786265Y10690101D02*
X36752932Y10723435D01*
X36752932Y10723435D02*
X36752932Y10956768D01*
X36752932Y10956768D02*
X36886265Y10956768D01*
X36452932Y10656768D02*
X36452932Y11356768D01*
X36452932Y11356768D02*
X36052932Y10656768D01*
X36052932Y10656768D02*
X36052932Y11356768D01*
X35719599Y10656768D02*
X35719599Y11356768D01*
X35719599Y11356768D02*
X35552932Y11356768D01*
X35552932Y11356768D02*
X35452932Y11323435D01*
X35452932Y11323435D02*
X35386266Y11256768D01*
X35386266Y11256768D02*
X35352932Y11190101D01*
X35352932Y11190101D02*
X35319599Y11056768D01*
X35319599Y11056768D02*
X35319599Y10956768D01*
X35319599Y10956768D02*
X35352932Y10823435D01*
X35352932Y10823435D02*
X35386266Y10756768D01*
X35386266Y10756768D02*
X35452932Y10690101D01*
X35452932Y10690101D02*
X35552932Y10656768D01*
X35552932Y10656768D02*
X35719599Y10656768D01*
X92510667Y50320198D02*
X92510667Y51020198D01*
X92510667Y51020198D02*
X92344000Y51020198D01*
X92344000Y51020198D02*
X92244000Y50986865D01*
X92244000Y50986865D02*
X92177334Y50920198D01*
X92177334Y50920198D02*
X92144000Y50853531D01*
X92144000Y50853531D02*
X92110667Y50720198D01*
X92110667Y50720198D02*
X92110667Y50620198D01*
X92110667Y50620198D02*
X92144000Y50486865D01*
X92144000Y50486865D02*
X92177334Y50420198D01*
X92177334Y50420198D02*
X92244000Y50353531D01*
X92244000Y50353531D02*
X92344000Y50320198D01*
X92344000Y50320198D02*
X92510667Y50320198D01*
X91810667Y50320198D02*
X91810667Y51020198D01*
X91477334Y50320198D02*
X91477334Y51020198D01*
X91477334Y51020198D02*
X91077334Y50320198D01*
X91077334Y50320198D02*
X91077334Y51020198D01*
X68691866Y52938234D02*
X68725199Y52904900D01*
X68725199Y52904900D02*
X68825199Y52871567D01*
X68825199Y52871567D02*
X68891866Y52871567D01*
X68891866Y52871567D02*
X68991866Y52904900D01*
X68991866Y52904900D02*
X69058533Y52971567D01*
X69058533Y52971567D02*
X69091866Y53038234D01*
X69091866Y53038234D02*
X69125199Y53171567D01*
X69125199Y53171567D02*
X69125199Y53271567D01*
X69125199Y53271567D02*
X69091866Y53404900D01*
X69091866Y53404900D02*
X69058533Y53471567D01*
X69058533Y53471567D02*
X68991866Y53538234D01*
X68991866Y53538234D02*
X68891866Y53571567D01*
X68891866Y53571567D02*
X68825199Y53571567D01*
X68825199Y53571567D02*
X68725199Y53538234D01*
X68725199Y53538234D02*
X68691866Y53504900D01*
X68058533Y52871567D02*
X68391866Y52871567D01*
X68391866Y52871567D02*
X68391866Y53571567D01*
X67825199Y52871567D02*
X67825199Y53571567D01*
X67425199Y52871567D02*
X67725199Y53271567D01*
X67425199Y53571567D02*
X67825199Y53171567D01*
X5086267Y45951567D02*
X4852934Y45251567D01*
X4852934Y45251567D02*
X4619600Y45951567D01*
X4086267Y45284900D02*
X4152934Y45251567D01*
X4152934Y45251567D02*
X4286267Y45251567D01*
X4286267Y45251567D02*
X4352934Y45284900D01*
X4352934Y45284900D02*
X4386267Y45318234D01*
X4386267Y45318234D02*
X4419600Y45384900D01*
X4419600Y45384900D02*
X4419600Y45584900D01*
X4419600Y45584900D02*
X4386267Y45651567D01*
X4386267Y45651567D02*
X4352934Y45684900D01*
X4352934Y45684900D02*
X4286267Y45718234D01*
X4286267Y45718234D02*
X4152934Y45718234D01*
X4152934Y45718234D02*
X4086267Y45684900D01*
X3486267Y45284900D02*
X3552934Y45251567D01*
X3552934Y45251567D02*
X3686267Y45251567D01*
X3686267Y45251567D02*
X3752934Y45284900D01*
X3752934Y45284900D02*
X3786267Y45318234D01*
X3786267Y45318234D02*
X3819600Y45384900D01*
X3819600Y45384900D02*
X3819600Y45584900D01*
X3819600Y45584900D02*
X3786267Y45651567D01*
X3786267Y45651567D02*
X3752934Y45684900D01*
X3752934Y45684900D02*
X3686267Y45718234D01*
X3686267Y45718234D02*
X3552934Y45718234D01*
X3552934Y45718234D02*
X3486267Y45684900D01*
X124350399Y15803434D02*
X124383732Y15770100D01*
X124383732Y15770100D02*
X124483732Y15736767D01*
X124483732Y15736767D02*
X124550399Y15736767D01*
X124550399Y15736767D02*
X124650399Y15770100D01*
X124650399Y15770100D02*
X124717066Y15836767D01*
X124717066Y15836767D02*
X124750399Y15903434D01*
X124750399Y15903434D02*
X124783732Y16036767D01*
X124783732Y16036767D02*
X124783732Y16136767D01*
X124783732Y16136767D02*
X124750399Y16270100D01*
X124750399Y16270100D02*
X124717066Y16336767D01*
X124717066Y16336767D02*
X124650399Y16403434D01*
X124650399Y16403434D02*
X124550399Y16436767D01*
X124550399Y16436767D02*
X124483732Y16436767D01*
X124483732Y16436767D02*
X124383732Y16403434D01*
X124383732Y16403434D02*
X124350399Y16370100D01*
X124083732Y15770100D02*
X123983732Y15736767D01*
X123983732Y15736767D02*
X123817066Y15736767D01*
X123817066Y15736767D02*
X123750399Y15770100D01*
X123750399Y15770100D02*
X123717066Y15803434D01*
X123717066Y15803434D02*
X123683732Y15870100D01*
X123683732Y15870100D02*
X123683732Y15936767D01*
X123683732Y15936767D02*
X123717066Y16003434D01*
X123717066Y16003434D02*
X123750399Y16036767D01*
X123750399Y16036767D02*
X123817066Y16070100D01*
X123817066Y16070100D02*
X123950399Y16103434D01*
X123950399Y16103434D02*
X124017066Y16136767D01*
X124017066Y16136767D02*
X124050399Y16170100D01*
X124050399Y16170100D02*
X124083732Y16236767D01*
X124083732Y16236767D02*
X124083732Y16303434D01*
X124083732Y16303434D02*
X124050399Y16370100D01*
X124050399Y16370100D02*
X124017066Y16403434D01*
X124017066Y16403434D02*
X123950399Y16436767D01*
X123950399Y16436767D02*
X123783732Y16436767D01*
X123783732Y16436767D02*
X123683732Y16403434D01*
X100186400Y15803434D02*
X100219733Y15770100D01*
X100219733Y15770100D02*
X100319733Y15736767D01*
X100319733Y15736767D02*
X100386400Y15736767D01*
X100386400Y15736767D02*
X100486400Y15770100D01*
X100486400Y15770100D02*
X100553067Y15836767D01*
X100553067Y15836767D02*
X100586400Y15903434D01*
X100586400Y15903434D02*
X100619733Y16036767D01*
X100619733Y16036767D02*
X100619733Y16136767D01*
X100619733Y16136767D02*
X100586400Y16270100D01*
X100586400Y16270100D02*
X100553067Y16336767D01*
X100553067Y16336767D02*
X100486400Y16403434D01*
X100486400Y16403434D02*
X100386400Y16436767D01*
X100386400Y16436767D02*
X100319733Y16436767D01*
X100319733Y16436767D02*
X100219733Y16403434D01*
X100219733Y16403434D02*
X100186400Y16370100D01*
X99919733Y15770100D02*
X99819733Y15736767D01*
X99819733Y15736767D02*
X99653067Y15736767D01*
X99653067Y15736767D02*
X99586400Y15770100D01*
X99586400Y15770100D02*
X99553067Y15803434D01*
X99553067Y15803434D02*
X99519733Y15870100D01*
X99519733Y15870100D02*
X99519733Y15936767D01*
X99519733Y15936767D02*
X99553067Y16003434D01*
X99553067Y16003434D02*
X99586400Y16036767D01*
X99586400Y16036767D02*
X99653067Y16070100D01*
X99653067Y16070100D02*
X99786400Y16103434D01*
X99786400Y16103434D02*
X99853067Y16136767D01*
X99853067Y16136767D02*
X99886400Y16170100D01*
X99886400Y16170100D02*
X99919733Y16236767D01*
X99919733Y16236767D02*
X99919733Y16303434D01*
X99919733Y16303434D02*
X99886400Y16370100D01*
X99886400Y16370100D02*
X99853067Y16403434D01*
X99853067Y16403434D02*
X99786400Y16436767D01*
X99786400Y16436767D02*
X99619733Y16436767D01*
X99619733Y16436767D02*
X99519733Y16403434D01*
M02*
