M48
; DRILL file {KiCad 8.0.6} date 2024-11-17T13:24:39+0200
; FORMAT={-:-/ absolute / metric / decimal}
; #@! TF.CreationDate,2024-11-17T13:24:39+02:00
; #@! TF.GenerationSoftware,Kicad,Pcbnew,8.0.6
; #@! TF.FileFunction,NonPlated,1,2,NPTH
FMAT,2
METRIC
; #@! TA.AperFunction,NonPlated,NPTH,ComponentDrill
T1C3.200
%
G90
G05
T1
X3.121Y6.15
X3.128Y38.18
X3.162Y26.094
X3.169Y58.124
X29.121Y26.15
X29.121Y6.15
X29.128Y58.18
X29.128Y38.18
X35.111Y6.154
X35.132Y38.16
X35.152Y26.098
X35.173Y58.104
X61.111Y26.154
X61.111Y6.154
X61.132Y58.16
X61.132Y38.16
X67.117Y6.117
X67.136Y38.151
X67.158Y26.061
X67.177Y58.095
X93.117Y26.117
X93.117Y6.117
X93.136Y58.151
X93.136Y38.151
X99.124Y38.17
X99.125Y6.107
X99.165Y58.114
X99.166Y26.051
X125.124Y58.17
X125.124Y38.17
X125.125Y26.107
X125.125Y6.107
M30
