M48
; DRILL file {KiCad 8.0.6} date 2024-11-17T13:24:39+0200
; FORMAT={-:-/ absolute / metric / decimal}
; #@! TF.CreationDate,2024-11-17T13:24:39+02:00
; #@! TF.GenerationSoftware,Kicad,Pcbnew,8.0.6
; #@! TF.FileFunction,Plated,1,2,PTH
FMAT,2
METRIC
; #@! TA.AperFunction,Plated,PTH,ViaDrill
T1C0.500
; #@! TA.AperFunction,Plated,PTH,ComponentDrill
T2C0.900
; #@! TA.AperFunction,Plated,PTH,ComponentDrill
T3C1.000
%
G90
G05
T1
X8.582Y21.39
X8.589Y53.42
X10.087Y15.584
X10.094Y47.614
X10.214Y11.808
X10.221Y43.837
X12.206Y14.448
X12.213Y46.478
X12.567Y16.748
X12.574Y48.778
X14.741Y15.464
X14.748Y47.494
X15.959Y23.01
X15.959Y6.571
X15.966Y55.039
X15.966Y38.6
X16.691Y11.286
X16.698Y43.316
X19.134Y20.287
X19.141Y52.316
X19.642Y11.905
X19.649Y43.934
X19.885Y25.073
X19.892Y57.103
X20.374Y22.817
X20.381Y54.846
X24.976Y15.588
X24.983Y47.617
X25.484Y11.016
X25.491Y43.045
X40.572Y21.394
X40.593Y53.4
X42.077Y15.588
X42.098Y47.594
X42.204Y11.812
X42.225Y43.818
X44.196Y14.452
X44.217Y46.458
X44.556Y16.752
X44.578Y48.758
X46.731Y15.468
X46.752Y47.474
X47.949Y23.014
X47.949Y6.575
X47.97Y55.02
X47.97Y38.581
X48.681Y11.29
X48.702Y43.296
X51.124Y20.291
X51.145Y52.297
X51.632Y11.909
X51.653Y43.915
X51.875Y25.077
X51.896Y57.083
X52.364Y22.821
X52.385Y54.827
X56.966Y15.592
X56.987Y47.598
X57.474Y11.02
X57.495Y43.026
X72.578Y21.357
X72.597Y53.391
X74.083Y15.551
X74.102Y47.585
X74.21Y11.775
X74.229Y43.808
X76.203Y14.415
X76.221Y46.449
X76.563Y16.715
X76.582Y48.749
X78.737Y15.431
X78.756Y47.465
X79.955Y22.977
X79.955Y6.538
X79.974Y55.01
X79.974Y38.571
X80.687Y11.253
X80.706Y43.287
X83.13Y20.254
X83.149Y52.287
X83.638Y11.872
X83.657Y43.905
X83.881Y25.04
X83.9Y57.074
X84.37Y22.784
X84.389Y54.817
X88.972Y15.555
X88.991Y47.588
X89.48Y10.983
X89.499Y43.016
X104.585Y53.41
X104.586Y21.347
X106.09Y47.604
X106.091Y15.541
X106.217Y43.828
X106.218Y11.765
X108.209Y46.468
X108.211Y14.405
X108.569Y48.768
X108.571Y16.705
X110.744Y47.484
X110.745Y15.421
X111.962Y55.03
X111.962Y38.591
X111.963Y22.967
X111.963Y6.528
X112.694Y43.306
X112.695Y11.243
X115.137Y52.307
X115.138Y20.244
X115.645Y43.925
X115.646Y11.862
X115.888Y57.093
X115.889Y25.03
X116.377Y54.837
X116.378Y22.774
X120.979Y47.608
X120.98Y15.545
X121.487Y43.036
X121.488Y10.973
X122.129Y49.326
X123.596Y46.939
X124.308Y44.326
X124.308Y41.046
T2
X7.121Y28.137
X7.121Y4.137
X7.128Y60.167
X7.128Y36.167
X9.661Y28.137
X9.661Y4.137
X9.668Y60.167
X9.668Y36.167
X12.201Y28.137
X12.201Y4.137
X12.208Y60.167
X12.208Y36.167
X14.741Y28.137
X14.741Y4.137
X14.748Y60.167
X14.748Y36.167
X17.281Y28.137
X17.281Y4.137
X17.288Y60.167
X17.288Y36.167
X19.821Y28.137
X19.821Y4.137
X19.828Y60.167
X19.828Y36.167
X22.361Y28.137
X22.361Y4.137
X22.368Y60.167
X22.368Y36.167
X24.901Y28.137
X24.901Y4.137
X24.908Y60.167
X24.908Y36.167
X39.111Y28.141
X39.111Y4.141
X39.132Y60.147
X39.132Y36.147
X41.651Y28.141
X41.651Y4.141
X41.672Y60.147
X41.672Y36.147
X44.191Y28.141
X44.191Y4.141
X44.212Y60.147
X44.212Y36.147
X46.731Y28.141
X46.731Y4.141
X46.752Y60.147
X46.752Y36.147
X49.271Y28.141
X49.271Y4.141
X49.292Y60.147
X49.292Y36.147
X51.811Y28.141
X51.811Y4.141
X51.832Y60.147
X51.832Y36.147
X54.351Y28.141
X54.351Y4.141
X54.372Y60.147
X54.372Y36.147
X56.891Y28.141
X56.891Y4.141
X56.912Y60.147
X56.912Y36.147
X71.117Y28.104
X71.117Y4.104
X71.136Y60.138
X71.136Y36.138
X73.657Y28.104
X73.657Y4.104
X73.676Y60.138
X73.676Y36.138
X76.197Y28.104
X76.197Y4.104
X76.216Y60.138
X76.216Y36.138
X78.737Y28.104
X78.737Y4.104
X78.756Y60.138
X78.756Y36.138
X81.277Y28.104
X81.277Y4.104
X81.296Y60.138
X81.296Y36.138
X83.817Y28.104
X83.817Y4.104
X83.836Y60.138
X83.836Y36.138
X86.357Y28.104
X86.357Y4.104
X86.376Y60.138
X86.376Y36.138
X88.897Y28.104
X88.897Y4.104
X88.916Y60.138
X88.916Y36.138
X103.124Y60.157
X103.124Y36.157
X103.125Y28.094
X103.125Y4.094
X105.664Y60.157
X105.664Y36.157
X105.665Y28.094
X105.665Y4.094
X108.204Y60.157
X108.204Y36.157
X108.205Y28.094
X108.205Y4.094
X110.744Y60.157
X110.744Y36.157
X110.745Y28.094
X110.745Y4.094
X113.284Y60.157
X113.284Y36.157
X113.285Y28.094
X113.285Y4.094
X115.824Y60.157
X115.824Y36.157
X115.825Y28.094
X115.825Y4.094
X118.364Y60.157
X118.364Y36.157
X118.365Y28.094
X118.365Y4.094
X120.904Y60.157
X120.904Y36.157
X120.905Y28.094
X120.905Y4.094
T3
X1.989Y21.176
X1.989Y18.636
X1.989Y16.096
X1.989Y13.556
X1.989Y11.016
X1.996Y53.205
X1.996Y50.665
X1.996Y48.125
X1.996Y45.585
X1.996Y43.045
X30.183Y21.176
X30.183Y18.636
X30.183Y16.096
X30.183Y13.556
X30.183Y11.016
X30.19Y53.205
X30.19Y50.665
X30.19Y48.125
X30.19Y45.585
X30.19Y43.045
X33.979Y21.18
X33.979Y18.64
X33.979Y16.1
X33.979Y13.56
X33.979Y11.02
X34.0Y53.186
X34.0Y50.646
X34.0Y48.106
X34.0Y45.566
X34.0Y43.026
X62.173Y21.18
X62.173Y18.64
X62.173Y16.1
X62.173Y13.56
X62.173Y11.02
X62.194Y53.186
X62.194Y50.646
X62.194Y48.106
X62.194Y45.566
X62.194Y43.026
X65.985Y21.143
X65.985Y18.603
X65.985Y16.063
X65.985Y13.523
X65.985Y10.983
X66.004Y53.176
X66.004Y50.636
X66.004Y48.096
X66.004Y45.556
X66.004Y43.016
X94.179Y21.143
X94.179Y18.603
X94.179Y16.063
X94.179Y13.523
X94.179Y10.983
X94.198Y53.176
X94.198Y50.636
X94.198Y48.096
X94.198Y45.556
X94.198Y43.016
X97.992Y53.196
X97.992Y50.656
X97.992Y48.116
X97.992Y45.576
X97.992Y43.036
X97.993Y21.133
X97.993Y18.593
X97.993Y16.053
X97.993Y13.513
X97.993Y10.973
X126.186Y53.196
X126.186Y50.656
X126.186Y48.116
X126.186Y45.576
X126.186Y43.036
X126.187Y21.133
X126.187Y18.593
X126.187Y16.053
X126.187Y13.513
X126.187Y10.973
M30
